<svg width="35" height="72" viewBox="0 0 35 72" fill="none" xmlns="http://www.w3.org/2000/svg">
<path d="M17.4174 14.0152C21.2822 14.0152 24.4251 10.8719 24.4251 7.00759C24.4251 3.14324 21.2822 0 17.4174 0C13.5535 0 10.4098 3.14324 10.4098 7.00759C10.4098 10.8719 13.5535 14.0152 17.4174 14.0152Z" fill="#627C8D"/>
<path d="M34.1274 36.3706C34.1702 36.2332 34.1801 36.085 34.1514 35.9352L30.6633 17.4301C30.3831 15.6985 28.9111 14.4431 27.1635 14.4431H7.6707C5.92225 14.4431 4.45095 15.6998 4.17618 17.407L0.68284 35.9352C0.654785 36.085 0.663968 36.2332 0.706476 36.3706C0.679441 36.5403 0.666687 36.7027 0.666687 36.8661C0.666687 38.8252 2.26075 40.4193 4.2209 40.4193C5.93364 40.4193 7.40018 39.1949 7.71321 37.4883L9.91447 23.7283L9.88607 67.6377C9.88607 69.5979 11.4793 71.1902 13.4393 71.1902C15.3992 71.1902 16.9933 69.5962 16.9933 67.6377V45.9034H17.8411V67.6376C17.8411 69.5977 19.4355 71.1901 21.3965 71.1901C23.3554 71.1901 24.949 69.596 24.949 67.6369L24.9203 23.7283L27.1251 37.5087C27.4345 39.1949 28.9023 40.4193 30.615 40.4193C32.5741 40.4193 34.1682 38.8252 34.1682 36.8661C34.1677 36.7027 34.1549 36.5384 34.1274 36.3706Z" fill="#627C8D"/>
</svg>
