<svg width="90" height="90" viewBox="0 0 90 90" fill="none" xmlns="http://www.w3.org/2000/svg">
<path d="M43.5 0.866026C44.4282 0.330128 45.5718 0.330127 46.5 0.866025L82.4711 21.634C83.3993 22.1699 83.9711 23.1603 83.9711 24.232V65.7679C83.9711 66.8397 83.3993 67.8301 82.4711 68.366L46.5 89.134C45.5718 89.6699 44.4282 89.6699 43.5 89.134L7.52886 68.366C6.60066 67.8301 6.02886 66.8397 6.02886 65.768V24.2321C6.02886 23.1603 6.60066 22.1699 7.52886 21.634L43.5 0.866026Z" fill="#0B2A59"/>
<path d="M43.75 6.92404C44.5235 6.47746 45.4765 6.47746 46.25 6.92404L77.3497 24.8795C78.1232 25.3261 78.5997 26.1514 78.5997 27.0445V62.9554C78.5997 63.8486 78.1232 64.6739 77.3497 65.1205L46.25 83.076C45.4765 83.5225 44.5235 83.5225 43.75 83.076L12.6503 65.1205C11.8767 64.6739 11.4002 63.8486 11.4002 62.9554V27.0446C11.4002 26.1514 11.8767 25.3261 12.6502 24.8795L43.75 6.92404Z" stroke="white" stroke-opacity="0.5"/>
<g clip-path="url(#clip0)">
<path d="M60.6759 34.3511C60.92 34.1069 61.0202 33.7539 60.9414 33.4182C60.8617 33.0817 60.6136 32.8112 60.2868 32.7023L53.9474 30.5895C53.5885 30.4679 53.1935 30.5632 52.9279 30.8298C52.6614 31.0963 52.568 31.4913 52.6877 31.8493L54.8004 38.1887C54.9094 38.5155 55.1798 38.7635 55.5164 38.8433C55.8663 38.924 56.214 38.813 56.4492 38.5777L57.7691 37.2578C59.1667 39.5758 60.0078 42.2596 60.0078 45C60.0078 53.2392 53.2392 60.0078 45 60.0078C44.4494 60.0078 44.0039 60.4534 44.0039 61.0039C44.0039 61.5545 44.4494 62 45 62C54.3374 62 62 54.3374 62 45C62 41.7277 60.9702 38.5386 59.2155 35.8115L60.6759 34.3511Z" fill="white"/>
<path d="M29.0217 55.3802C28.7775 55.6243 28.6773 55.9774 28.7561 56.313C28.8359 56.6496 29.0839 56.9201 29.4107 57.029L35.7501 59.1417C36.1013 59.261 36.5 59.1709 36.7696 58.9015C37.0362 58.6349 37.1295 58.24 37.0099 57.882L34.8961 51.5436C34.7871 51.2158 34.5167 50.9687 34.1802 50.889C33.8436 50.8101 33.4905 50.9113 33.2473 51.1545L32.0419 52.3599C30.7654 50.119 29.9922 47.6102 29.9922 45C29.9922 36.7608 36.7608 29.9922 45 29.9922C45.5506 29.9922 45.9961 29.5467 45.9961 28.9961C45.9961 28.4455 45.5506 28 45 28C35.6626 28 28 35.6626 28 45C28 48.1417 28.9607 51.1587 30.5874 53.8144L29.0217 55.3802Z" fill="white"/>
<path d="M46.9921 31.9844C45.2728 31.9844 43.7548 32.8606 42.8594 34.1896C43.5522 34.0518 44.2672 33.9766 44.9999 33.9766C47.6228 33.9766 50.0319 34.9051 51.9203 36.4478C51.6574 33.9473 49.5612 31.9844 46.9921 31.9844Z" fill="white"/>
<path d="M50.9766 53.9648C52.6269 53.9648 53.9648 52.6269 53.9648 50.9766C53.9648 49.3262 52.6269 47.9883 50.9766 47.9883C49.3262 47.9883 47.9883 49.3262 47.9883 50.9766C47.9883 52.6269 49.3262 53.9648 50.9766 53.9648Z" fill="white"/>
<path d="M38.0273 51.9727C39.1276 51.9727 40.0195 51.0807 40.0195 49.9805C40.0195 48.8802 39.1276 47.9883 38.0273 47.9883C36.9271 47.9883 36.0352 48.8802 36.0352 49.9805C36.0352 51.0807 36.9271 51.9727 38.0273 51.9727Z" fill="white"/>
<path d="M38.0273 39.9531C39.1276 39.9531 40.0195 39.0612 40.0195 37.9609C40.0195 36.8607 39.1276 35.9688 38.0273 35.9688C36.9271 35.9688 36.0352 36.8607 36.0352 37.9609C36.0352 39.0612 36.9271 39.9531 38.0273 39.9531Z" fill="white"/>
<path d="M45 35.9688C43.8525 35.9688 42.7644 36.2043 41.7559 36.5972C41.9128 37.0244 42.0117 37.4798 42.0117 37.9609C42.0117 40.1584 40.2248 41.9453 38.0273 41.9453C37.5462 41.9453 37.0908 41.8464 36.6636 41.6894C36.2707 42.698 36.0352 43.8525 36.0352 45C36.0352 45.5034 36.1036 45.9889 36.1834 46.4697C36.7373 46.1774 37.3584 45.9961 38.0273 45.9961C40.2248 45.9961 42.0117 47.783 42.0117 49.9805C42.0117 51.1137 41.5311 52.1318 40.7693 52.858C42.0348 53.5412 43.461 53.9648 45 53.9648C45.6366 53.9648 46.2558 53.8939 46.8549 53.7678C46.3134 52.9709 45.9961 52.0104 45.9961 50.9766C45.9961 48.2305 48.2305 45.9961 50.9766 45.9961C52.0104 45.9961 52.9709 46.3134 53.7678 46.8549C53.8939 46.2558 53.9648 45.6366 53.9648 45C53.9648 40.0488 49.9512 35.9688 45 35.9688Z" fill="white"/>
</g>
<defs>
<clipPath id="clip0">
<rect width="34" height="34" fill="white" transform="translate(28 28)"/>
</clipPath>
</defs>
</svg>
