<svg width="90" height="90" viewBox="0 0 90 90" fill="none" xmlns="http://www.w3.org/2000/svg">
<path d="M43.5 0.866026C44.4282 0.330128 45.5718 0.330127 46.5 0.866025L82.4711 21.634C83.3993 22.1699 83.9711 23.1603 83.9711 24.232V65.7679C83.9711 66.8397 83.3993 67.8301 82.4711 68.366L46.5 89.134C45.5718 89.6699 44.4282 89.6699 43.5 89.134L7.52886 68.366C6.60066 67.8301 6.02886 66.8397 6.02886 65.768V24.2321C6.02886 23.1603 6.60066 22.1699 7.52886 21.634L43.5 0.866026Z" fill="#0B2A59"/>
<path d="M43.75 6.92404C44.5235 6.47746 45.4765 6.47746 46.25 6.92404L77.3497 24.8795C78.1232 25.3261 78.5997 26.1514 78.5997 27.0445V62.9554C78.5997 63.8486 78.1232 64.6739 77.3497 65.1205L46.25 83.076C45.4765 83.5225 44.5235 83.5225 43.75 83.076L12.6503 65.1205C11.8767 64.6739 11.4002 63.8486 11.4002 62.9554V27.0446C11.4002 26.1514 11.8767 25.3261 12.6502 24.8795L43.75 6.92404Z" stroke="white" stroke-opacity="0.5"/>
<path d="M44.5002 36.3035C40.7305 36.3035 37.6636 39.3704 37.6636 43.1401C37.6636 46.9098 40.7305 49.9767 44.5002 49.9767C48.2698 49.9767 51.3368 46.9098 51.3368 43.1401C51.3368 39.3704 48.2698 36.3035 44.5002 36.3035ZM48.7563 44.1056H45.4657V47.3962H43.5347V44.1056H40.2441V42.1745H43.5347V38.884H45.4657V42.1745H48.7563V44.1056Z" fill="white"/>
<path d="M58.1082 33.2046C55.8156 33.1162 53.9972 31.2489 53.9685 28.9534L53.9565 28H35.0436L35.0316 28.9534C35.0029 31.2489 33.1845 33.1162 30.8919 33.2046L29.9636 33.2403V41.0163C29.9636 48.0408 33.6058 54.5581 39.4687 58.025L44.5001 61L49.5314 58.025C55.3944 54.5582 59.0366 48.0408 59.0366 41.0163V33.2403L58.1082 33.2046ZM44.5001 51.9078C39.6656 51.9078 35.7324 47.9747 35.7324 43.1402C35.7324 38.3057 39.6655 34.3724 44.5001 34.3724C49.3345 34.3724 53.2677 38.3056 53.2677 43.1401C53.2677 47.9746 49.3345 51.9078 44.5001 51.9078Z" fill="white"/>
</svg>
