<svg width="90" height="90" viewBox="0 0 90 90" fill="none" xmlns="http://www.w3.org/2000/svg">
<path d="M43.5 0.866026C44.4282 0.330128 45.5718 0.330127 46.5 0.866025L82.4711 21.634C83.3993 22.1699 83.9711 23.1603 83.9711 24.232V65.7679C83.9711 66.8397 83.3993 67.8301 82.4711 68.366L46.5 89.134C45.5718 89.6699 44.4282 89.6699 43.5 89.134L7.52886 68.366C6.60066 67.8301 6.02886 66.8397 6.02886 65.768V24.2321C6.02886 23.1603 6.60066 22.1699 7.52886 21.634L43.5 0.866026Z" fill="#0B2A59"/>
<path d="M43.75 6.92404C44.5235 6.47746 45.4765 6.47746 46.25 6.92404L77.3497 24.8795C78.1232 25.3261 78.5997 26.1514 78.5997 27.0445V62.9554C78.5997 63.8486 78.1232 64.6739 77.3497 65.1205L46.25 83.076C45.4765 83.5225 44.5235 83.5225 43.75 83.076L12.6503 65.1205C11.8767 64.6739 11.4002 63.8486 11.4002 62.9554V27.0446C11.4002 26.1514 11.8767 25.3261 12.6502 24.8795L43.75 6.92404Z" stroke="white" stroke-opacity="0.5"/>
<g clip-path="url(#clip0)">
<path d="M64.0001 42.6249C64.0001 36.9534 60.0972 32.338 55.2997 32.3333H55.2981C55.2981 32.3333 55.2949 32.3333 55.2933 32.3333H55.2918C55.2902 32.3333 55.2902 32.3333 55.2886 32.3333C48.1889 32.3713 42.9259 33.2405 38.0888 35.2038C39.0626 37.2733 41.4962 39.5232 43.5767 40.2214L43.9013 40.3243C44.7341 40.5888 45.1964 41.4786 44.932 42.3114C44.7183 42.9859 44.0944 43.4166 43.4231 43.4166C43.2632 43.4166 43.1033 43.3928 42.9433 43.3422L42.595 43.2313C39.6373 42.2402 36.5578 39.406 35.2135 36.5228C34.9475 36.6605 34.6783 36.7808 34.4123 36.9249C26.5115 41.2316 24.6273 48.6099 26.8915 53.3758C28.2057 56.1624 30.6598 57.6666 33.589 57.6666C34.824 57.6666 36.154 57.3974 37.4998 56.8433C38.4324 56.4664 39.3143 56.1213 40.1788 55.7903C38.6826 54.4841 36.629 53.1763 35.2689 52.8992C34.4139 52.7266 33.8202 51.8858 33.9912 51.0293C34.1622 50.1742 34.9538 49.609 35.8088 49.7768L35.888 49.7927C38.6367 50.35 41.9379 52.9071 43.5133 54.6218C46.9508 53.5499 50.423 52.9356 55.2949 52.915H55.2965C60.0972 52.9118 64.0001 48.2964 64.0001 42.6249ZM55.2918 49.7499C52.2359 49.7499 49.7501 46.5532 49.7501 42.6249C49.7501 38.6967 52.2359 35.4999 55.2918 35.4999C56.8925 35.4999 58.3254 36.3898 59.3372 37.791C57.5607 39.0608 56.3684 41.0321 56.0961 43.2203C55.9868 44.0879 56.6028 44.8796 57.4704 44.9873C57.5369 44.9968 57.6034 44.9999 57.6683 44.9999C58.4553 44.9999 59.1377 44.4141 59.2374 43.6129C59.3704 42.5458 59.8803 41.5736 60.6339 40.8358C60.7511 41.4121 60.8334 42.0043 60.8334 42.6249C60.8334 46.5532 58.3476 49.7499 55.2918 49.7499Z" fill="white"/>
</g>
<defs>
<clipPath id="clip0">
<rect width="38" height="38" fill="white" transform="translate(26 26)"/>
</clipPath>
</defs>
</svg>
