<svg width="90" height="90" viewBox="0 0 90 90" fill="none" xmlns="http://www.w3.org/2000/svg">
<path d="M43.5 0.866026C44.4282 0.330128 45.5718 0.330127 46.5 0.866025L82.4711 21.634C83.3993 22.1699 83.9711 23.1603 83.9711 24.232V65.7679C83.9711 66.8397 83.3993 67.8301 82.4711 68.366L46.5 89.134C45.5718 89.6699 44.4282 89.6699 43.5 89.134L7.52886 68.366C6.60066 67.8301 6.02886 66.8397 6.02886 65.768V24.2321C6.02886 23.1603 6.60066 22.1699 7.52886 21.634L43.5 0.866026Z" fill="#0B2A59"/>
<path d="M43.75 6.92404C44.5235 6.47746 45.4765 6.47746 46.25 6.92404L77.3497 24.8795C78.1232 25.3261 78.5997 26.1514 78.5997 27.0445V62.9554C78.5997 63.8486 78.1232 64.6739 77.3497 65.1205L46.25 83.076C45.4765 83.5225 44.5235 83.5225 43.75 83.076L12.6503 65.1205C11.8767 64.6739 11.4002 63.8486 11.4002 62.9554V27.0446C11.4002 26.1514 11.8767 25.3261 12.6502 24.8795L43.75 6.92404Z" stroke="white" stroke-opacity="0.5"/>
<path d="M46.0417 42.9583C46.0417 42.3952 45.7231 41.9228 45.2708 41.6536V39.1041C45.2708 38.678 44.926 38.3333 44.5 38.3333C44.0739 38.3333 43.7291 38.678 43.7291 39.1041V41.6536C43.2769 41.9228 42.9583 42.3952 42.9583 42.9583C42.9583 43.8081 43.65 44.4999 44.4999 44.4999C45.3497 44.4999 46.0417 43.8081 46.0417 42.9583Z" fill="white"/>
<path d="M57.6041 26C54.5787 26 52.2083 28.7084 52.2083 32.1666C52.2083 34.6483 54.0801 39.0446 56.8333 39.7633V54.5208C56.8333 58.3464 53.7213 61.4583 49.8958 61.4583C46.2144 61.4583 43.2231 58.568 43.0009 54.9417C45.4179 54.6342 47.5833 54.0589 47.5833 52.9791V50.0131C50.3008 48.8203 52.2083 46.111 52.2083 42.9582C52.2083 39.8054 50.3008 37.0961 47.5833 35.9033V31.3959C47.5833 29.1948 38.5937 29.0834 36.7916 29.0834C34.9896 29.0834 26 29.1947 26 31.3959V52.9792C26 55.1803 34.9896 55.2917 36.7916 55.2917C37.5217 55.2917 39.4327 55.2708 41.4461 55.1027C41.7474 59.5067 45.4168 63 49.8959 63C54.5713 63 58.375 59.1963 58.375 54.5209V39.7633C61.1282 39.0446 63 34.6483 63 32.1666C63 28.7084 60.6295 26 57.6041 26ZM28.3689 31.3959C29.9332 31.0134 33.1302 30.625 36.7916 30.625C40.4531 30.625 43.6502 31.0134 45.2143 31.3959C43.6502 31.7782 40.4531 32.1666 36.7916 32.1666C33.1302 32.1666 29.9332 31.7782 28.3689 31.3959ZM38.3334 42.9584C38.3334 39.5581 41.0998 36.7917 44.5 36.7917C47.9002 36.7917 50.6666 39.5581 50.6666 42.9584C50.6666 46.3586 47.9002 49.125 44.5 49.125C41.0998 49.125 38.3334 46.3586 38.3334 42.9584Z" fill="white"/>
</svg>
