<svg width="90" height="90" viewBox="0 0 90 90" fill="none" xmlns="http://www.w3.org/2000/svg">
<path d="M43.5 0.866026C44.4282 0.330128 45.5718 0.330127 46.5 0.866025L82.4711 21.634C83.3993 22.1699 83.9711 23.1603 83.9711 24.232V65.7679C83.9711 66.8397 83.3993 67.8301 82.4711 68.366L46.5 89.134C45.5718 89.6699 44.4282 89.6699 43.5 89.134L7.52886 68.366C6.60066 67.8301 6.02886 66.8397 6.02886 65.768V24.2321C6.02886 23.1603 6.60066 22.1699 7.52886 21.634L43.5 0.866026Z" fill="#0B2A59"/>
<path d="M43.75 6.92404C44.5235 6.47746 45.4765 6.47746 46.25 6.92404L77.3497 24.8795C78.1232 25.3261 78.5997 26.1514 78.5997 27.0445V62.9554C78.5997 63.8486 78.1232 64.6739 77.3497 65.1205L46.25 83.076C45.4765 83.5225 44.5235 83.5225 43.75 83.076L12.6503 65.1205C11.8767 64.6739 11.4002 63.8486 11.4002 62.9554V27.0446C11.4002 26.1514 11.8767 25.3261 12.6502 24.8795L43.75 6.92404Z" stroke="white" stroke-opacity="0.5"/>
<g clip-path="url(#clip0)">
<path d="M28.9001 53.3999C27.7403 53.3999 26.8 54.3401 26.8 55.4999C26.8 55.8865 27.1134 56.1999 27.5 56.1999C27.8866 56.1999 28.2001 55.8865 28.2001 55.4999C28.2001 55.1133 28.5135 54.7999 28.9001 54.7999C29.2867 54.7999 29.6001 54.4865 29.6001 54.0999C29.6001 53.7133 29.2867 53.3999 28.9001 53.3999Z" fill="white"/>
<path d="M35.8231 57.8657C35.0254 57.7162 34.2383 57.5146 33.4669 57.2623C34.1605 55.4819 33.753 53.4605 32.4236 52.0879C31.0942 50.7153 29.0869 50.2433 27.2852 50.8797C27.3216 47.6142 30.4142 43.9924 35.3821 41.3394C35.7111 40.6394 36.0681 39.9394 36.4461 39.2534C29.5609 42.3775 25.4547 47.1928 25.9286 51.6126C24.4166 52.7636 23.7074 54.6857 24.1096 56.5429C24.5117 58.4 25.9525 59.8566 27.8052 60.279C29.6578 60.7014 31.5876 60.0133 32.755 58.5139C34.2187 59.0011 35.7309 59.3283 37.2651 59.4897C36.739 58.9905 36.2566 58.4472 35.8231 57.8657ZM28.9001 58.9997C26.9671 58.9997 25.4001 57.4327 25.4001 55.4997C25.4001 53.5667 26.9671 51.9997 28.9001 51.9997C30.8331 51.9997 32.4001 53.5667 32.4001 55.4997C32.3978 57.4318 30.8321 58.9974 28.9001 58.9997Z" fill="white"/>
<path d="M65.1063 42.4098C66.3853 40.9847 66.2756 38.7948 64.8606 37.5045C63.4457 36.2143 61.2549 36.3067 59.9536 37.7114C58.2434 36.9911 56.4402 36.5156 54.5972 36.2988C54.9192 36.8098 55.2412 37.3348 55.5632 37.8668C56.8177 38.0802 58.0446 38.4324 59.2214 38.9168C59.0791 39.2952 59.0043 39.6956 59.0002 40.0998C59.0025 42.0319 60.5681 43.5975 62.5002 43.5998C62.9969 43.5983 63.4875 43.4899 63.9387 43.282C63.9821 43.4157 64.0269 43.5473 64.0612 43.6908C64.6842 46.4138 62.9552 49.5428 59.4552 52.2308C59.3235 52.9579 59.1291 53.6723 58.8742 54.3658C63.7672 51.1458 66.2592 47.0228 65.4192 43.3758C65.3419 43.0457 65.2373 42.7225 65.1063 42.4098ZM60.4002 40.0998C60.4002 38.94 61.3404 37.9998 62.5002 37.9998C63.66 37.9998 64.6002 38.94 64.6002 40.0998C64.6002 41.2596 63.66 42.1998 62.5002 42.1998C61.3404 42.1998 60.4002 41.2596 60.4002 40.0998Z" fill="white"/>
<path d="M45.0001 34.5V38C45.0001 38.3866 44.6867 38.7 44.3001 38.7H43.6001L46.4001 42.431L49.2001 38.7H48.5001C48.1135 38.7 47.8001 38.3866 47.8001 38V34.5H45.0001Z" fill="white"/>
<path d="M45.8771 28.4393C43.5804 31.0699 34.5 41.9437 34.5 49.6752C34.4387 56.3091 39.7661 61.7372 46.4 61.7999C53.034 61.7372 58.3614 56.3091 58.3 49.6752C58.3 41.9437 49.2196 31.0699 46.9229 28.4393C46.7917 28.2873 46.6008 28.2 46.4 28.2C46.1992 28.2 46.0084 28.2873 45.8771 28.4393ZM42.2 53.3999H38C37.6134 53.3999 37.3 53.0865 37.3 52.6999V45.6999C37.3 45.3133 37.6134 44.9999 38 44.9999C38.3866 44.9999 38.7 45.3133 38.7 45.6999V51.9999H42.2C42.5866 51.9999 42.9 52.3133 42.9 52.6999C42.9 53.0865 42.5866 53.3999 42.2 53.3999ZM49.2 50.5999C49.2 52.1463 47.9464 53.3999 46.4 53.3999H44.3C43.9134 53.3999 43.6 53.0865 43.6 52.6999V45.6999C43.6 45.3133 43.9134 44.9999 44.3 44.9999H46.4C47.9464 44.9999 49.2 46.2535 49.2 47.7999V50.5999ZM50.6 45.6999C50.6 45.3133 50.9134 44.9999 51.3 44.9999C51.6866 44.9999 52 45.3133 52 45.6999V51.9999H55.5C55.8866 51.9999 56.2 52.3133 56.2 52.6999C56.2 53.0865 55.8866 53.3999 55.5 53.3999H51.3C50.9134 53.3999 50.6 53.0865 50.6 52.6999V45.6999ZM49.2 34.4999V37.2999C49.7303 37.2999 50.2151 37.5995 50.4522 38.0738C50.6894 38.5481 50.6382 39.1157 50.32 39.5399L47.52 43.2737C47.2563 43.6276 46.8406 43.8359 46.3992 43.8352C45.9577 43.8345 45.5427 43.625 45.28 43.2702L42.48 39.5427C42.1602 39.1184 42.1081 38.5497 42.3454 38.0744C42.5828 37.5991 43.0687 37.2991 43.6 37.2999V34.4999C43.6 33.7267 44.2268 33.0999 45 33.0999H47.8C48.5732 33.0999 49.2 33.7267 49.2 34.4999Z" fill="white"/>
<path d="M46.4 46.3999H45V51.9999H46.4C47.1732 51.9999 47.8 51.3731 47.8 50.5999V47.7999C47.8 47.0267 47.1732 46.3999 46.4 46.3999Z" fill="white"/>
</g>
<defs>
<clipPath id="clip0">
<rect width="42" height="42" fill="white" transform="translate(24 24)"/>
</clipPath>
</defs>
</svg>
