<svg width="142" height="61" viewBox="0 0 142 61" fill="none" xmlns="http://www.w3.org/2000/svg">
<path d="M13.9026 12.4617C20.7957 12.4617 27.1007 17.0947 27.1007 26.3541V32.527C27.1007 41.7863 20.7957 46.4194 13.9026 46.4194H13.1982C6.30504 46.4194 0 41.7863 0 32.527V26.3541C0 17.0947 6.30504 12.4617 13.1982 12.4617H13.9026ZM13.3555 18.7845C9.68323 18.7845 7.50861 21.2781 7.50861 25.7136V33.1606C7.50861 37.6302 9.68323 40.0898 13.3555 40.0898H13.7384C17.4107 40.0898 19.5853 37.637 19.5853 33.1606V25.7136C19.5853 21.2781 17.4107 18.7845 13.7384 18.7845H13.3555Z" fill="#3B6035"/>
<path d="M42.5762 21.8164C43.0002 21.8164 43.3968 21.8641 43.6361 21.9118C43.9165 21.9595 44.0806 22.2116 44.0806 22.4841V27.744C44.0806 28.2005 43.7456 28.439 43.3147 28.3913C42.9591 28.3436 42.077 28.2959 41.5299 28.2959H41.2085C39.6425 28.2959 37.673 28.8478 36.2369 29.8629V45.193C36.2369 45.5609 35.9908 45.813 35.6215 45.813H29.884C29.5147 45.813 29.2617 45.5677 29.2617 45.193V23.036C29.2617 22.6681 29.5079 22.416 29.884 22.416H34.9308C35.2248 22.416 35.4368 22.5863 35.5121 22.8793L36.0113 25.4547C37.7346 23.1177 40.1759 21.8096 42.3984 21.8096H42.5762V21.8164Z" fill="#3B6035"/>
<path d="M66.5106 24.5756C66.7773 24.7528 66.9483 25.0594 66.9483 25.3591V44.1776C66.9483 51.4134 61.1493 54.2273 56.1709 54.2273H55.9657C51.9311 54.2273 49.7701 53.4915 47.7391 52.8851C47.3972 52.7897 47.2262 52.4967 47.2262 52.0334V47.7546C47.2262 47.3867 47.5203 47.1823 47.8485 47.3049C49.9753 48.1294 52.061 48.8924 54.3245 48.8924H54.5502C58.1882 48.8924 59.9799 47.5638 59.9799 44.1504V42.7536C58.2019 44.273 56.2119 45.1179 54.1467 45.1179H53.6885C48.04 45.1179 45.3593 40.6279 45.3593 35.0477V32.3905C45.3593 25.584 49.3872 21.823 55.5691 21.823H56.041C60.1851 21.8162 64.5206 23.3424 66.5106 24.5756ZM56.0957 39.5514C57.2787 39.5514 58.6396 39.0812 59.9799 38.0729V28.4183C58.7011 27.7302 57.2377 27.2601 56.1572 27.2601H55.9315C53.7022 27.2601 52.4918 28.7726 52.4918 31.8795V34.8978C52.4918 38.0047 53.6133 39.5514 55.8905 39.5514H56.0957Z" fill="#3B6035"/>
<path d="M79.5106 21.8164C84.4479 21.8164 88.5989 23.6832 88.6809 30.7146V45.193C88.6809 45.5609 88.4347 45.8062 88.0586 45.8062H83.0187C82.7246 45.8062 82.5127 45.6358 82.4374 45.3429L82.0613 43.3125C80.6663 44.6752 78.2113 46.4126 75.3391 46.4126H75.0929C70.6343 46.4126 68.4323 43.2375 68.4323 39.7627V39.2722C68.4323 34.6664 71.4412 32.1999 78.3822 31.6957L81.7057 31.4641L81.7126 30.9735C81.7126 28.0915 80.5363 27.2602 77.8899 27.2602H77.7805C75.7426 27.2602 73.438 27.9893 70.8873 28.6979C70.5659 28.7796 70.265 28.6229 70.265 28.2482V24.0784C70.265 23.6151 70.436 23.3221 70.7779 23.2267C72.8841 22.5795 76.0367 21.8096 79.3123 21.8096H79.5106V21.8164ZM79.3259 35.5521C76.6179 35.593 75.4417 36.6559 75.4417 38.3933V38.55C75.4417 40.083 76.5153 41.1254 78.1361 41.1254H78.3617C79.4969 41.1254 80.5022 40.6485 81.7057 39.5924V35.518L79.3259 35.5521Z" fill="#3B6035"/>
<path d="M104.826 21.8164C109.21 21.8164 112.144 24.5485 112.144 29.386V45.193C112.144 45.5609 111.897 45.813 111.521 45.813H105.791C105.421 45.813 105.175 45.5677 105.175 45.193V30.9054C105.175 28.5071 104.252 27.3761 102.016 27.3761H101.804C100.6 27.3761 99.1642 27.9143 97.8512 28.766V45.1862C97.8512 45.5541 97.605 45.8062 97.2289 45.8062H91.4983C91.129 45.8062 90.8828 45.5609 90.8828 45.1862V23.036C90.8828 22.668 91.129 22.4159 91.4983 22.4159H96.5451C96.8391 22.4159 97.0511 22.5863 97.1263 22.8792L97.5024 24.8415C99.9574 22.7225 102.084 21.8027 104.293 21.8027H104.826V21.8164Z" fill="#3B6035"/>
<path d="M120.61 22.4226C120.979 22.4226 121.232 22.6679 121.232 23.0426V45.1928C121.232 45.5607 120.986 45.8128 120.61 45.8128H114.872C114.503 45.8128 114.257 45.5675 114.257 45.1928V23.0358C114.257 22.6679 114.503 22.4158 114.872 22.4158H120.61V22.4226Z" fill="#3B6035"/>
<path d="M134.348 21.8164C136.577 21.8164 139.292 22.6681 140.701 23.3494C141.043 23.4788 141.214 23.7377 141.214 24.2011V28.4798C141.214 28.8478 140.92 29.0522 140.591 28.9295C138.348 27.9484 136.871 27.3761 135.374 27.3761H135.107C132.221 27.3761 130.019 29.2361 130.019 33.0243V35.1978C130.019 38.9928 132.221 40.8461 135.107 40.8461H135.374C136.871 40.8461 138.355 40.2737 140.591 39.2926C140.913 39.17 141.214 39.3676 141.214 39.7423V44.0211C141.214 44.4844 141.043 44.7365 140.701 44.8728C139.285 45.5609 136.577 46.4058 134.348 46.4058H133.828C128.029 46.4058 122.894 42.7947 122.894 35.3409V32.8744C122.894 25.4138 128.029 21.8096 133.828 21.8096H134.348V21.8164Z" fill="#3B6035"/>
<path d="M69.5742 51.6386H68.0629V50.0579H73.5542C75.6536 50.0579 77.3564 51.5636 77.3564 53.4713C77.3564 54.8885 76.5016 56.8099 73.2465 56.8099H71.277V59.0719H73.944V60.6526H68.0561V59.0719H69.5674V51.6386H69.5742ZM71.277 55.2224H72.8635C73.8072 55.2224 75.592 55.0725 75.592 53.41C75.592 52.4085 74.8535 51.6386 73.4926 51.6386H71.277V55.2224Z" fill="#3B6035"/>
<path d="M88.7834 59.072V60.6526H86.1916C85.8907 59.5421 85.0906 57.3686 83.2237 56.1626H81.5004V59.072H83.128V60.6526H78.2864V59.072H79.7977V51.6454H78.2864V50.0647H84.1332C85.9523 50.0647 87.3678 51.1753 87.3678 53.0217C87.3678 53.887 87.0259 55.0793 85.3984 55.8901C85.7608 56.1899 86.5882 56.9462 87.2516 58.5678L87.4567 59.0788H88.7834V59.072ZM81.4936 54.5819H83.4631C84.9197 54.5819 85.6035 53.887 85.6035 53.0353C85.6035 52.279 85.1317 51.6386 84.0512 51.6386H81.4936V54.5819Z" fill="#3B6035"/>
<path d="M93.9875 49.717C96.7161 49.717 99.0616 51.8496 99.0616 55.3721C99.0616 58.8401 96.7366 60.9931 93.9875 60.9931C91.2453 60.9931 88.9134 58.8469 88.9134 55.3721C88.9134 51.8496 91.259 49.717 93.9875 49.717ZM93.9875 59.4124C95.7655 59.4124 97.2426 57.7704 97.2426 55.3789C97.2426 52.9466 95.7655 51.3046 93.9875 51.3046C92.2095 51.3046 90.7324 52.9466 90.7324 55.3789C90.7324 57.7704 92.2095 59.4124 93.9875 59.4124Z" fill="#3B6035"/>
<path d="M99.7386 50.0579H105.394C108.177 50.0579 110.03 51.9997 110.03 55.2019C110.03 58.4451 108.157 60.6526 105.148 60.6526H99.7386V59.0719H101.25V51.6454H99.7386V50.0579ZM102.953 59.0719H105.052C108.116 59.0719 108.211 55.9446 108.211 55.1883C108.211 52.8513 107.022 51.6454 105.503 51.6454H102.946V59.0719H102.953Z" fill="#3B6035"/>
<path d="M109.921 50.0579H114.804V51.6386H112.95V56.6941C112.95 57.6343 113.005 59.4126 115.337 59.4126C117.662 59.4126 117.724 57.6616 117.724 56.6941V51.6386H115.87V50.0579H120.753V51.6386H119.426V56.769C119.426 59.4058 117.97 60.9933 115.337 60.9933C112.704 60.9933 111.248 59.4126 111.248 56.769V51.6386H109.921V50.0579Z" fill="#3B6035"/>
<path d="M130.813 59.2626C129.527 60.3186 127.899 61 126.251 61C123.448 61 120.931 58.8878 120.931 55.2699C120.931 52.1767 123.01 49.7239 126.19 49.7239C126.928 49.7239 127.838 49.8533 128.952 50.5551L129.048 49.9146L130.676 50.2553C130.525 50.8753 130.389 51.6725 130.389 52.1017C130.389 52.6877 130.518 53.4031 130.73 53.989L129.028 54.3501L128.898 53.335C128.747 52.0336 127.441 51.3182 126.326 51.3182C124.795 51.3182 122.75 52.2993 122.75 55.2427C122.75 57.4298 123.755 59.4261 126.231 59.4261C126.894 59.4261 128.104 59.3103 129.787 58.0294L130.813 59.2626Z" fill="#3B6035"/>
<path d="M133.65 59.072H135.825V51.6454H133.555L133.288 55.093L131.585 54.8886L131.961 50.0647H141.385L141.761 54.8886L140.058 55.093L139.791 51.6454H137.521V59.072H139.696V60.6526H133.637V59.072H133.65Z" fill="#3B6035"/>
<path d="M118.011 4.39461C114.578 8.37361 113.826 14.0355 115.282 20.188C116.014 16.829 117.361 13.0816 119.283 9.39561C120.445 7.16083 121.711 5.13045 123.01 3.40667C122.401 7.17446 120.924 11.5759 118.681 15.9024C117.765 17.6806 116.766 19.3022 115.761 20.7739C118.462 19.9427 120.794 18.5391 122.579 16.4883C126.128 12.3594 126.846 6.4318 125.164 0C122.312 0.810789 119.851 2.25522 118.011 4.39461Z" fill="#3B6035"/>
</svg>
