<svg width="90" height="90" viewBox="0 0 90 90" fill="none" xmlns="http://www.w3.org/2000/svg">
<path d="M43.5 0.866026C44.4282 0.330128 45.5718 0.330127 46.5 0.866025L82.4711 21.634C83.3993 22.1699 83.9711 23.1603 83.9711 24.232V65.7679C83.9711 66.8397 83.3993 67.8301 82.4711 68.366L46.5 89.134C45.5718 89.6699 44.4282 89.6699 43.5 89.134L7.52886 68.366C6.60066 67.8301 6.02886 66.8397 6.02886 65.768V24.2321C6.02886 23.1603 6.60066 22.1699 7.52886 21.634L43.5 0.866026Z" fill="#0B2A59"/>
<path d="M43.75 6.92404C44.5235 6.47746 45.4765 6.47746 46.25 6.92404L77.3497 24.8795C78.1232 25.3261 78.5997 26.1514 78.5997 27.0445V62.9554C78.5997 63.8486 78.1232 64.6739 77.3497 65.1205L46.25 83.076C45.4765 83.5225 44.5235 83.5225 43.75 83.076L12.6503 65.1205C11.8767 64.6739 11.4002 63.8486 11.4002 62.9554V27.0446C11.4002 26.1514 11.8767 25.3261 12.6502 24.8795L43.75 6.92404Z" stroke="white" stroke-opacity="0.5"/>
<path d="M36.875 47.75V42.75C36.875 42.4056 36.595 42.125 36.25 42.125C35.905 42.125 35.625 42.4056 35.625 42.75V47.75C35.625 48.095 35.905 48.375 36.25 48.375C36.595 48.375 36.875 48.095 36.875 47.75Z" fill="white"/>
<path d="M34.375 44C34.375 43.6556 34.095 43.375 33.75 43.375C33.405 43.375 33.125 43.6556 33.125 44V47.75C33.125 48.095 33.405 48.375 33.75 48.375C34.095 48.375 34.375 48.095 34.375 47.75V44Z" fill="white"/>
<path d="M39.375 47.75V42.75C39.375 42.4056 39.095 42.125 38.75 42.125C38.405 42.125 38.125 42.4056 38.125 42.75V47.75C38.125 48.095 38.405 48.375 38.75 48.375C39.095 48.375 39.375 48.095 39.375 47.75Z" fill="white"/>
<path d="M41.25 35.875C40.905 35.875 40.625 36.1556 40.625 36.5V43.375H41.875V36.5C41.875 36.1556 41.595 35.875 41.25 35.875Z" fill="white"/>
<path d="M55 27.125C50.52 27.125 46.875 30.77 46.875 35.25C46.875 39.73 50.52 43.375 55 43.375C59.48 43.375 63.125 39.73 63.125 35.25C63.125 30.77 59.48 27.125 55 27.125ZM60 35.875C60 36.2188 59.7188 36.5 59.375 36.5H56.25V39.625C56.25 39.9688 55.9688 40.25 55.625 40.25H54.375C54.0312 40.25 53.75 39.9688 53.75 39.625V36.5H50.625C50.2812 36.5 50 36.2188 50 35.875V34.625C50 34.2812 50.2812 34 50.625 34H53.75V30.875C53.75 30.5312 54.0312 30.25 54.375 30.25H55.625C55.9688 30.25 56.25 30.5312 56.25 30.875V34H59.375C59.7188 34 60 34.2812 60 34.625V35.875Z" fill="white"/>
<path d="M45.625 50.5906V45.875C45.625 45.1856 45.0644 44.625 44.375 44.625H40.625C40.625 45.415 41.1863 46.0994 41.9613 46.2544L44.1625 46.695L43.645 47.4713C42.8613 48.6475 42.3231 49.9462 42.0456 51.3319L41.8625 52.2475L40.6369 52.0019L40.82 51.0863C41.0688 49.8419 41.5069 48.6594 42.1238 47.5613L41.7156 47.4794C41.3119 47.3988 40.9469 47.2275 40.625 47.0012V47.75C40.625 48.7838 39.7838 49.625 38.75 49.625C38.2681 49.625 37.8325 49.4369 37.5 49.1375C37.1675 49.4375 36.7319 49.625 36.25 49.625C35.7681 49.625 35.3325 49.4369 35 49.1375C34.8194 49.3006 34.6088 49.4269 34.375 49.51V51.1219C34.375 52.4719 34.7713 53.78 35.52 54.9037L35.625 55.0606V61.5481C36.8094 61.9219 38.0688 62.125 39.375 62.125C40.6813 62.125 41.9406 61.9219 43.125 61.5487V55.0306L44.8031 52.9325C45.3331 52.27 45.625 51.4381 45.625 50.5906ZM37.5325 54.1975C37.2031 53.2094 36.4156 52.4219 35.4275 52.0925L35.8231 50.9075C37.1825 51.3606 38.265 52.4431 38.7181 53.8025L37.5325 54.1975Z" fill="white"/>
<path d="M45.625 35.2499C45.625 35.0037 45.6431 34.7624 45.6619 34.5206C42.9362 30.2612 40.2788 26.9912 39.375 26.0549C37.3569 28.1468 26.875 41.7087 26.875 49.6249C26.875 54.7399 29.9656 59.1406 34.375 61.0743V55.4349C33.5563 54.1424 33.125 52.6549 33.125 51.1218V49.5099C32.3994 49.2512 31.875 48.5637 31.875 47.7499V43.9999C31.875 42.9662 32.7162 42.1249 33.75 42.1249C33.9969 42.1249 34.2313 42.1756 34.4475 42.2624C34.6638 41.4656 35.3856 40.8749 36.25 40.8749C36.7319 40.8749 37.1675 41.0631 37.5 41.3624C37.8325 41.0624 38.2681 40.8749 38.75 40.8749C38.9694 40.8749 39.1794 40.9131 39.375 40.9818V36.4999C39.375 35.4662 40.2163 34.6249 41.25 34.6249C42.2837 34.6249 43.125 35.4662 43.125 36.4999V43.3749H44.375C45.7537 43.3749 46.875 44.4962 46.875 45.8749V50.5906C46.875 51.7218 46.4856 52.8306 45.7794 53.7137L44.375 55.4693V61.0743C48.7844 59.1406 51.875 54.7399 51.875 49.6249C51.875 47.9418 51.375 45.8487 50.3956 43.4068C47.5513 41.7949 45.625 38.7456 45.625 35.2499Z" fill="white"/>
</svg>
