<svg width="90" height="90" viewBox="0 0 90 90" fill="none" xmlns="http://www.w3.org/2000/svg">
<path d="M43.5 0.866026C44.4282 0.330128 45.5718 0.330127 46.5 0.866025L82.4711 21.634C83.3993 22.1699 83.9711 23.1603 83.9711 24.232V65.7679C83.9711 66.8397 83.3993 67.8301 82.4711 68.366L46.5 89.134C45.5718 89.6699 44.4282 89.6699 43.5 89.134L7.52886 68.366C6.60066 67.8301 6.02886 66.8397 6.02886 65.768V24.2321C6.02886 23.1603 6.60066 22.1699 7.52886 21.634L43.5 0.866026Z" fill="#0B2A59"/>
<path d="M43.75 6.92404C44.5235 6.47746 45.4765 6.47746 46.25 6.92404L77.3497 24.8795C78.1232 25.3261 78.5997 26.1514 78.5997 27.0445V62.9554C78.5997 63.8486 78.1232 64.6739 77.3497 65.1205L46.25 83.076C45.4765 83.5225 44.5235 83.5225 43.75 83.076L12.6503 65.1205C11.8767 64.6739 11.4002 63.8486 11.4002 62.9554V27.0446C11.4002 26.1514 11.8767 25.3261 12.6502 24.8795L43.75 6.92404Z" stroke="white" stroke-opacity="0.5"/>
<g clip-path="url(#clip0)">
<path d="M56.448 60H55.8022C54.5557 60 53.5417 58.986 53.5417 57.7396V31.2604C53.5417 30.014 54.5557 29 55.8022 29H56.448C57.6945 29 58.7084 30.014 58.7084 31.2604V57.7396C58.7084 58.986 57.6945 60 56.448 60Z" fill="white"/>
<path d="M33.198 60H32.5522C31.3057 60 30.2917 58.986 30.2917 57.7396V31.2604C30.2917 30.014 31.3057 29 32.5522 29H33.198C34.4445 29 35.4584 30.014 35.4584 31.2604V57.7396C35.4584 58.986 34.4445 60 33.198 60Z" fill="white"/>
<path d="M49.0208 35.4583C50.0908 35.4583 50.9583 34.5908 50.9583 33.5208C50.9583 32.4507 50.0908 31.5833 49.0208 31.5833C47.9507 31.5833 47.0833 32.4507 47.0833 33.5208C47.0833 34.5908 47.9507 35.4583 49.0208 35.4583Z" fill="white"/>
<path d="M47.7292 56.125C48.7993 56.125 49.6667 55.2576 49.6667 54.1875C49.6667 53.1174 48.7993 52.25 47.7292 52.25C46.6592 52.25 45.7917 53.1174 45.7917 54.1875C45.7917 55.2576 46.6592 56.125 47.7292 56.125Z" fill="white"/>
<path d="M39.9792 45.7917C41.0493 45.7917 41.9167 44.9243 41.9167 43.8542C41.9167 42.7842 41.0493 41.9167 39.9792 41.9167C38.9092 41.9167 38.0417 42.7842 38.0417 43.8542C38.0417 44.9243 38.9092 45.7917 39.9792 45.7917Z" fill="white"/>
<path d="M39.3334 33.5208C38.6204 33.5208 38.0417 32.9422 38.0417 32.2292C38.0417 30.4493 39.491 29 41.2709 29C41.9839 29 42.5626 29.5787 42.5626 30.2917C42.5626 31.0047 41.9839 31.5833 41.2709 31.5833C40.9144 31.5833 40.6251 31.8727 40.6251 32.2292C40.6251 32.9422 40.0464 33.5208 39.3334 33.5208Z" fill="white"/>
<path d="M41.2709 39.3333C40.5579 39.3333 39.9792 38.7547 39.9792 38.0417C39.9792 37.3287 40.5579 36.75 41.2709 36.75C41.6274 36.75 41.9167 36.4607 41.9167 36.1042C41.9167 35.3912 42.4954 34.8125 43.2084 34.8125C43.9214 34.8125 44.5001 35.3912 44.5001 36.1042C44.5001 37.8841 43.0508 39.3333 41.2709 39.3333Z" fill="white"/>
<path d="M49.6667 45.1458C48.9537 45.1458 48.375 44.5672 48.375 43.8542C48.375 43.4977 48.0857 43.2083 47.7292 43.2083C47.0162 43.2083 46.4375 42.6297 46.4375 41.9167C46.4375 41.2037 47.0162 40.625 47.7292 40.625C49.5091 40.625 50.9583 42.0742 50.9583 43.8542C50.9583 44.5672 50.3797 45.1458 49.6667 45.1458Z" fill="white"/>
<path d="M41.2709 60.0001C39.491 60.0001 38.0417 58.5508 38.0417 56.7709C38.0417 56.0579 38.6204 55.4792 39.3334 55.4792C40.0464 55.4792 40.6251 56.0579 40.6251 56.7709C40.6251 57.1274 40.9144 57.4167 41.2709 57.4167C41.9839 57.4167 42.5626 57.9954 42.5626 58.7084C42.5626 59.4214 41.9839 60.0001 41.2709 60.0001Z" fill="white"/>
<path d="M43.2084 51.6041C42.4954 51.6041 41.9167 51.0254 41.9167 50.3124C41.9167 48.5325 43.366 47.0833 45.1459 47.0833C45.8589 47.0833 46.4376 47.6619 46.4376 48.3749C46.4376 49.0879 45.8589 49.6666 45.1459 49.6666C44.7894 49.6666 44.5001 49.9559 44.5001 50.3124C44.5001 51.0254 43.9214 51.6041 43.2084 51.6041Z" fill="white"/>
</g>
<defs>
<clipPath id="clip0">
<rect width="31" height="31" fill="white" transform="translate(29 29)"/>
</clipPath>
</defs>
</svg>
