<svg width="90" height="90" viewBox="0 0 90 90" fill="none" xmlns="http://www.w3.org/2000/svg">
<path d="M43.5 0.866026C44.4282 0.330128 45.5718 0.330127 46.5 0.866025L82.4711 21.634C83.3993 22.1699 83.9711 23.1603 83.9711 24.232V65.7679C83.9711 66.8397 83.3993 67.8301 82.4711 68.366L46.5 89.134C45.5718 89.6699 44.4282 89.6699 43.5 89.134L7.52886 68.366C6.60066 67.8301 6.02886 66.8397 6.02886 65.768V24.2321C6.02886 23.1603 6.60066 22.1699 7.52886 21.634L43.5 0.866026Z" fill="#0B2A59"/>
<path d="M43.75 6.92404C44.5235 6.47746 45.4765 6.47746 46.25 6.92404L77.3497 24.8795C78.1232 25.3261 78.5997 26.1514 78.5997 27.0445V62.9554C78.5997 63.8486 78.1232 64.6739 77.3497 65.1205L46.25 83.076C45.4765 83.5225 44.5235 83.5225 43.75 83.076L12.6503 65.1205C11.8767 64.6739 11.4002 63.8486 11.4002 62.9554V27.0446C11.4002 26.1514 11.8767 25.3261 12.6502 24.8795L43.75 6.92404Z" stroke="white" stroke-opacity="0.5"/>
<g clip-path="url(#clip0)">
<path d="M42.7836 51.6634L38.7615 41.5901L37.3225 45.9162H29.1399C31.3328 49.328 35.1362 52.5861 39.9375 56.6851C41.3106 57.8575 42.7712 59.1041 44.306 60.4498L45 61.0588L45.6944 60.4498C47.2289 59.1041 48.6895 57.8575 50.0625 56.6851C54.8639 52.5861 58.6673 49.3278 60.8602 45.9162H45.6521L42.7836 51.6634Z" fill="white"/>
<path d="M53.512 29.0078C49.1922 29.0232 46.4421 31.9739 45.0001 34.6807C43.5653 31.9904 40.8267 29.0078 36.5604 29.0078C36.5357 29.0078 36.5121 29.0078 36.4884 29.0078C31.4691 29.048 27.2684 33.338 27.013 38.7745C26.9279 40.5831 27.2638 42.2274 27.9383 43.8026H35.8023L38.5822 35.4474L42.9978 46.5083L44.3481 43.8026H62.0616C62.7365 42.2274 63.0724 40.5831 62.9869 38.7745C62.7318 33.338 58.5312 29.048 53.512 29.0078Z" fill="white"/>
</g>
<defs>
<clipPath id="clip0">
<rect width="36" height="36" fill="white" transform="translate(27 27)"/>
</clipPath>
</defs>
</svg>
