<svg width="20" height="20" viewBox="0 0 20 20" fill="none" xmlns="http://www.w3.org/2000/svg">
<path d="M15 3.33334H5C4.07952 3.33334 3.33333 4.07954 3.33333 5.00001V15C3.33333 15.9205 4.07952 16.6667 5 16.6667H15C15.9205 16.6667 16.6667 15.9205 16.6667 15V5.00001C16.6667 4.07954 15.9205 3.33334 15 3.33334Z" fill="#337AB7" stroke="#337AB7" stroke-width="0.833333" stroke-linecap="round" stroke-linejoin="round"/>
<path d="M6.66667 9.16666V13.3333" stroke="white" stroke-width="0.833333" stroke-linecap="round" stroke-linejoin="round"/>
<path d="M6.66667 6.66666V6.67499" stroke="white" stroke-width="0.833333" stroke-linecap="round" stroke-linejoin="round"/>
<path d="M10 13.3333V9.16666" stroke="white" stroke-width="0.833333" stroke-linecap="round" stroke-linejoin="round"/>
<path d="M13.3333 13.3333V10.8333C13.3333 10.3913 13.1577 9.96737 12.8452 9.65481C12.5326 9.34225 12.1087 9.16666 11.6667 9.16666C11.2246 9.16666 10.8007 9.34225 10.4882 9.65481C10.1756 9.96737 10 10.3913 10 10.8333" stroke="white" stroke-width="0.833333" stroke-linecap="round" stroke-linejoin="round"/>
</svg>
