<svg width="100" height="53" viewBox="0 0 100 53" fill="none" xmlns="http://www.w3.org/2000/svg">
<path fill-rule="evenodd" clip-rule="evenodd" d="M60.3715 41H3.09562C1.38604 41 0 39.5979 0 37.8684V16.1325C0 14.4026 1.38604 13 3.09562 13H60.3715C60.7184 13 61 13.2849 61 13.6358V40.3647C61 40.7156 60.7184 41 60.3715 41Z" fill="#3067A7"/>
<mask id="mask0" mask-type="alpha" maskUnits="userSpaceOnUse" x="47" y="0" width="53" height="53">
<path d="M47.314 0.236023H99.679V52.442H47.314V0.236023Z" fill="white"/>
</mask>
<g mask="url(#mask0)">
<path fill-rule="evenodd" clip-rule="evenodd" d="M99.6008 28.3374C100.708 13.9642 89.9177 1.41747 75.5009 0.314204C61.0841 -0.789464 48.4992 9.96753 47.3922 24.3406C46.2852 38.7141 57.0749 51.2605 71.4921 52.3646C85.9093 53.4679 98.4938 42.7109 99.6008 28.3374Z" fill="#FEFEFE"/>
</g>
<path fill-rule="evenodd" clip-rule="evenodd" d="M12.6411 33C11.769 33 11.0343 32.9069 10.4367 32.7206C9.83879 32.5339 9.3605 32.2511 9.00227 31.8713C8.64327 31.4919 8.3865 31.0155 8.23159 30.4422C8.07707 29.8697 8 29.2036 8 28.444V19H11.8395V28.092C11.8395 28.6029 11.927 28.9512 12.1032 29.1378C12.2786 29.3241 12.6129 29.4172 13.1051 29.4172H23V33H12.6411ZM37.0145 27.4863L34.7006 22.2331C34.6263 22.0741 34.5303 21.9585 34.4114 21.8856C34.2926 21.8139 34.1591 21.7772 34.0112 21.7772C33.8777 21.7772 33.7515 21.8099 33.6331 21.8749C33.5138 21.9402 33.4174 22.0597 33.3439 22.2331L31.052 27.4863H37.0145ZM43.7554 32.3489C43.8142 32.4649 43.8628 32.5737 43.8995 32.6749C43.9367 32.7757 43.9702 32.8845 44 33H39.4616C39.4318 32.8992 39.4024 32.8084 39.3726 32.7287C39.3427 32.6494 39.3133 32.5737 39.2835 32.5007L38.4827 30.7207H29.5839L28.8051 32.4792C28.7753 32.5661 28.7459 32.653 28.7165 32.7398C28.6863 32.8263 28.6642 32.9132 28.6495 33H24C24.0294 32.8845 24.0629 32.7757 24.1001 32.6749C24.1368 32.5737 24.185 32.4649 24.2442 32.3489L29.6284 20.7137C30.0584 19.802 30.622 19.1222 31.3191 18.6731C32.0163 18.2248 32.9057 18 33.9888 18C35.0416 18 35.9204 18.2248 36.6253 18.6731C37.3294 19.1222 37.8966 19.802 38.3271 20.7137L43.7554 32.3489Z" fill="#FEFEFE"/>
<path fill-rule="evenodd" clip-rule="evenodd" d="M66 19V22.707H55.4089C55.0154 22.707 54.8183 22.9142 54.8183 23.3286V24.8401H65.9369V28.3198H54.8183V33H51V21.5684C51 19.8562 51.8575 19 53.5735 19H66ZM79.5002 33C78.9712 33 78.4795 32.8938 78.0241 32.6809C77.5687 32.4681 77.2234 32.1349 76.9888 31.6807L72.4724 22.6381C72.4287 22.5248 72.3324 22.4678 72.186 22.4678C72.0979 22.4678 72.017 22.4998 71.9434 22.5635C71.8702 22.6276 71.8334 22.7232 71.8334 22.851V32.702H68V22.1698C68 21.3613 68.1213 20.695 68.364 20.1697C68.6062 19.6455 68.9475 19.2124 69.3883 18.8722C69.7256 18.6167 70.1114 18.4078 70.5445 18.2445C70.9777 18.0817 71.4589 18 71.9879 18C72.9273 18 73.6953 18.248 74.2898 18.7445C74.8847 19.2409 75.3732 19.8865 75.755 20.6805L79.1253 27.7445C79.1989 27.9292 79.3239 28.0214 79.5002 28.0214C79.6765 28.0214 79.8011 27.9292 79.8747 27.7445L83.2454 20.6805C83.6272 19.8865 84.1117 19.2409 84.6993 18.7445C85.2869 18.248 86.0577 18 87.0125 18C87.5411 18 88.0219 18.0817 88.4559 18.2445C88.8886 18.4078 89.274 18.6167 89.6121 18.8722C90.0529 19.2124 90.3938 19.6455 90.6364 20.1697C90.8791 20.695 91 21.3613 91 22.1698V32.702H87.1666V22.851C87.1666 22.7232 87.1298 22.6276 87.057 22.5635C86.983 22.4998 86.9025 22.4678 86.8144 22.4678C86.6676 22.4678 86.5717 22.5248 86.528 22.6381L82.0116 31.6807C81.7766 32.1349 81.4309 32.4681 80.9759 32.6809C80.5205 32.8938 80.0292 33 79.5002 33Z" fill="#3067A7"/>
<path fill-rule="evenodd" clip-rule="evenodd" d="M94.1238 30.1363C94.8768 30.4806 95.2083 31.3704 94.8637 32.1237C94.5195 32.877 93.6296 33.2082 92.8766 32.8639C92.1229 32.5193 91.7917 31.6295 92.1363 30.8762C92.4809 30.1232 93.3708 29.7917 94.1238 30.1363Z" fill="#E20714"/>
</svg>
