<svg width="16" height="16" viewBox="0 0 16 16" fill="none" xmlns="http://www.w3.org/2000/svg">
<path d="M14.6666 2.67333C14 3 13.3466 3.13267 12.6666 3.33333C11.9193 2.49 10.8113 2.44333 9.74665 2.842C8.68198 3.24067 7.98465 4.21533 7.99998 5.33333V6C5.83665 6.05533 3.90998 5.07 2.66665 3.33333C2.66665 3.33333 -0.121354 8.28867 5.33331 10.6667C4.08531 11.498 2.84065 12.0587 1.33331 12C3.53865 13.202 5.94198 13.6153 8.02265 13.0113C10.4093 12.318 12.3706 10.5293 13.1233 7.85C13.3478 7.03511 13.4593 6.19324 13.4546 5.348C13.4533 5.182 14.4613 3.5 14.6666 2.67267V2.67333Z" fill="#BEBEBE" stroke="#BEBEBE" stroke-width="1.33333" stroke-linecap="round" stroke-linejoin="round"/>
</svg>
