<svg width="49" height="49" viewBox="0 0 49 49" fill="none" xmlns="http://www.w3.org/2000/svg">
<circle cx="24.5" cy="24.5" r="24.5" fill="#2D5F9A"/>
<g clip-path="url(#clip0)">
<path d="M33.1967 18.4476L12.3067 20.7636C11.9752 20.8024 11.7072 21.0601 11.6612 21.3931C11.6139 21.7267 11.7995 22.0485 12.1117 22.1739L21.8074 26.0969L20.7561 36.5031C20.7214 36.8378 20.9203 37.1533 21.2355 37.2666C21.4492 37.3451 21.6808 37.3169 21.8655 37.2054C21.9548 37.1516 22.0326 37.0789 22.0934 36.9891L33.884 19.5897C34.0455 19.3517 34.0534 19.0435 33.9055 18.7984C33.7576 18.5533 33.4814 18.4165 33.1967 18.4476Z" fill="white"/>
</g>
<defs>
<clipPath id="clip0">
<rect width="20.552" height="20.552" fill="white" transform="translate(11 20.6162) rotate(-31.1015)"/>
</clipPath>
</defs>
</svg>
