<svg width="23" height="23" viewBox="0 0 23 23" fill="none" xmlns="http://www.w3.org/2000/svg">
<path d="M18.7174 0H4.28247C3.91034 0 3.60864 0.301695 3.60864 0.673828V22.3262C3.60864 22.5987 3.77283 22.8444 4.02462 22.9487C4.10799 22.9832 4.19555 23 4.28234 23C4.45771 23 4.63003 22.9316 4.75896 22.8026L11.5001 16.0616L18.2409 22.8026C18.4336 22.9953 18.7235 23.053 18.9752 22.9487C19.227 22.8444 19.3912 22.5987 19.3912 22.3262V0.673828C19.3912 0.301695 19.0895 0 18.7174 0ZM11.5 14.4348C11.3213 14.4348 11.1499 14.5058 11.0236 14.6322L4.9563 20.6994V1.34766H18.0435V20.6993L11.9765 14.6322C11.8501 14.5058 11.6788 14.4348 11.5 14.4348Z" fill="#C1C1D5"/>
</svg>
