<svg width="28" height="28" viewBox="0 0 28 28" fill="none" xmlns="http://www.w3.org/2000/svg">
<g clip-path="url(#clip0)">
<path d="M0 0V1.93103H5.7931V3.37931H18.8276V0H0Z" fill="#2E5166"/>
<path d="M5.7931 1.93103H0V3.37931H5.7931V1.93103Z" fill="#FFBE00"/>
<path d="M18.8276 3.3793H6.27586H5.7931H0V6.27586H18.8276V3.3793Z" fill="#F88756"/>
<path d="M18.8276 6.27586H0V13.0345H18.8276V6.27586Z" fill="#E15D2D"/>
<path d="M28 5.31035H18.8276V13.0345H4.82764V18.8276H28V5.31035Z" fill="#3F708D"/>
<path d="M27.9998 18.8276H4.82739V22.6897H27.9998V18.8276Z" fill="#E3DCD9"/>
<path d="M15.931 4.82759H2.89648V5.79311H15.931V4.82759Z" fill="#E3DCD9"/>
<path d="M15.9309 6.75862H4.34473V7.72414H15.9309V6.75862Z" fill="#E3DCD9"/>
<path d="M8.68959 8.68967H2.89648V9.65518H8.68959V8.68967Z" fill="#E3DCD9"/>
<path d="M15.9309 8.68967H9.65503V9.65518H15.9309V8.68967Z" fill="#E3DCD9"/>
<path d="M5.79304 10.6207H2.89648V11.5862H5.79304V10.6207Z" fill="#E3DCD9"/>
<path d="M15.931 10.6207H6.75854V11.5862H15.931V10.6207Z" fill="#E3DCD9"/>
<path d="M20.2759 14.9655V19.7931L21.7242 18.3448L23.6552 20.2759L25.5862 18.3448L23.6552 16.4138L25.1035 14.9655H20.2759Z" fill="#FFBE00"/>
<path d="M9.65521 14.4828H8.6897V17.3793H9.65521V14.4828Z" fill="#E3DCD9"/>
<path d="M15.4482 14.4828H10.6206V15.4483H15.4482V14.4828Z" fill="#E3DCD9"/>
<path d="M18.8276 14.4828H16.4138V15.4483H18.8276V14.4828Z" fill="#E3DCD9"/>
<path d="M13.5172 16.4138H10.6206V17.3793H13.5172V16.4138Z" fill="#E3DCD9"/>
<path d="M18.8275 16.4138H14.4827V17.3793H18.8275V16.4138Z" fill="#E3DCD9"/>
<path d="M16.8964 20.2759H15.9309V21.2414H16.8964V20.2759Z" fill="#FFBE00"/>
<path d="M18.3447 22.6897H14.4827V26.069H18.3447V22.6897Z" fill="#B9ACA9"/>
<path d="M14.4827 26.069H10.6206V28H22.2068V26.069H18.3447H14.4827Z" fill="#E3DCD9"/>
</g>
<defs>
<clipPath id="clip0">
<rect width="28" height="28" fill="white"/>
</clipPath>
</defs>
</svg>
