<svg width="30" height="30" viewBox="0 0 30 30" fill="none" xmlns="http://www.w3.org/2000/svg">
<path d="M20.032 3.47695V7.22912L22.9312 8.5418L25.8304 6.78398V3.47695H20.032Z" fill="#75E2F8"/>
<path d="M22.9312 3.47695V8.5418L25.8304 6.78398V3.47695H22.9312Z" fill="#2AD8F6"/>
<path d="M20.032 6.78398V16.8855C20.032 18.4842 21.3326 19.7848 22.9312 19.7848C24.5298 19.7848 25.8304 18.4842 25.8304 16.8855V6.78398H20.032Z" fill="#FF4949"/>
<path d="M22.9312 6.78398V19.7848C24.5298 19.7848 25.8303 18.4842 25.8303 16.8855V6.78398H22.9312Z" fill="#EA0016"/>
<path d="M12.1008 3.47695V7.22912L15 8.5418L17.8993 6.78398V3.47695H12.1008Z" fill="#75E2F8"/>
<path d="M15 3.47695V8.5418L17.8992 6.78398V3.47695H15Z" fill="#2AD8F6"/>
<path d="M12.1008 6.78398V16.8855C12.1008 18.4842 13.4014 19.7848 15 19.7848C16.5987 19.7848 17.8992 18.4842 17.8992 16.8855V6.78398H12.1008Z" fill="#FF4949"/>
<path d="M15 6.78398V19.7848C16.5986 19.7848 17.8992 18.4842 17.8992 16.8855V6.78398H15Z" fill="#EA0016"/>
<path d="M4.16968 3.47695V7.22912L7.0689 8.5418L9.96811 6.78398V3.47695H4.16968Z" fill="#75E2F8"/>
<path d="M7.0686 3.47695V8.5418L9.96782 6.78398V3.47695H7.0686Z" fill="#2AD8F6"/>
<path d="M4.16968 6.78398V16.8855C4.16968 18.4842 5.47028 19.7848 7.0689 19.7848C8.66751 19.7848 9.96805 18.4842 9.96805 16.8855V6.78398H4.16968Z" fill="#FF4949"/>
<path d="M7.0686 6.78398V19.7848C8.66721 19.7848 9.96776 18.4842 9.96776 16.8855V6.78398H7.0686Z" fill="#EA0016"/>
<path d="M27.5081 23.9134V11.3995H29.2659V22.5245L27.5081 23.9134Z" fill="#00317E"/>
<path d="M0.734131 22.5245V11.3995H2.49194V23.9134L0.734131 22.5245Z" fill="#0065A3"/>
<path d="M0 10.5206H30V12.2784H0V10.5206Z" fill="#BDBDD2"/>
<path d="M0.734131 22.5245H29.2658V26.523H0.734131V22.5245Z" fill="#BDBDD2"/>
<path d="M15 10.5206H30V12.2784H15V10.5206Z" fill="#ABABC5"/>
<path d="M15 22.5245H29.2659V26.523H15V22.5245Z" fill="#ABABC5"/>
</svg>
