<svg width="24" height="24" viewBox="0 0 24 24" fill="none" xmlns="http://www.w3.org/2000/svg">
<g clip-path="url(#clip0)">
<path d="M9.99463 22.7285C9.99463 23.4111 10.5478 23.9646 11.2304 23.9646H12.8781C13.5606 23.9646 14.1139 23.4111 14.1139 22.7285V20.2564H9.99463V22.7285Z" fill="#EBEBEB"/>
<path d="M8.05346 15.7888C7.69323 15.5567 7.35351 15.2935 7.03853 15.0028C6.76961 16.0371 5.75328 16.6929 4.70033 16.5119C3.64719 16.3308 2.90822 15.3734 2.99973 14.3085C3.09125 13.2437 3.98288 12.4265 5.05151 12.4281C5.11447 12.4281 5.17501 12.4412 5.23515 12.4466C4.84475 11.5286 4.64341 10.5414 4.64361 9.54399H4.11925L3.83465 10.8981C3.80629 11.0331 3.71236 11.145 3.58443 11.1961C3.45631 11.2474 3.31129 11.2311 3.19785 11.1528L2.05963 10.368L0.82385 11.6041L1.60647 12.7424C1.68471 12.856 1.701 13.0011 1.64971 13.129C1.59862 13.2572 1.48679 13.3511 1.35203 13.3793L0 13.6642V15.3122L1.35364 15.5969C1.4884 15.6253 1.60023 15.7192 1.65152 15.8472C1.70261 15.9751 1.68632 16.1204 1.60808 16.2338L0.82385 17.3723L2.05963 18.6084L3.19785 17.8254C3.31129 17.7471 3.45651 17.7306 3.58463 17.7819C3.71276 17.833 3.80669 17.9451 3.83505 18.0801L4.11925 19.4324H5.76695L6.05116 18.0781C6.07952 17.9429 6.17345 17.831 6.30157 17.7799C6.42969 17.7286 6.57491 17.7449 6.68835 17.8234L7.82658 18.6084L9.11968 17.315C8.98411 16.6835 8.59974 16.1332 8.05346 15.7888Z" fill="#C9DFFF"/>
<path d="M19.4688 9.54399C19.4684 5.98813 16.9448 2.93281 13.4537 2.26167C9.96259 1.59053 6.48637 3.49209 5.16813 6.79446C3.84989 10.0968 5.06032 13.8704 8.05341 15.7888C8.73928 16.2141 9.16066 16.9603 9.17072 17.7674V19.4324C9.17072 20.115 9.72384 20.6685 10.4065 20.6685H13.7019C14.3843 20.6685 14.9377 20.115 14.9377 19.4324V17.8016C14.9481 16.9754 15.378 16.2113 16.0787 15.7735C18.1934 14.4079 19.4703 12.0618 19.4688 9.54399Z" fill="#FFB41F"/>
<path d="M22.02 5.18522L23.3151 4.21372L21.8321 2.23592L20.537 3.20742C20.2705 3.40719 19.9099 3.4267 19.6233 3.25691C19.3366 3.08711 19.1806 2.7614 19.2274 2.43167L19.4561 0.829266L17.0093 0.479614L16.7806 2.08181C16.7337 2.41195 16.4926 2.68113 16.1698 2.76382C15.8469 2.8467 15.506 2.7268 15.3061 2.46003L14.335 1.16463L12.3578 2.64794L13.3287 3.94334C13.5284 4.2101 13.548 4.57062 13.3782 4.8573C13.2084 5.14398 12.8828 5.30009 12.5531 5.25322L10.9511 5.02448L10.6013 7.47184L12.2038 7.70058C12.5336 7.74765 12.8027 7.98887 12.8854 8.31176C12.9681 8.63466 12.8482 8.97566 12.5815 9.17563L11.2868 10.1471L12.7698 12.1247L14.0645 11.1536C14.331 10.9537 14.6918 10.9339 14.9786 11.1037C15.2652 11.2735 15.4215 11.5995 15.3745 11.9294L15.1438 13.5314L17.5906 13.8812L17.8213 12.2784C17.8683 11.9485 18.1095 11.6795 18.4323 11.5968C18.7552 11.5139 19.0961 11.6341 19.2958 11.9006L20.2673 13.1956L22.2444 11.7123L21.2728 10.4173C21.0728 10.1508 21.0531 9.78983 21.2229 9.50295C21.3926 9.21627 21.7185 9.05995 22.0483 9.10723L23.6504 9.33617L24.0002 6.88882L22.3981 6.65987C22.0685 6.61259 21.7995 6.37158 21.7167 6.04869C21.634 5.72599 21.7537 5.38519 22.02 5.18522ZM17.3009 10.0642C15.7084 10.0642 14.4175 8.77307 14.4175 7.18012C14.4175 5.58738 15.7084 4.296 17.3009 4.296C18.8935 4.296 20.1844 5.58738 20.1844 7.18012C20.1844 8.77307 18.8935 10.0642 17.3009 10.0642Z" fill="#1CC8EB"/>
<path d="M9.99463 21.4925H14.1139V22.3165H9.99463V21.4925Z" fill="#9E9E9E"/>
<path d="M11.6426 18.1964H12.4664V19.4324H11.6426V18.1964Z" fill="#FFAA00"/>
<path d="M12.4662 17.3723H11.6423C11.6419 16.2829 10.9703 15.3064 9.95339 14.9165C7.92614 14.1237 6.51779 12.2567 6.31223 10.0892C6.10667 7.92167 7.1387 5.82316 8.9807 4.66316L9.41776 5.36025C7.83845 6.35428 6.95325 8.15323 7.12945 10.0115C7.30544 11.8696 8.51265 13.4702 10.2507 14.1498C11.5858 14.6606 12.4672 15.9425 12.4662 17.3723Z" fill="#FFAA00"/>
<path d="M20.293 15.3122H22.3527C22.5801 15.3122 22.7646 15.4965 22.7646 15.7243C22.7646 15.9518 22.5801 16.1363 22.3527 16.1363H20.293C20.0655 16.1363 19.8811 15.9518 19.8811 15.7243C19.8811 15.4965 20.0655 15.3122 20.293 15.3122Z" fill="#FFAA00"/>
<path d="M19.469 17.7845C19.6147 17.6097 19.8743 17.586 20.0491 17.7316L21.8879 19.264C22.0627 19.4097 22.0864 19.6694 21.9408 19.8442C21.795 20.019 21.5353 20.0428 21.3605 19.8971L19.5217 18.3647C19.3469 18.2191 19.3234 17.9594 19.469 17.7845Z" fill="#FFAA00"/>
<path d="M17.8213 18.6084C18.0488 18.6084 18.2333 18.7927 18.2333 19.0204V21.0805C18.2333 21.308 18.0488 21.4925 17.8213 21.4925C17.5939 21.4925 17.4094 21.308 17.4094 21.0805V19.0204C17.4094 18.7927 17.5939 18.6084 17.8213 18.6084Z" fill="#FFAA00"/>
<path d="M0.408457 6.98377L2.90455 6.36012C3.12539 6.30499 3.34886 6.43918 3.40397 6.65987C3.45908 6.88057 3.32492 7.10408 3.10407 7.1592L0.607983 7.78286C0.387136 7.83799 0.163675 7.7038 0.108564 7.4831C0.0534526 7.26241 0.18761 7.0389 0.408457 6.98377Z" fill="#FFAA00"/>
<path d="M0.932167 2.5399C1.06431 2.35482 1.32157 2.31217 1.50661 2.44434L3.7195 4.02542C3.90475 4.15759 3.94759 4.4149 3.81544 4.59999C3.6833 4.78508 3.42604 4.82793 3.241 4.69555L1.02811 3.11447C0.842863 2.9823 0.800021 2.72499 0.932167 2.5399Z" fill="#FFAA00"/>
<path d="M4.62153 0.0671961C4.84197 0.0108656 5.06624 0.143846 5.12255 0.364339L5.76096 2.86199C5.81728 3.08249 5.68433 3.307 5.46388 3.36333C5.24344 3.41966 5.01917 3.28648 4.96285 3.06619L4.32445 0.568537C4.26813 0.348044 4.40108 0.123527 4.62153 0.0671961Z" fill="#FFAA00"/>
</g>
<defs>
<clipPath id="clip0">
<rect width="24" height="24" fill="white"/>
</clipPath>
</defs>
</svg>
