<svg width="27" height="27" viewBox="0 0 27 27" fill="none" xmlns="http://www.w3.org/2000/svg">
<path d="M24.8906 21.5156H2.10938L1.26562 20.6719V2.10938C1.26562 1.8856 1.35452 1.67099 1.51275 1.51275C1.67099 1.35452 1.8856 1.26563 2.10938 1.26562H24.8906C25.1144 1.26563 25.329 1.35452 25.4872 1.51275C25.6455 1.67099 25.7344 1.8856 25.7344 2.10938V20.6719L24.8906 21.5156Z" fill="#7FCAC9"/>
<path d="M8.01562 16.4531H2.95312V9.70312H5.48438L8.01562 12.2344V16.4531Z" fill="#D8D7C3"/>
<path d="M8.01562 12.2344H5.48438V9.70312L8.01562 12.2344Z" fill="#EFEEDC"/>
<path d="M9.70312 9.70312H4.64062V2.95312H7.17188L9.70312 5.48438V9.70312Z" fill="#F4F4E6"/>
<path d="M9.70312 5.48438H7.17188V2.95312L9.70312 5.48438Z" fill="#D8D7C3"/>
<path d="M10.5469 21.5156H16.4531V24.0469H10.5469V21.5156Z" fill="#394D5C"/>
<path d="M6.75 24.0469H20.25V25.7344H6.75V24.0469Z" fill="#7D8D9C"/>
<path d="M1.26562 18.1406H25.7344V20.6719C25.7344 20.8957 25.6455 21.1103 25.4872 21.2685C25.329 21.4267 25.1144 21.5156 24.8906 21.5156H2.10938C1.8856 21.5156 1.67099 21.4267 1.51275 21.2685C1.35452 21.1103 1.26563 20.8957 1.26562 20.6719V18.1406Z" fill="#7D8D9C"/>
<path d="M13.0781 19.4062H13.9219V20.25H13.0781V19.4062Z" fill="#F4F4E6"/>
<path d="M12.9267 13.7776L12.2939 13.2224L12.6116 13.5L12.2935 13.2228C12.4036 13.0963 14.9622 10.0778 12.2935 7.02759L12.9263 6.4724C16.0865 10.0828 12.9588 13.7413 12.9267 13.7776Z" fill="#FFD782"/>
<path d="M11.6437 12.5326L11.0472 11.9361L11.3454 12.2344L11.0459 11.9391C11.2303 11.7526 12.7963 10.0655 11.0459 8.316L11.6437 7.71736C13.5464 9.62212 12.4748 11.6999 11.6437 12.5326Z" fill="#FFD782"/>
<path d="M19.8281 5.0625C18.9103 5.0625 18.0131 5.33467 17.2499 5.84459C16.4868 6.3545 15.892 7.07927 15.5407 7.92723C15.1895 8.7752 15.0976 9.70827 15.2767 10.6085C15.4557 11.5087 15.8977 12.3355 16.5467 12.9845C17.1957 13.6335 18.0226 14.0755 18.9228 14.2546C19.823 14.4336 20.7561 14.3417 21.604 13.9905C22.452 13.6393 23.1767 13.0445 23.6867 12.2813C24.1966 11.5182 24.4688 10.621 24.4688 9.70312C24.4673 8.4728 23.9779 7.29328 23.1079 6.42331C22.238 5.55334 21.0585 5.06395 19.8281 5.0625ZM18.7287 6.06909C18.2597 6.6568 17.8842 7.31337 17.6154 8.01562H16.4278C16.6591 7.55193 16.9823 7.14021 17.3779 6.80555C17.7735 6.47089 18.2331 6.22031 18.7287 6.06909ZM16.0313 9.70312C16.0323 9.41908 16.0652 9.13604 16.1295 8.85937H17.3813C17.2704 9.41642 17.2704 9.98983 17.3813 10.5469H16.1295C16.0652 10.2702 16.0323 9.98717 16.0313 9.70312ZM16.4278 11.3906H17.6154C17.8842 12.0929 18.2597 12.7494 18.7287 13.3372C18.2331 13.1859 17.7735 12.9354 17.3779 12.6007C16.9823 12.266 16.6591 11.8543 16.4278 11.3906ZM19.4063 12.8322C19.0533 12.3903 18.7569 11.906 18.5241 11.3906H19.4063V12.8322ZM19.4063 10.5469H18.241C18.1068 9.99238 18.1068 9.41387 18.241 8.85937H19.4063V10.5469ZM19.4063 8.01562H18.5254C18.7582 7.50142 19.0541 7.01818 19.4063 6.57703V8.01562ZM20.25 6.57408C20.603 7.01594 20.8993 7.50022 21.1321 8.01562H20.25V6.57408ZM20.25 8.85937H21.4152C21.5495 9.41387 21.5495 9.99238 21.4152 10.5469H20.25V8.85937ZM20.25 11.3906H21.1309C20.898 11.9048 20.6021 12.3881 20.25 12.8292V11.3906ZM20.9275 13.3372C21.3966 12.7494 21.7721 12.0929 22.0409 11.3906H23.2284C22.9972 11.8543 22.6739 12.266 22.2783 12.6007C21.8827 12.9354 21.4231 13.1859 20.9275 13.3372ZM23.625 9.70312C23.624 9.98717 23.591 10.2702 23.5267 10.5469H22.275C22.3858 9.98983 22.3858 9.41642 22.275 8.85937H23.5254C23.5902 9.136 23.6236 9.41903 23.625 9.70312ZM22.0409 8.01562C21.7721 7.31337 21.3966 6.6568 20.9275 6.06909C21.4231 6.22031 21.8827 6.47089 22.2783 6.80555C22.6739 7.14021 22.9972 7.55193 23.2284 8.01562H22.0409Z" fill="#F4F4E6"/>
</svg>
