<svg width="26" height="26" viewBox="0 0 26 26" fill="none" xmlns="http://www.w3.org/2000/svg">
<g clip-path="url(#clip0)">
<path d="M11.5011 1.57544H1.64501C0.73648 1.57544 0 2.31197 0 3.22045V11.4003C0 12.3017 0.725055 13.0334 1.62368 13.0448V13.0453L2.08203 13.3047H4.69727L5.31086 13.0454H11.501C12.4095 13.0454 13.146 12.3089 13.146 11.4003V3.22045C13.146 2.31202 12.4096 1.57554 11.5011 1.57544Z" fill="#6B61B1"/>
<path d="M14.6535 1.57544H11.355C12.2635 1.57544 13 2.31192 13 3.22045V11.4003C13 12.3089 12.2635 13.0453 11.355 13.0453H14.6535C15.562 13.0453 16.2985 12.3089 16.2985 11.4003V3.22045C16.2985 2.31197 15.562 1.57544 14.6535 1.57544Z" fill="#5E54AC"/>
<path d="M1.62378 16.8666C1.62378 17.1063 1.92628 17.2113 2.07487 17.0232L5.01932 13.2956C5.14414 13.1376 5.33447 13.0453 5.53587 13.0453H1.62378V16.8666Z" fill="#5E54AC"/>
<path d="M20.2343 20.0315L20.8252 20.7796C20.9266 20.7759 21.0088 20.6988 21.0222 20.5982C21.0815 20.1487 21.368 19.762 21.7873 19.5648C22.429 19.2629 22.8733 18.6106 22.8733 17.8544V8.45793C22.8733 7.41432 22.0273 6.56825 20.9837 6.56825H9.16702C8.12336 6.56825 7.27734 7.41427 7.27734 8.45793V17.8544C7.27734 18.898 8.12336 19.7441 9.16702 19.7441H19.6408C19.8723 19.7441 20.0909 19.85 20.2343 20.0315Z" fill="#E49542"/>
<path d="M24.1104 6.56825H20.8008C21.8444 6.56825 22.6905 7.41427 22.6905 8.45793V17.8544C22.6905 18.6106 22.2462 19.2629 21.6044 19.5648C21.1316 19.7871 20.8253 20.2572 20.8253 20.7796L23.6168 24.3136C23.7874 24.5296 24.1349 24.4089 24.1349 24.1336V19.7434C25.1672 19.7302 26.0001 18.8898 26.0001 17.8543V8.45793C26.0001 7.41427 25.1541 6.56825 24.1104 6.56825Z" fill="#E27D47"/>
<path d="M22.864 10.392H10.4133C10.1966 10.392 10.021 10.2163 10.021 9.99964C10.021 9.78296 10.1966 9.60731 10.4133 9.60731H22.864C23.0807 9.60731 23.2564 9.78296 23.2564 9.99964C23.2564 10.2163 23.0807 10.392 22.864 10.392Z" fill="#F0F7FF"/>
<path d="M22.864 13.3913H10.4133C10.1966 13.3913 10.021 13.2157 10.021 12.999C10.021 12.7823 10.1966 12.6067 10.4133 12.6067H22.864C23.0807 12.6067 23.2564 12.7823 23.2564 12.999C23.2564 13.2156 23.0807 13.3913 22.864 13.3913Z" fill="#F0F7FF"/>
<path d="M22.864 16.3906H10.4133C10.1966 16.3906 10.021 16.215 10.021 15.9983C10.021 15.7816 10.1966 15.6059 10.4133 15.6059H22.864C23.0807 15.6059 23.2564 15.7816 23.2564 15.9983C23.2564 16.215 23.0807 16.3906 22.864 16.3906Z" fill="#F0F7FF"/>
</g>
<defs>
<clipPath id="clip0">
<rect width="26" height="26" fill="white"/>
</clipPath>
</defs>
</svg>
