<svg width="45" height="45" viewBox="0 0 45 45" fill="none" xmlns="http://www.w3.org/2000/svg">
<rect width="45" height="45" rx="5" fill="#353535"/>
<path d="M35.9938 34V33.999H36.0001V24.8302C36.0001 20.3448 35.0344 16.8896 29.7907 16.8896C27.2699 16.8896 25.5782 18.2729 24.8876 19.5844H24.8146V17.3083H19.8428V33.999H25.0199V25.7344C25.0199 23.5583 25.4324 21.4542 28.1271 21.4542C30.7824 21.4542 30.8219 23.9375 30.8219 25.8739V34H35.9938Z" fill="white"/>
<path d="M11.4126 17.3094H16.5959V34H11.4126V17.3094Z" fill="white"/>
<path d="M14.0021 9C12.3448 9 11 10.3448 11 12.0021C11 13.6594 12.3448 15.0323 14.0021 15.0323C15.6594 15.0323 17.0042 13.6594 17.0042 12.0021C17.0031 10.3448 15.6583 9 14.0021 9V9Z" fill="white"/>
</svg>
