<svg width="45" height="45" viewBox="0 0 45 45" fill="none" xmlns="http://www.w3.org/2000/svg">
<rect width="45" height="45" rx="5" fill="url(#paint0_linear)"/>
<path d="M24.9336 23C24.9336 24.0678 24.0678 24.9336 23 24.9336C21.9322 24.9336 21.0664 24.0678 21.0664 23C21.0664 21.9322 21.9322 21.0664 23 21.0664C24.0678 21.0664 24.9336 21.9322 24.9336 23Z" fill="white"/>
<path d="M26.2656 17.1562H19.7344C18.3127 17.1562 17.1562 18.3127 17.1562 19.7344V26.2656C17.1562 27.6873 18.3127 28.8438 19.7344 28.8438H26.2656C27.6873 28.8438 28.8438 27.6873 28.8438 26.2656V19.7344C28.8438 18.3127 27.6873 17.1562 26.2656 17.1562ZM23 26.2227C21.223 26.2227 19.7773 24.777 19.7773 23C19.7773 21.223 21.223 19.7773 23 19.7773C24.777 19.7773 26.2227 21.223 26.2227 23C26.2227 24.777 24.777 26.2227 23 26.2227ZM26.6953 19.9492C26.3393 19.9492 26.0508 19.6607 26.0508 19.3047C26.0508 18.9487 26.3393 18.6602 26.6953 18.6602C27.0513 18.6602 27.3398 18.9487 27.3398 19.3047C27.3398 19.6607 27.0513 19.9492 26.6953 19.9492Z" fill="white"/>
<path d="M28.1992 12H17.8008C14.6023 12 12 14.6023 12 17.8008V28.1992C12 31.3977 14.6023 34 17.8008 34H28.1992C31.3977 34 34 31.3977 34 28.1992V17.8008C34 14.6023 31.3977 12 28.1992 12ZM30.1328 26.2656C30.1328 28.3979 28.3979 30.1328 26.2656 30.1328H19.7344C17.6021 30.1328 15.8672 28.3979 15.8672 26.2656V19.7344C15.8672 17.6021 17.6021 15.8672 19.7344 15.8672H26.2656C28.3979 15.8672 30.1328 17.6021 30.1328 19.7344V26.2656Z" fill="white"/>
<defs>
<linearGradient id="paint0_linear" x1="45" y1="7.45059e-08" x2="9.47879e-07" y2="47.5" gradientUnits="userSpaceOnUse">
<stop stop-color="#CC39A2"/>
<stop offset="0.453125" stop-color="#FF593F"/>
<stop offset="1" stop-color="#FFD153"/>
</linearGradient>
</defs>
</svg>
