<svg width="93" height="83" viewBox="0 0 93 83" fill="none" xmlns="http://www.w3.org/2000/svg">
<circle cx="41.5" cy="41.5" r="41.5" fill="white"/>
<path d="M44.1592 35.3896C43.7197 36.2881 43.2559 37.0986 42.7676 37.8213C42.2891 38.5439 41.7812 39.1641 41.2441 39.6816C40.7168 40.1992 40.165 40.5996 39.5889 40.8828C39.0127 41.1562 38.417 41.293 37.8018 41.293C37.5186 41.293 37.2305 41.2051 36.9375 41.0293C36.6543 40.8633 36.3955 40.624 36.1611 40.3115C35.9365 39.9893 35.7559 39.6084 35.6191 39.1689C35.4727 38.7197 35.3994 38.2217 35.3994 37.6748C35.3994 37.1768 35.4678 36.5908 35.6045 35.917C35.7412 35.2334 35.9121 34.5205 36.1172 33.7783C36.332 33.0264 36.5615 32.2744 36.8057 31.5225C37.0596 30.7705 37.2988 30.0771 37.5234 29.4424C37.7578 28.8076 37.9629 28.2656 38.1387 27.8164C38.3145 27.3574 38.4316 27.0498 38.4902 26.8936C38.7246 26.2881 39.0322 25.7119 39.4131 25.165C39.7939 24.6182 40.2139 24.1104 40.6729 23.6416C41.1318 23.1631 41.6104 22.7334 42.1084 22.3525C42.6162 21.9717 43.1143 21.6494 43.6025 21.3857C44.0908 21.1123 44.5547 20.9023 44.9941 20.7559C45.4434 20.6094 45.834 20.5361 46.166 20.5361C46.4297 20.5361 46.6445 20.6045 46.8105 20.7412C46.9863 20.8779 47.123 21.0586 47.2207 21.2832C47.3184 21.5078 47.3867 21.7666 47.4258 22.0596C47.4648 22.3525 47.4844 22.6553 47.4844 22.9678C47.4844 23.4072 47.3574 23.832 47.1035 24.2422C46.8496 24.6426 46.5518 25.0039 46.21 25.3262C45.8779 25.6387 45.5459 25.9023 45.2139 26.1172C44.8818 26.3223 44.6426 26.4541 44.4961 26.5127L44.3936 26.2637C44.54 26.0781 44.667 25.8682 44.7744 25.6338C44.8916 25.3994 44.9893 25.1553 45.0674 24.9014C45.1553 24.6475 45.2188 24.3887 45.2578 24.125C45.3066 23.8613 45.3311 23.6074 45.3311 23.3633C45.3408 23.1973 45.3311 23.0361 45.3018 22.8799C45.2822 22.7236 45.248 22.582 45.1992 22.4551C45.1504 22.3281 45.082 22.2305 44.9941 22.1621C44.916 22.084 44.8184 22.0449 44.7012 22.0449C44.3398 22.0449 43.9639 22.2451 43.5732 22.6455C43.1924 23.0361 42.8115 23.5635 42.4307 24.2275C42.0596 24.8916 41.6934 25.6533 41.332 26.5127C40.9707 27.3721 40.6289 28.2656 40.3066 29.1934C39.9844 30.1211 39.6865 31.0488 39.4131 31.9766C39.1396 32.9043 38.9004 33.7686 38.6953 34.5693C38.5 35.3701 38.3438 36.0732 38.2266 36.6787C38.1094 37.2842 38.0459 37.7236 38.0361 37.9971C38.0361 38.1631 38.0605 38.3389 38.1094 38.5244C38.1582 38.71 38.2266 38.8857 38.3145 39.0518C38.4023 39.208 38.5049 39.3398 38.6221 39.4473C38.749 39.5449 38.8857 39.5938 39.0322 39.5938C39.335 39.5938 39.667 39.501 40.0283 39.3154C40.3896 39.1299 40.7656 38.8516 41.1562 38.4805C41.5566 38.1094 41.9619 37.6406 42.3721 37.0742C42.7822 36.5078 43.1875 35.8486 43.5879 35.0967L44.1592 35.3896ZM46.0781 41C45.9707 41.0195 45.8535 41.0342 45.7266 41.0439C45.502 41.0732 45.209 41.0879 44.8477 41.0879C44.6816 41.0879 44.5059 41.0781 44.3203 41.0586C44.1348 41.0488 43.9492 41.0293 43.7637 41L43.6758 40.8535C43.7246 40.7559 43.8125 40.5557 43.9395 40.2529C44.0566 39.9502 44.1982 39.584 44.3643 39.1543C44.5205 38.7246 44.6914 38.2461 44.877 37.7188C45.0625 37.1914 45.2529 36.6543 45.4482 36.1074C45.6338 35.5605 45.8145 35.0234 45.9902 34.4961C46.1562 33.9688 46.3076 33.4854 46.4443 33.0459C46.5811 32.6064 46.6885 32.2354 46.7666 31.9326C46.8447 31.6201 46.8838 31.4102 46.8838 31.3027C46.8838 31.1953 46.874 31.1123 46.8545 31.0537C46.835 30.9951 46.8154 30.9414 46.7959 30.8926C46.7666 30.8535 46.7373 30.8145 46.708 30.7754V30.5557C46.9326 30.4189 47.1914 30.2969 47.4844 30.1895C47.7871 30.082 48.0801 29.9941 48.3633 29.9258C48.6855 29.8477 49.0225 29.7793 49.374 29.7207L49.4473 29.8086C49.4473 29.8965 49.4229 30.0332 49.374 30.2188C49.335 30.4043 49.2812 30.6143 49.2129 30.8486C49.1445 31.0732 49.0713 31.3076 48.9932 31.5518C48.915 31.7959 48.8369 32.0254 48.7588 32.2402C48.6904 32.4551 48.627 32.6406 48.5684 32.7969C48.5195 32.9531 48.4902 33.0557 48.4805 33.1045C48.2656 33.6807 48.0557 34.2861 47.8506 34.9209C47.6455 35.5557 47.4453 36.1904 47.25 36.8252C47.4746 36.2686 47.709 35.707 47.9531 35.1406C48.207 34.5645 48.4609 34.0127 48.7148 33.4854C48.9688 32.9482 49.2275 32.4453 49.4912 31.9766C49.7646 31.498 50.0283 31.0879 50.2822 30.7461C50.5361 30.3945 50.7852 30.1162 51.0293 29.9111C51.2832 29.7061 51.5225 29.6035 51.7471 29.6035C51.8154 29.6035 51.918 29.6328 52.0547 29.6914C52.1914 29.7402 52.333 29.8135 52.4795 29.9111C52.626 30.0088 52.7676 30.1309 52.9043 30.2773C53.0508 30.4141 53.168 30.5703 53.2559 30.7461C53.2949 30.8047 53.2607 30.9707 53.1533 31.2441C53.0459 31.5078 52.8701 31.8252 52.626 32.1963C52.3818 32.5576 52.0742 32.9434 51.7031 33.3535C51.332 33.7539 50.8975 34.125 50.3994 34.4668L50.0332 34.2764C50.1895 33.9541 50.3115 33.6807 50.3994 33.4561C50.4971 33.2217 50.5703 33.0215 50.6191 32.8555C50.668 32.6797 50.6973 32.5283 50.707 32.4014C50.7266 32.2744 50.7363 32.1523 50.7363 32.0352C50.7363 31.8887 50.6924 31.8154 50.6045 31.8154C50.4678 31.8154 50.292 31.9521 50.0771 32.2256C49.8721 32.4893 49.6426 32.8506 49.3887 33.3096C49.1445 33.7686 48.8809 34.3057 48.5977 34.9209C48.3242 35.5264 48.041 36.1709 47.748 36.8545C47.4648 37.5283 47.1768 38.2217 46.8838 38.9346C46.6006 39.6475 46.332 40.3359 46.0781 41ZM61.1807 37.1328C60.751 37.6504 60.2871 38.1533 59.7891 38.6416C59.3008 39.1201 58.8174 39.5449 58.3389 39.916C57.8701 40.2871 57.4307 40.585 57.0205 40.8096C56.6104 41.0342 56.2686 41.1465 55.9951 41.1465C55.9365 41.1465 55.8633 41.1172 55.7754 41.0586C55.6875 41.0098 55.6289 40.9609 55.5996 40.9121C55.4922 40.7168 55.4141 40.4727 55.3652 40.1797C55.3262 39.877 55.3066 39.5986 55.3066 39.3447C55.3066 39.2666 55.3164 39.1592 55.3359 39.0225C55.3652 38.876 55.3945 38.7246 55.4238 38.5684C55.1016 38.9102 54.7646 39.2422 54.4131 39.5645C54.0713 39.877 53.7393 40.1553 53.417 40.3994C53.1045 40.6436 52.8262 40.8389 52.582 40.9854C52.3281 41.1318 52.1426 41.2051 52.0254 41.2051C51.9473 41.2051 51.8838 41.1758 51.835 41.1172C51.7764 41.0586 51.7275 40.9805 51.6885 40.8828C51.6396 40.7852 51.6055 40.6826 51.5859 40.5752C51.5566 40.4678 51.5371 40.3604 51.5273 40.2529C51.498 39.9111 51.5127 39.54 51.5713 39.1396C51.6201 38.7295 51.6934 38.3145 51.791 37.8945C51.8887 37.4746 52.001 37.0645 52.1279 36.6641C52.2451 36.2539 52.3623 35.8828 52.4795 35.5508C52.5967 35.209 52.6992 34.9209 52.7871 34.6865C52.875 34.4521 52.9336 34.2959 52.9629 34.2178C53.002 34.1006 53.0654 33.9639 53.1533 33.8076C53.251 33.6416 53.3584 33.4805 53.4756 33.3242C53.5928 33.1582 53.71 33.002 53.8271 32.8555C53.9541 32.6992 54.0762 32.5625 54.1934 32.4453C54.4082 32.2402 54.6865 32.0205 55.0283 31.7861C55.3701 31.5518 55.7412 31.3223 56.1416 31.0977C56.5518 30.873 56.9717 30.6533 57.4014 30.4385C57.8311 30.2236 58.2363 30.0381 58.6172 29.8818C59.0078 29.7256 59.3545 29.5986 59.6572 29.501C59.96 29.4033 60.1895 29.3545 60.3457 29.3545C60.4824 29.3545 60.5996 29.3594 60.6973 29.3691C60.8047 29.3789 60.8877 29.3936 60.9463 29.4131L60.9756 29.4863C60.8682 29.623 60.7363 29.8574 60.5801 30.1895C60.4238 30.5215 60.2529 30.9072 60.0674 31.3467C59.8818 31.7861 59.6914 32.2695 59.4961 32.7969C59.3008 33.3242 59.1055 33.8564 58.9102 34.3936C58.7246 34.9307 58.5488 35.458 58.3828 35.9756C58.2168 36.4834 58.0654 36.9473 57.9287 37.3672C57.8018 37.7871 57.6992 38.1436 57.6211 38.4365C57.5527 38.7197 57.5186 38.9053 57.5186 38.9932C57.5186 39.1689 57.5918 39.2568 57.7383 39.2568C57.8359 39.2471 57.9922 39.1934 58.207 39.0957C58.4219 38.9883 58.6709 38.832 58.9541 38.627C59.2373 38.4219 59.54 38.1729 59.8623 37.8799C60.1943 37.5771 60.5264 37.2256 60.8584 36.8252L61.1807 37.1328ZM53.9883 39.0811C54.0664 39.0811 54.1689 39.0371 54.2959 38.9492C54.4229 38.8613 54.5596 38.749 54.7061 38.6123C54.8525 38.4756 55.0088 38.3193 55.1748 38.1436C55.3408 37.958 55.502 37.7725 55.6582 37.5869C55.7559 37.2451 55.8633 36.8691 55.9805 36.459C56.1074 36.0488 56.2393 35.6289 56.376 35.1992C56.5127 34.7695 56.6543 34.3398 56.8008 33.9102C56.9473 33.4805 57.0889 33.0752 57.2256 32.6943C57.3721 32.3037 57.5088 31.9521 57.6357 31.6396C57.7627 31.3174 57.875 31.0488 57.9727 30.834C57.8164 30.8828 57.6113 30.9561 57.3574 31.0537C57.1035 31.1416 56.8203 31.3076 56.5078 31.5518C56.2441 31.7568 55.9951 32.0645 55.7607 32.4746C55.5264 32.8848 55.3115 33.3486 55.1162 33.8662C54.9209 34.374 54.7402 34.9014 54.5742 35.4482C54.418 35.9951 54.2812 36.5029 54.1641 36.9717C54.0566 37.4404 53.9736 37.8408 53.915 38.1729C53.8564 38.5049 53.8271 38.7051 53.8271 38.7734C53.8271 38.8516 53.832 38.9248 53.8418 38.9932C53.8613 39.0518 53.9102 39.0811 53.9883 39.0811ZM62.1475 43.6953C62.2061 43.4805 62.2891 43.2021 62.3965 42.8604C62.5137 42.5283 62.6357 42.167 62.7627 41.7764C62.8896 41.3857 63.0215 40.9805 63.1582 40.5605C63.2949 40.1406 63.417 39.7402 63.5244 39.3594C63.6318 38.9785 63.7197 38.6318 63.7881 38.3193C63.8564 37.9971 63.8906 37.7383 63.8906 37.543C63.8906 37.377 63.8516 37.2207 63.7734 37.0742C63.7051 36.9277 63.6172 36.8008 63.5098 36.6934C63.4121 36.5762 63.3096 36.4883 63.2021 36.4297C63.0947 36.3613 63.0117 36.3271 62.9531 36.3271C62.7578 36.3271 62.5723 36.3418 62.3965 36.3711C62.2207 36.4004 62.0791 36.4443 61.9717 36.5029L61.8105 36.1953C62.0059 36.0195 62.2256 35.7754 62.4697 35.4629C62.7236 35.1406 62.9824 34.7891 63.2461 34.4082C63.5195 34.0176 63.793 33.6172 64.0664 33.207C64.3398 32.7871 64.5986 32.3867 64.8428 32.0059C65.0967 31.6152 65.3213 31.2637 65.5166 30.9512C65.7217 30.6289 65.8877 30.3799 66.0146 30.2041C65.6045 30.2041 65.1992 30.2236 64.7988 30.2627C64.4082 30.292 64.0566 30.375 63.7441 30.5117C63.4414 30.6387 63.1924 30.8291 62.9971 31.083C62.8115 31.3369 62.7188 31.6836 62.7188 32.123C62.7188 32.2305 62.7236 32.3672 62.7334 32.5332C62.7529 32.6895 62.7871 32.8506 62.8359 33.0166L62.6016 33.1631C62.1719 32.8701 61.8301 32.5527 61.5762 32.2109C61.332 31.8691 61.21 31.5566 61.21 31.2734C61.21 31.1074 61.2686 30.9268 61.3857 30.7314C61.4932 30.5361 61.6299 30.3555 61.7959 30.1895C61.9619 30.0137 62.1377 29.8672 62.3232 29.75C62.5186 29.6328 62.6895 29.5742 62.8359 29.5742C63.0898 29.5742 63.3242 29.584 63.5391 29.6035C63.7539 29.6133 63.9785 29.6279 64.2129 29.6475C64.457 29.667 64.7207 29.6865 65.0039 29.7061C65.2969 29.7158 65.6436 29.7207 66.0439 29.7207C66.2197 29.7207 66.4199 29.7207 66.6445 29.7207C66.8789 29.7207 67.1035 29.7158 67.3184 29.7061C67.543 29.6963 67.748 29.6865 67.9336 29.6768C68.1191 29.6572 68.2607 29.6328 68.3584 29.6035L68.5635 29.8965C68.4365 30.0625 68.2705 30.2871 68.0654 30.5703C67.8604 30.8438 67.6357 31.1562 67.3916 31.5078C67.1475 31.8594 66.8887 32.2305 66.6152 32.6211C66.3516 33.0117 66.0879 33.3975 65.8242 33.7783C65.5703 34.1494 65.3311 34.5059 65.1064 34.8477C64.8818 35.1895 64.6865 35.4824 64.5205 35.7266C64.7061 35.7754 64.8916 35.8633 65.0771 35.9902C65.2725 36.1074 65.4482 36.2539 65.6045 36.4297C65.7607 36.6055 65.8877 36.8057 65.9854 37.0303C66.083 37.2549 66.1318 37.499 66.1318 37.7627C66.1318 37.8506 66.1025 38.0068 66.0439 38.2314C65.9951 38.4463 65.9219 38.7051 65.8242 39.0078C65.7363 39.3105 65.6338 39.6426 65.5166 40.0039C65.4092 40.3555 65.2969 40.7119 65.1797 41.0732C65.0625 41.4443 64.9453 41.7959 64.8281 42.1279C64.7207 42.4697 64.6279 42.7725 64.5498 43.0361C64.4521 43.3877 64.2715 43.71 64.0078 44.0029C63.7441 44.3057 63.4414 44.584 63.0996 44.8379C62.7578 45.0918 62.3965 45.3164 62.0156 45.5117C61.6445 45.707 61.2979 45.873 60.9756 46.0098C60.6436 46.1465 60.3604 46.249 60.126 46.3174C59.8916 46.3955 59.7451 46.4346 59.6865 46.4346C59.54 46.4346 59.3594 46.3857 59.1445 46.2881C58.9199 46.1904 58.7002 46.0391 58.4854 45.834C58.2607 45.6387 58.0557 45.3896 57.8701 45.0869C57.6846 44.7842 57.5479 44.4326 57.46 44.0322L59.2324 42.5527C59.4277 43.0215 59.6328 43.4365 59.8477 43.7979C59.9355 43.9541 60.0332 44.1055 60.1406 44.252C60.248 44.4082 60.3604 44.5449 60.4775 44.6621C60.5947 44.7793 60.7168 44.8721 60.8438 44.9404C60.9609 45.0088 61.083 45.043 61.21 45.043C61.4053 45.043 61.5811 44.9062 61.7373 44.6328C61.9033 44.3691 62.04 44.0566 62.1475 43.6953ZM72.5625 44.0908C72.4746 44.4326 72.2988 44.7549 72.0352 45.0576C71.7715 45.3604 71.4688 45.6338 71.127 45.8779C70.7852 46.1318 70.4238 46.3564 70.043 46.5518C69.6621 46.7568 69.3057 46.9229 68.9736 47.0498C68.6416 47.1865 68.3584 47.2891 68.124 47.3574C67.8799 47.4355 67.7285 47.4746 67.6699 47.4746C67.582 47.4746 67.4648 47.4648 67.3184 47.4453C67.1621 47.4258 67.04 47.3867 66.9521 47.3281C66.8447 47.2695 66.7178 47.1572 66.5713 46.9912C66.4248 46.835 66.2783 46.6494 66.1318 46.4346C65.9854 46.2197 65.8535 45.9902 65.7363 45.7461C65.6094 45.5117 65.5264 45.292 65.4873 45.0869L67.2598 43.6074C67.4453 44.0762 67.6455 44.4912 67.8604 44.8525C67.9482 45.0088 68.0459 45.1602 68.1533 45.3066C68.2607 45.4629 68.373 45.5996 68.4902 45.7168C68.6074 45.834 68.7295 45.9268 68.8564 45.9951C68.9834 46.0635 69.1104 46.0977 69.2373 46.0977C69.335 46.0977 69.4229 46.0586 69.501 45.9805C69.5889 45.9023 69.667 45.7998 69.7354 45.6729C69.8135 45.5557 69.8867 45.4141 69.9551 45.248C70.0234 45.0918 70.0918 44.9258 70.1602 44.75C70.375 44.1738 70.5752 43.5928 70.7607 43.0068C70.9463 42.4307 71.1221 41.8447 71.2881 41.249C71.4639 40.6533 71.6348 40.0479 71.8008 39.4326C71.9766 38.8174 72.1523 38.1875 72.3281 37.543C72.0156 37.9531 71.6836 38.3779 71.332 38.8174C70.9902 39.2471 70.6533 39.6426 70.3213 40.0039C69.999 40.3555 69.6963 40.6484 69.4131 40.8828C69.1299 41.1172 68.9004 41.2344 68.7246 41.2344C68.6562 41.2344 68.5342 41.2051 68.3584 41.1465C68.1826 41.0879 68.0068 40.9951 67.8311 40.8682C67.6455 40.7314 67.4795 40.5605 67.333 40.3555C67.1865 40.1504 67.1084 39.9062 67.0986 39.623C67.0986 39.5254 67.1621 39.2861 67.2891 38.9053C67.4062 38.5244 67.5625 38.0654 67.7578 37.5283C67.9434 36.9814 68.1436 36.3955 68.3584 35.7705C68.5732 35.1357 68.7734 34.5205 68.959 33.9248C69.1543 33.3193 69.3105 32.7627 69.4277 32.2549C69.5547 31.7471 69.6182 31.3516 69.6182 31.0684C69.6182 30.9902 69.6084 30.9219 69.5889 30.8633C69.5693 30.8047 69.5498 30.7559 69.5303 30.7168C69.501 30.6777 69.4717 30.6436 69.4424 30.6143V30.4092C69.6572 30.2725 69.916 30.1602 70.2188 30.0723C70.5215 29.9746 70.8145 29.9014 71.0977 29.8525C71.4199 29.7939 71.7568 29.75 72.1084 29.7207L72.167 29.8086C72.0986 30.3262 71.9814 30.9023 71.8154 31.5371C71.6494 32.1621 71.4639 32.8066 71.2588 33.4707C71.0537 34.125 70.8389 34.7744 70.6143 35.4189C70.3994 36.0635 70.1992 36.6592 70.0137 37.2061C69.8281 37.7529 69.6768 38.2363 69.5596 38.6562C69.4424 39.0664 69.3838 39.3691 69.3838 39.5645C69.3838 39.7012 69.4229 39.7695 69.501 39.7695C69.5791 39.7695 69.7012 39.7012 69.8672 39.5645C70.0332 39.418 70.2236 39.2324 70.4385 39.0078C70.6533 38.7832 70.8779 38.5342 71.1123 38.2607C71.3564 37.9873 71.5859 37.7236 71.8008 37.4697C72.0254 37.2061 72.2256 36.9668 72.4014 36.752C72.5771 36.5273 72.709 36.3613 72.7969 36.2539C72.9336 35.8242 73.0801 35.3604 73.2363 34.8623C73.3926 34.3545 73.5391 33.8662 73.6758 33.3975C73.8223 32.9287 73.9443 32.4941 74.042 32.0938C74.1494 31.6934 74.2178 31.3809 74.2471 31.1562C74.2666 31.0488 74.2666 30.9658 74.2471 30.9072C74.2275 30.8389 74.2031 30.7803 74.1738 30.7314C74.1348 30.6826 74.0957 30.6436 74.0566 30.6143V30.4092C74.2812 30.2725 74.5449 30.1602 74.8477 30.0723C75.1504 29.9746 75.4434 29.9014 75.7266 29.8525C76.0488 29.7939 76.3857 29.75 76.7373 29.7207L76.7959 29.8086C76.7275 30.0332 76.6152 30.3896 76.459 30.8779C76.3027 31.3564 76.1221 31.9082 75.917 32.5332C75.7217 33.1484 75.5117 33.8027 75.2871 34.4961C75.0723 35.1797 74.8623 35.8389 74.6572 36.4736C74.4619 37.0986 74.2861 37.6699 74.1299 38.1875C73.9834 38.6953 73.8809 39.0811 73.8223 39.3447L72.5625 44.0908Z" fill="black"/>
<path d="M13.7695 54.2637C13.9746 54.166 14.2578 54.0293 14.6191 53.8535C14.9707 53.668 15.3516 53.3896 15.7617 53.0186C16.1719 52.6475 16.5869 52.1543 17.0068 51.5391C17.4268 50.9141 17.8076 50.1133 18.1494 49.1367C18.2373 48.873 18.3691 48.4971 18.5449 48.0088C18.7207 47.5107 18.9209 46.9395 19.1455 46.2949C19.3701 45.6504 19.6094 44.957 19.8633 44.2148C20.127 43.4629 20.3857 42.7061 20.6396 41.9443L17.5488 41.9736L17.7832 41.2559L20.874 41.1973C21.1182 40.4844 21.3477 39.7959 21.5625 39.1318C21.7871 38.458 21.9824 37.8477 22.1484 37.3008C22.3145 36.7539 22.4512 36.2852 22.5586 35.8945C22.6758 35.4941 22.7441 35.2109 22.7637 35.0449C22.7637 34.9668 22.7344 34.8691 22.6758 34.752C22.627 34.6348 22.5781 34.5615 22.5293 34.5322C22.0508 34.5615 21.6016 34.6055 21.1816 34.6641C20.7715 34.7227 20.3711 34.8203 19.9805 34.957C19.8535 35.0059 19.7168 35.0889 19.5703 35.2061C19.4238 35.3135 19.2871 35.4502 19.1602 35.6162C19.0332 35.7822 18.9258 35.9678 18.8379 36.1729C18.7598 36.3682 18.7207 36.5684 18.7207 36.7734C18.7207 36.9004 18.7305 37.0615 18.75 37.2568C18.7695 37.4424 18.8086 37.6328 18.8672 37.8281L18.6914 38.0039C18.1934 37.6426 17.7979 37.2666 17.5049 36.876C17.2119 36.4756 17.0654 36.1045 17.0654 35.7627C17.0654 35.5674 17.1289 35.3525 17.2559 35.1182C17.3926 34.8838 17.5586 34.6689 17.7539 34.4736C17.9492 34.2686 18.1592 34.0977 18.3838 33.9609C18.6084 33.8242 18.8086 33.7559 18.9844 33.7559C19.5801 33.7559 20.1904 33.7803 20.8154 33.8291C21.4502 33.8779 22.1729 33.9023 22.9834 33.9023C23.1592 33.9023 23.3594 33.9023 23.584 33.9023C23.8184 33.8926 24.0527 33.8828 24.2871 33.873C24.5312 33.8535 24.7656 33.8389 24.9902 33.8291C25.2148 33.8193 25.415 33.8047 25.5908 33.7852L25.6787 34.1953C25.5811 34.4492 25.4492 34.8105 25.2832 35.2793C25.127 35.7383 24.9463 36.2754 24.7412 36.8906C24.5361 37.4961 24.3115 38.1602 24.0674 38.8828C23.833 39.6055 23.5889 40.3525 23.335 41.124L25.0488 41.0947L24.7852 41.8857L23.1006 41.915L20.5811 49.5615C20.3369 50.2744 20.0195 50.8945 19.6289 51.4219C19.248 51.9395 18.8281 52.3838 18.3691 52.7549C17.9199 53.1162 17.4561 53.4141 16.9775 53.6484C16.499 53.8828 16.0498 54.0684 15.6299 54.2051C15.2197 54.3516 14.8584 54.4541 14.5459 54.5127C14.2334 54.5811 14.0137 54.6299 13.8867 54.6592L13.7695 54.2637ZM27.1729 51.1729C27.1729 51.1631 27.1777 51.1436 27.1875 51.1143C27.1973 51.0947 27.2119 51.0459 27.2314 50.9678C26.9287 51.3584 26.6211 51.749 26.3086 52.1396C25.9961 52.5303 25.6934 52.8818 25.4004 53.1943C25.1074 53.4971 24.834 53.7461 24.5801 53.9414C24.3359 54.1367 24.1309 54.2344 23.9648 54.2344C23.8965 54.2344 23.7744 54.2051 23.5986 54.1465C23.4229 54.0879 23.2471 53.9951 23.0713 53.8682C22.8857 53.7314 22.7197 53.5605 22.5732 53.3555C22.4268 53.1504 22.3486 52.9062 22.3389 52.623C22.3389 52.5254 22.4023 52.2861 22.5293 51.9053C22.6465 51.5244 22.8027 51.0654 22.998 50.5283C23.1836 49.9814 23.3838 49.3955 23.5986 48.7705C23.8135 48.1357 24.0137 47.5205 24.1992 46.9248C24.3945 46.3193 24.5508 45.7627 24.668 45.2549C24.7949 44.7471 24.8584 44.3516 24.8584 44.0684C24.8584 43.9902 24.8486 43.9219 24.8291 43.8633C24.8096 43.8047 24.79 43.7559 24.7705 43.7168C24.7412 43.6777 24.7119 43.6436 24.6826 43.6143V43.4092C24.8975 43.2725 25.1562 43.1602 25.459 43.0723C25.7617 42.9746 26.0547 42.9014 26.3379 42.8525C26.6602 42.7939 26.9971 42.75 27.3486 42.7207L27.4072 42.8086C27.3389 43.3262 27.2217 43.9023 27.0557 44.5371C26.8896 45.1621 26.7041 45.8066 26.499 46.4707C26.2939 47.125 26.0791 47.7744 25.8545 48.4189C25.6396 49.0635 25.4395 49.6592 25.2539 50.2061C25.0684 50.7529 24.917 51.2363 24.7998 51.6562C24.6826 52.0664 24.624 52.3691 24.624 52.5645C24.624 52.7012 24.6631 52.7695 24.7412 52.7695C24.8096 52.7695 24.9121 52.7158 25.0488 52.6084C25.1855 52.4912 25.3418 52.3447 25.5176 52.1689C25.7031 51.9834 25.8984 51.7783 26.1035 51.5537C26.3086 51.3291 26.5137 51.0996 26.7188 50.8652C26.9238 50.6211 27.1143 50.3916 27.29 50.1768C27.4756 49.9521 27.6367 49.7568 27.7734 49.5908C27.9297 49.1514 28.1006 48.6631 28.2861 48.126C28.4717 47.5889 28.6475 47.0664 28.8135 46.5586C28.9893 46.0508 29.1357 45.582 29.2529 45.1523C29.3799 44.7227 29.458 44.3906 29.4873 44.1562C29.5068 44.0488 29.5068 43.9658 29.4873 43.9072C29.4678 43.8389 29.4434 43.7803 29.4141 43.7314C29.375 43.6826 29.3359 43.6436 29.2969 43.6143V43.4092C29.5215 43.2725 29.7852 43.1602 30.0879 43.0723C30.3906 42.9746 30.6836 42.9014 30.9668 42.8525C31.2891 42.7939 31.626 42.75 31.9775 42.7207L32.0361 42.8086C31.9287 43.3262 31.7822 43.8877 31.5967 44.4932C31.4209 45.0986 31.2256 45.7188 31.0107 46.3535C30.8057 46.9785 30.5957 47.5986 30.3809 48.2139C30.1758 48.8193 29.9854 49.3857 29.8096 49.9131C29.6436 50.4404 29.5068 50.9092 29.3994 51.3193C29.292 51.7197 29.2383 52.0225 29.2383 52.2275C29.2383 52.3545 29.248 52.4424 29.2676 52.4912C29.2969 52.54 29.3604 52.5645 29.458 52.5645C29.5557 52.5547 29.7119 52.501 29.9268 52.4033C30.1514 52.2959 30.4053 52.1396 30.6885 51.9346C30.9717 51.7295 31.2744 51.4805 31.5967 51.1875C31.9287 50.8848 32.2559 50.5332 32.5781 50.1328L32.9004 50.4258C32.4902 50.9434 32.0312 51.4365 31.5234 51.9053C31.0156 52.3643 30.5078 52.7695 30 53.1211C29.502 53.4727 29.0332 53.751 28.5938 53.9561C28.1543 54.1611 27.8027 54.2637 27.5391 54.2637C27.4902 54.2637 27.4268 54.2441 27.3486 54.2051C27.2705 54.166 27.1924 54.1025 27.1143 54.0146C27.0361 53.9268 26.9678 53.8096 26.9092 53.6631C26.8506 53.5068 26.8213 53.3115 26.8213 53.0771C26.8213 52.96 26.8359 52.8086 26.8652 52.623C26.8945 52.4375 26.9287 52.252 26.9678 52.0664C27.0068 51.8711 27.0459 51.6953 27.085 51.5391C27.124 51.373 27.1533 51.251 27.1729 51.1729ZM33.3105 54C33.2031 54.0195 33.0859 54.0342 32.959 54.0439C32.7344 54.0732 32.4414 54.0879 32.0801 54.0879C31.9141 54.0879 31.7383 54.0781 31.5527 54.0586C31.3672 54.0488 31.1865 54.0293 31.0107 54L30.9082 53.8535C30.957 53.7559 31.0449 53.5557 31.1719 53.2529C31.2891 52.9502 31.4307 52.584 31.5967 52.1543C31.7529 51.7246 31.9287 51.2461 32.124 50.7188C32.3096 50.1914 32.4951 49.6543 32.6807 49.1074C32.8662 48.5605 33.0469 48.0234 33.2227 47.4961C33.3984 46.9688 33.5498 46.4854 33.6768 46.0459C33.8135 45.6064 33.9209 45.2354 33.999 44.9326C34.0869 44.6201 34.1309 44.4102 34.1309 44.3027C34.1309 44.1953 34.1162 44.1123 34.0869 44.0537C34.0674 43.9951 34.0479 43.9414 34.0283 43.8926C33.999 43.8535 33.9697 43.8145 33.9404 43.7754V43.5557C34.165 43.4189 34.4287 43.2969 34.7314 43.1895C35.0342 43.082 35.3271 42.9941 35.6104 42.9258C35.9326 42.8477 36.2695 42.7793 36.6211 42.7207L36.6797 42.8086C36.6797 42.9258 36.6553 43.1162 36.6064 43.3799C36.5576 43.6436 36.499 43.9268 36.4307 44.2295C36.3623 44.5322 36.2891 44.8301 36.2109 45.123C36.1426 45.4062 36.0889 45.6357 36.0498 45.8115C36.3525 45.4307 36.6602 45.0498 36.9727 44.6689C37.2852 44.2783 37.583 43.9316 37.8662 43.6289C38.1592 43.3262 38.4277 43.082 38.6719 42.8965C38.916 42.7012 39.1211 42.6035 39.2871 42.6035C39.3555 42.6035 39.4727 42.6377 39.6387 42.7061C39.8145 42.7646 39.9951 42.8623 40.1807 42.999C40.3662 43.126 40.5273 43.292 40.6641 43.4971C40.8105 43.6924 40.8887 43.9316 40.8984 44.2148C40.8984 44.3125 40.8301 44.5371 40.6934 44.8887C40.5566 45.2402 40.3857 45.6602 40.1807 46.1484C39.9854 46.6367 39.7705 47.1689 39.5361 47.7451C39.3018 48.3213 39.082 48.8877 38.877 49.4443C38.6816 50.001 38.5156 50.5186 38.3789 50.9971C38.2422 51.4756 38.1738 51.8662 38.1738 52.1689C38.1738 52.2861 38.1836 52.374 38.2031 52.4326C38.2324 52.4814 38.291 52.5059 38.3789 52.5059C38.4863 52.4961 38.6475 52.4424 38.8623 52.3447C39.0771 52.2373 39.3262 52.0811 39.6094 51.876C39.8926 51.6709 40.1953 51.4219 40.5176 51.1289C40.8496 50.8262 41.1768 50.4746 41.499 50.0742L41.8359 50.3672C41.4258 50.8848 40.9619 51.3779 40.4443 51.8467C39.9365 52.3057 39.4336 52.7109 38.9355 53.0625C38.4375 53.4141 37.9688 53.6924 37.5293 53.8975C37.0898 54.1025 36.7334 54.2051 36.46 54.2051C36.4111 54.2051 36.3477 54.1855 36.2695 54.1465C36.1914 54.1074 36.1133 54.0439 36.0352 53.9561C35.957 53.8682 35.8887 53.7461 35.8301 53.5898C35.7715 53.4336 35.7422 53.2383 35.7422 53.0039C35.7422 52.8867 35.7568 52.7402 35.7861 52.5645C35.8154 52.3789 35.8496 52.1934 35.8887 52.0078C35.9277 51.8125 35.9668 51.6367 36.0059 51.4805C36.0547 51.3145 36.0889 51.1924 36.1084 51.1143C36.1963 50.7725 36.3184 50.3916 36.4746 49.9717C36.6406 49.542 36.8164 49.0977 37.002 48.6387C37.1875 48.1797 37.3779 47.7256 37.5732 47.2764C37.7686 46.8174 37.9443 46.3926 38.1006 46.002C38.2568 45.6016 38.3838 45.2549 38.4814 44.9619C38.5791 44.6592 38.6279 44.4297 38.6279 44.2734C38.6279 44.1367 38.5889 44.0684 38.5107 44.0684C38.4131 44.0684 38.2422 44.1758 37.998 44.3906C37.7637 44.6055 37.5 44.874 37.207 45.1963C36.9238 45.5088 36.6357 45.8408 36.3428 46.1924C36.0498 46.5342 35.8008 46.8369 35.5957 47.1006C35.3906 47.6963 35.1758 48.3115 34.9512 48.9463C34.7266 49.5713 34.5117 50.1914 34.3066 50.8066C34.1016 51.4121 33.9111 51.9883 33.7354 52.5352C33.5693 53.082 33.4277 53.5703 33.3105 54ZM42.4219 54C42.3145 54.0195 42.1973 54.0342 42.0703 54.0439C41.8457 54.0732 41.5527 54.0879 41.1914 54.0879C41.0254 54.0879 40.8496 54.0781 40.6641 54.0586C40.4785 54.0488 40.2979 54.0293 40.1221 54L40.0195 53.8535C40.0684 53.7559 40.1562 53.5557 40.2832 53.2529C40.4004 52.9502 40.542 52.584 40.708 52.1543C40.8643 51.7246 41.04 51.2461 41.2354 50.7188C41.4209 50.1914 41.6064 49.6543 41.792 49.1074C41.9775 48.5605 42.1582 48.0234 42.334 47.4961C42.5098 46.9688 42.6611 46.4854 42.7881 46.0459C42.9248 45.6064 43.0322 45.2354 43.1104 44.9326C43.1982 44.6201 43.2422 44.4102 43.2422 44.3027C43.2422 44.1953 43.2275 44.1123 43.1982 44.0537C43.1787 43.9951 43.1592 43.9414 43.1396 43.8926C43.1104 43.8535 43.0811 43.8145 43.0518 43.7754V43.5557C43.2764 43.4189 43.54 43.2969 43.8428 43.1895C44.1455 43.082 44.4385 42.9941 44.7217 42.9258C45.0439 42.8477 45.3809 42.7793 45.7324 42.7207L45.791 42.8086C45.791 42.9258 45.7666 43.1162 45.7178 43.3799C45.6689 43.6436 45.6104 43.9268 45.542 44.2295C45.4736 44.5322 45.4004 44.8301 45.3223 45.123C45.2539 45.4062 45.2002 45.6357 45.1611 45.8115C45.4639 45.4307 45.7715 45.0498 46.084 44.6689C46.3965 44.2783 46.6943 43.9316 46.9775 43.6289C47.2705 43.3262 47.5391 43.082 47.7832 42.8965C48.0273 42.7012 48.2324 42.6035 48.3984 42.6035C48.4668 42.6035 48.584 42.6377 48.75 42.7061C48.9258 42.7646 49.1064 42.8623 49.292 42.999C49.4775 43.126 49.6387 43.292 49.7754 43.4971C49.9219 43.6924 50 43.9316 50.0098 44.2148C50.0098 44.3125 49.9414 44.5371 49.8047 44.8887C49.668 45.2402 49.4971 45.6602 49.292 46.1484C49.0967 46.6367 48.8818 47.1689 48.6475 47.7451C48.4131 48.3213 48.1934 48.8877 47.9883 49.4443C47.793 50.001 47.627 50.5186 47.4902 50.9971C47.3535 51.4756 47.2852 51.8662 47.2852 52.1689C47.2852 52.2861 47.2949 52.374 47.3145 52.4326C47.3438 52.4814 47.4023 52.5059 47.4902 52.5059C47.5977 52.4961 47.7588 52.4424 47.9736 52.3447C48.1885 52.2373 48.4375 52.0811 48.7207 51.876C49.0039 51.6709 49.3066 51.4219 49.6289 51.1289C49.9609 50.8262 50.2881 50.4746 50.6104 50.0742L50.9473 50.3672C50.5371 50.8848 50.0732 51.3779 49.5557 51.8467C49.0479 52.3057 48.5449 52.7109 48.0469 53.0625C47.5488 53.4141 47.0801 53.6924 46.6406 53.8975C46.2012 54.1025 45.8447 54.2051 45.5713 54.2051C45.5225 54.2051 45.459 54.1855 45.3809 54.1465C45.3027 54.1074 45.2246 54.0439 45.1465 53.9561C45.0684 53.8682 45 53.7461 44.9414 53.5898C44.8828 53.4336 44.8535 53.2383 44.8535 53.0039C44.8535 52.8867 44.8682 52.7402 44.8975 52.5645C44.9268 52.3789 44.9609 52.1934 45 52.0078C45.0391 51.8125 45.0781 51.6367 45.1172 51.4805C45.166 51.3145 45.2002 51.1924 45.2197 51.1143C45.3076 50.7725 45.4297 50.3916 45.5859 49.9717C45.752 49.542 45.9277 49.0977 46.1133 48.6387C46.2988 48.1797 46.4893 47.7256 46.6846 47.2764C46.8799 46.8174 47.0557 46.3926 47.2119 46.002C47.3682 45.6016 47.4951 45.2549 47.5928 44.9619C47.6904 44.6592 47.7393 44.4297 47.7393 44.2734C47.7393 44.1367 47.7002 44.0684 47.6221 44.0684C47.5244 44.0684 47.3535 44.1758 47.1094 44.3906C46.875 44.6055 46.6113 44.874 46.3184 45.1963C46.0352 45.5088 45.7471 45.8408 45.4541 46.1924C45.1611 46.5342 44.9121 46.8369 44.707 47.1006C44.502 47.6963 44.2871 48.3115 44.0625 48.9463C43.8379 49.5713 43.623 50.1914 43.418 50.8066C43.2129 51.4121 43.0225 51.9883 42.8467 52.5352C42.6807 53.082 42.5391 53.5703 42.4219 54ZM55.1367 57.0908C55.0488 57.4326 54.873 57.7549 54.6094 58.0576C54.3457 58.3604 54.043 58.6338 53.7012 58.8779C53.3594 59.1318 52.998 59.3564 52.6172 59.5518C52.2363 59.7568 51.8799 59.9229 51.5479 60.0498C51.2158 60.1865 50.9326 60.2891 50.6982 60.3574C50.4541 60.4355 50.3027 60.4746 50.2441 60.4746C50.1562 60.4746 50.0391 60.4648 49.8926 60.4453C49.7363 60.4258 49.6143 60.3867 49.5264 60.3281C49.4189 60.2695 49.292 60.1572 49.1455 59.9912C48.999 59.835 48.8525 59.6494 48.7061 59.4346C48.5596 59.2197 48.4277 58.9902 48.3105 58.7461C48.1836 58.5117 48.1006 58.292 48.0615 58.0869L49.834 56.6074C50.0195 57.0762 50.2197 57.4912 50.4346 57.8525C50.5225 58.0088 50.6201 58.1602 50.7275 58.3066C50.835 58.4629 50.9473 58.5996 51.0645 58.7168C51.1816 58.834 51.3037 58.9268 51.4307 58.9951C51.5576 59.0635 51.6846 59.0977 51.8115 59.0977C51.9092 59.0977 51.9971 59.0586 52.0752 58.9805C52.1631 58.9023 52.2412 58.7998 52.3096 58.6729C52.3877 58.5557 52.4609 58.4141 52.5293 58.248C52.5977 58.0918 52.666 57.9258 52.7344 57.75C52.9492 57.1738 53.1494 56.5928 53.335 56.0068C53.5205 55.4307 53.6963 54.8447 53.8623 54.249C54.0381 53.6533 54.209 53.0479 54.375 52.4326C54.5508 51.8174 54.7266 51.1875 54.9023 50.543C54.5898 50.9531 54.2578 51.3779 53.9062 51.8174C53.5645 52.2471 53.2275 52.6426 52.8955 53.0039C52.5732 53.3555 52.2705 53.6484 51.9873 53.8828C51.7041 54.1172 51.4746 54.2344 51.2988 54.2344C51.2305 54.2344 51.1084 54.2051 50.9326 54.1465C50.7568 54.0879 50.5811 53.9951 50.4053 53.8682C50.2197 53.7314 50.0537 53.5605 49.9072 53.3555C49.7607 53.1504 49.6826 52.9062 49.6729 52.623C49.6729 52.5254 49.7363 52.2861 49.8633 51.9053C49.9805 51.5244 50.1367 51.0654 50.332 50.5283C50.5176 49.9814 50.7178 49.3955 50.9326 48.7705C51.1475 48.1357 51.3477 47.5205 51.5332 46.9248C51.7285 46.3193 51.8848 45.7627 52.002 45.2549C52.1289 44.7471 52.1924 44.3516 52.1924 44.0684C52.1924 43.9902 52.1826 43.9219 52.1631 43.8633C52.1436 43.8047 52.124 43.7559 52.1045 43.7168C52.0752 43.6777 52.0459 43.6436 52.0166 43.6143V43.4092C52.2314 43.2725 52.4902 43.1602 52.793 43.0723C53.0957 42.9746 53.3887 42.9014 53.6719 42.8525C53.9941 42.7939 54.3311 42.75 54.6826 42.7207L54.7412 42.8086C54.6729 43.3262 54.5557 43.9023 54.3896 44.5371C54.2236 45.1621 54.0381 45.8066 53.833 46.4707C53.6279 47.125 53.4131 47.7744 53.1885 48.4189C52.9736 49.0635 52.7734 49.6592 52.5879 50.2061C52.4023 50.7529 52.251 51.2363 52.1338 51.6562C52.0166 52.0664 51.958 52.3691 51.958 52.5645C51.958 52.7012 51.9971 52.7695 52.0752 52.7695C52.1533 52.7695 52.2754 52.7012 52.4414 52.5645C52.6074 52.418 52.7979 52.2324 53.0127 52.0078C53.2275 51.7832 53.4521 51.5342 53.6865 51.2607C53.9307 50.9873 54.1602 50.7236 54.375 50.4697C54.5996 50.2061 54.7998 49.9668 54.9756 49.752C55.1514 49.5273 55.2832 49.3613 55.3711 49.2539C55.5078 48.8242 55.6543 48.3604 55.8105 47.8623C55.9668 47.3545 56.1133 46.8662 56.25 46.3975C56.3965 45.9287 56.5186 45.4941 56.6162 45.0938C56.7236 44.6934 56.792 44.3809 56.8213 44.1562C56.8408 44.0488 56.8408 43.9658 56.8213 43.9072C56.8018 43.8389 56.7773 43.7803 56.748 43.7314C56.709 43.6826 56.6699 43.6436 56.6309 43.6143V43.4092C56.8555 43.2725 57.1191 43.1602 57.4219 43.0723C57.7246 42.9746 58.0176 42.9014 58.3008 42.8525C58.623 42.7939 58.96 42.75 59.3115 42.7207L59.3701 42.8086C59.3018 43.0332 59.1895 43.3896 59.0332 43.8779C58.877 44.3564 58.6963 44.9082 58.4912 45.5332C58.2959 46.1484 58.0859 46.8027 57.8613 47.4961C57.6465 48.1797 57.4365 48.8389 57.2314 49.4736C57.0361 50.0986 56.8604 50.6699 56.7041 51.1875C56.5576 51.6953 56.4551 52.0811 56.3965 52.3447L55.1367 57.0908Z" fill="#FF0000"/>
<path d="M12.6602 39.1641C12.6602 39.6263 12.5885 40.0397 12.4453 40.4043C12.3021 40.7624 12.1133 41.0911 11.8789 41.3906C11.6445 41.6836 11.3743 41.957 11.0684 42.2109C10.7624 42.4583 10.4466 42.709 10.1211 42.9629C10.1471 43.3535 10.1829 43.7669 10.2285 44.2031C10.2741 44.6328 10.3262 45.0723 10.3848 45.5215C10.4499 45.9707 10.5182 46.4232 10.5898 46.8789C10.668 47.3346 10.7526 47.7806 10.8438 48.2168C11.1367 47.7546 11.3711 47.2598 11.5469 46.7324C11.7227 46.2051 11.8268 45.7005 11.8594 45.2188C11.8594 45.1667 11.8398 45.1243 11.8008 45.0918C11.7617 45.0592 11.7161 45.043 11.6641 45.043L11.6152 44.916C11.7324 44.8835 11.8626 44.8509 12.0059 44.8184C12.1556 44.7858 12.3086 44.7565 12.4648 44.7305C12.6276 44.7044 12.7871 44.6849 12.9434 44.6719C13.0996 44.6523 13.2461 44.6361 13.3828 44.623L13.4023 44.7207C13.1289 45.4629 12.7871 46.1986 12.377 46.9277C11.9668 47.6504 11.5078 48.3145 11 48.9199C11.0195 49.0306 11.0423 49.1413 11.0684 49.252C11.0944 49.3561 11.1237 49.4603 11.1562 49.5645C11.2995 50.1178 11.4329 50.5638 11.5566 50.9023C11.6868 51.2344 11.8171 51.498 11.9473 51.6934C12.0775 51.8887 12.2142 52.0319 12.3574 52.123C12.5007 52.2207 12.6602 52.3053 12.8359 52.377L12.7578 52.6016C12.4388 52.5951 12.1263 52.5495 11.8203 52.4648C11.5208 52.3867 11.2376 52.2533 10.9707 52.0645C10.7038 51.8822 10.4596 51.638 10.2383 51.332C10.0234 51.026 9.83789 50.6419 9.68164 50.1797C9.27799 50.4922 8.86133 50.7331 8.43164 50.9023C8.00846 51.0716 7.57227 51.1562 7.12305 51.1562C6.93424 51.1562 6.73242 51.1009 6.51758 50.9902C6.30924 50.873 6.11719 50.7168 5.94141 50.5215C5.76562 50.3197 5.6224 50.082 5.51172 49.8086C5.39453 49.5352 5.33594 49.2389 5.33594 48.9199C5.33594 48.3926 5.43034 47.8848 5.61914 47.3965C5.80143 46.9082 6.04232 46.4395 6.3418 45.9902C6.64779 45.5345 6.99609 45.1016 7.38672 44.6914C7.77734 44.2747 8.17448 43.8841 8.57812 43.5195C8.55859 43.1745 8.54232 42.8522 8.5293 42.5527C8.52279 42.2533 8.51953 41.9831 8.51953 41.7422C8.51953 41.4232 8.57161 41.1009 8.67578 40.7754C8.78646 40.4434 8.92969 40.1243 9.10547 39.8184C9.28776 39.5059 9.49284 39.2161 9.7207 38.9492C9.95508 38.6823 10.196 38.4479 10.4434 38.2461C10.6973 38.0443 10.9479 37.888 11.1953 37.7773C11.4427 37.6602 11.6706 37.6016 11.8789 37.6016C11.944 37.6016 12.0221 37.6146 12.1133 37.6406C12.2044 37.6667 12.2891 37.735 12.3672 37.8457C12.4518 37.9499 12.5202 38.1061 12.5723 38.3145C12.6309 38.5228 12.6602 38.806 12.6602 39.1641ZM9.51562 49.623C9.39844 49.2259 9.29427 48.806 9.20312 48.3633C9.11198 47.9141 9.0306 47.4583 8.95898 46.9961C8.88737 46.5339 8.82552 46.0716 8.77344 45.6094C8.72135 45.1471 8.67578 44.6979 8.63672 44.2617C8.14844 44.8346 7.77409 45.4824 7.51367 46.2051C7.25326 46.9212 7.12305 47.6732 7.12305 48.4609C7.12305 48.7214 7.1556 48.9525 7.2207 49.1543C7.29232 49.3496 7.38021 49.5156 7.48438 49.6523C7.58854 49.7891 7.70247 49.8932 7.82617 49.9648C7.94987 50.0299 8.06706 50.0625 8.17773 50.0625C8.41862 50.0625 8.64974 50.0234 8.87109 49.9453C9.09245 49.8672 9.30729 49.7598 9.51562 49.623ZM10.0234 40.4434C10.0234 40.9577 10.043 41.5957 10.082 42.3574C10.2643 42.2142 10.4336 42.0645 10.5898 41.9082C10.7526 41.7454 10.8893 41.5664 11 41.3711C11.1107 41.1693 11.1986 40.9447 11.2637 40.6973C11.3288 40.4434 11.3613 40.1504 11.3613 39.8184C11.3613 39.4863 11.3223 39.2161 11.2441 39.0078C11.166 38.7995 11.0716 38.6953 10.9609 38.6953C10.8568 38.6953 10.7493 38.7507 10.6387 38.8613C10.528 38.972 10.4271 39.1152 10.3359 39.291C10.2448 39.4603 10.1699 39.6491 10.1113 39.8574C10.0527 40.0592 10.0234 40.2546 10.0234 40.4434Z" fill="black"/>
</svg>
