<svg width="29" height="29" viewBox="0 0 29 29" fill="none" xmlns="http://www.w3.org/2000/svg">
<path d="M14.5219 6.25069C10.4173 6.25069 7.06396 9.60407 7.06396 13.7086C7.06396 15.8548 8.00291 17.9204 9.5857 19.3154C10.7661 20.4958 10.6588 23.0176 10.632 23.0444C10.632 23.1785 10.6588 23.2858 10.7661 23.3932C10.8466 23.4736 10.9807 23.5273 11.088 23.5273H17.9289C18.063 23.5273 18.1703 23.4736 18.2508 23.3932C18.3313 23.3127 18.385 23.1785 18.385 23.0444C18.385 23.0176 18.2508 20.4958 19.4312 19.3154C19.458 19.2886 19.4849 19.2618 19.5117 19.235C21.0677 17.8131 21.9798 15.8011 21.9798 13.7086C21.9798 9.60407 18.6264 6.25069 14.5219 6.25069ZM18.8142 18.6179C18.7874 18.6448 18.7337 18.6984 18.7337 18.7253C17.6875 19.852 17.4997 21.7031 17.4728 22.5883H11.5441C11.5172 21.7031 11.3295 19.7715 10.2027 18.6179C8.78089 17.3839 7.94926 15.5865 7.94926 13.6818C7.94926 10.0601 10.8734 7.13599 14.495 7.13599C18.1167 7.13599 21.0408 10.0601 21.0408 13.6818C21.0408 15.5865 20.236 17.3839 18.8142 18.6179Z" fill="#0500FF"/>
<path d="M14.4951 8.1554C14.2537 8.1554 14.0391 8.37002 14.0391 8.61146C14.0391 8.85291 14.2537 9.06752 14.4951 9.06752C17.2047 9.06752 19.3776 11.2673 19.3776 13.95C19.3776 14.1915 19.5923 14.4061 19.8337 14.4061C20.0751 14.4061 20.2898 14.1915 20.2898 13.95C20.3166 10.7576 17.7144 8.1554 14.4951 8.1554Z" fill="#0500FF"/>
<path d="M17.4729 24.037H11.5174C10.9003 24.037 10.3906 24.5467 10.3906 25.1637C10.3906 25.7808 10.9003 26.2905 11.5174 26.2905H17.4461C18.09 26.2636 18.5997 25.7808 18.5997 25.1637C18.5997 24.5467 18.09 24.037 17.4729 24.037ZM17.4729 25.3515H11.5174C11.4101 25.3515 11.3027 25.271 11.3027 25.1369C11.3027 25.0028 11.3832 24.9223 11.5174 24.9223H17.4461C17.5534 24.9223 17.6607 25.0028 17.6607 25.1369C17.6607 25.271 17.5803 25.3515 17.4729 25.3515Z" fill="#0500FF"/>
<path d="M16.5876 26.7465H12.4026C11.7856 26.7465 11.2759 27.2562 11.2759 27.8733C11.2759 28.4903 11.7856 29 12.4026 29H16.5876C17.2046 29 17.7144 28.4903 17.7144 27.8733C17.7144 27.2294 17.2046 26.7465 16.5876 26.7465ZM16.5876 28.0611H12.4026C12.2953 28.0611 12.188 27.9806 12.188 27.8464C12.188 27.7123 12.2685 27.6318 12.4026 27.6318H16.5876C16.6949 27.6318 16.8022 27.7123 16.8022 27.8464C16.8022 27.9806 16.6949 28.0611 16.5876 28.0611Z" fill="#0500FF"/>
<path d="M14.4951 4.02405C14.7634 4.02405 14.9512 3.80944 14.9512 3.56799V0.456059C14.9512 0.214616 14.7366 0 14.4951 0C14.2537 0 14.0391 0.214616 14.0391 0.456059V3.56799C14.0391 3.80944 14.2537 4.02405 14.4951 4.02405Z" fill="#0500FF"/>
<path d="M22.0872 2.30712C21.8726 2.14616 21.6043 2.22664 21.4702 2.41443L19.7533 4.98982C19.5923 5.20444 19.646 5.49954 19.8606 5.63367C19.941 5.68732 20.0215 5.71415 20.102 5.71415C20.263 5.71415 20.3971 5.63367 20.4776 5.49954L22.1945 2.92414C22.3555 2.73635 22.3018 2.44126 22.0872 2.30712Z" fill="#0500FF"/>
<path d="M9.04945 5.60684C9.12993 5.60684 9.21042 5.58002 9.2909 5.52636C9.50551 5.39223 9.55917 5.09713 9.42503 4.88251L7.76176 2.28029C7.62762 2.06568 7.33253 2.01202 7.11791 2.14616C6.90329 2.28029 6.84964 2.57539 6.98377 2.79001L8.64705 5.39223C8.75436 5.55319 8.88849 5.60684 9.04945 5.60684Z" fill="#0500FF"/>
<path d="M5.80327 8.45051L3.09375 6.97502C2.87913 6.86771 2.58403 6.94819 2.47673 7.16281C2.34259 7.37743 2.42307 7.67252 2.66452 7.77983L5.37404 9.25532C5.45452 9.28215 5.50818 9.30898 5.58866 9.30898C5.74962 9.30898 5.91058 9.22849 5.99106 9.06753C6.09837 8.85292 6.01789 8.55782 5.80327 8.45051Z" fill="#0500FF"/>
<path d="M26.5406 7.16281C26.4333 6.94819 26.1382 6.86771 25.9236 6.97502L23.1873 8.45051C22.9726 8.55782 22.8922 8.85292 22.9995 9.06753C23.08 9.22849 23.2409 9.30898 23.4019 9.30898C23.4824 9.30898 23.5628 9.28215 23.6165 9.25532L26.3529 7.77983C26.5675 7.67252 26.6479 7.37743 26.5406 7.16281Z" fill="#0500FF"/>
</svg>
