<svg width="29" height="29" viewBox="0 0 29 29" fill="none" xmlns="http://www.w3.org/2000/svg">
<g clip-path="url(#clip0)">
<path d="M24.4688 19.9375C23.4693 19.9375 22.6562 19.1244 22.6562 18.125V11.7812C22.6562 9.5973 21.8042 7.54549 20.2571 6.00379C19.3034 5.05336 18.1565 4.36812 16.9054 3.98387C17.1051 3.60574 17.2188 3.17539 17.2188 2.71875C17.2188 1.21964 15.9991 0 14.5 0C13.0009 0 11.7812 1.21964 11.7812 2.71875C11.7812 3.17799 11.8961 3.61078 12.098 3.9905C8.77069 5.0298 6.34375 8.16814 6.34375 11.86V18.125C6.34375 19.1244 5.53067 19.9375 4.53125 19.9375C4.03077 19.9375 3.625 20.3433 3.625 20.8438V24.4688C3.625 24.9692 4.03077 25.375 4.53125 25.375H11.3607C11.3395 25.5239 11.3281 25.6751 11.3281 25.8281C11.3281 27.5771 12.7511 29 14.5 29C16.2489 29 17.6719 27.5771 17.6719 25.8281C17.6719 25.6751 17.6605 25.5239 17.6393 25.375H24.4688C24.9692 25.375 25.375 24.9692 25.375 24.4688V20.8438C25.375 20.3433 24.9692 19.9375 24.4688 19.9375ZM14.5 1.8125C14.9997 1.8125 15.4062 2.21907 15.4062 2.71875C15.4062 3.21843 14.9997 3.625 14.5 3.625C14.0003 3.625 13.5938 3.21843 13.5938 2.71875C13.5938 2.21907 14.0003 1.8125 14.5 1.8125ZM15.8594 25.8281C15.8594 26.5777 15.2496 27.1875 14.5 27.1875C13.7504 27.1875 13.1406 26.5777 13.1406 25.8281C13.1406 25.6715 13.1668 25.519 13.2177 25.375H15.7822C15.8332 25.519 15.8594 25.6715 15.8594 25.8281ZM23.5625 23.5625H16.3125H12.6875H5.4375V21.6353C6.99925 21.2319 8.15625 19.811 8.15625 18.125V11.86C8.15625 8.33087 10.9918 5.44979 14.4772 5.43756C14.4849 5.43756 14.4925 5.4375 14.5001 5.4375C16.1905 5.4375 17.7799 6.09402 18.9777 7.28767C20.1811 8.48675 20.8438 10.0827 20.8438 11.7812V18.125C20.8438 19.811 22.0007 21.2319 23.5625 21.6353V23.5625Z" fill="black"/>
<path d="M10.875 12.6875C10.3745 12.6875 9.96875 12.2817 9.96875 11.7812C9.96875 9.28272 12.0015 7.25 14.5 7.25C15.0005 7.25 15.4062 7.65577 15.4062 8.15625C15.4062 8.65673 15.0005 9.0625 14.5 9.0625C13.0009 9.0625 11.7812 10.2821 11.7812 11.7812C11.7812 12.2817 11.3755 12.6875 10.875 12.6875Z" fill="black"/>
</g>
<defs>
<clipPath id="clip0">
<rect width="29" height="29" fill="white"/>
</clipPath>
</defs>
</svg>
