<svg width="55" height="55" viewBox="0 0 55 55" fill="none" xmlns="http://www.w3.org/2000/svg">
<circle cx="27.5" cy="27.5" r="27.5" fill="white"/>
<path d="M27.5 14C23.8653 14 20.9082 16.9571 20.9082 20.5918C20.9082 24.2265 23.8653 27.1836 27.5 27.1836C31.1347 27.1836 34.0918 24.2265 34.0918 20.5918C34.0918 16.9571 31.1347 14 27.5 14ZM27.5 25.7188C24.673 25.7188 22.373 23.4188 22.373 20.5918C22.373 17.7648 24.673 15.4648 27.5 15.4648C30.327 15.4648 32.627 17.7648 32.627 20.5918C32.627 23.4188 30.327 25.7188 27.5 25.7188Z" fill="black"/>
<path d="M29.5426 28.6973H25.4573C22.0783 28.6973 18.7436 30.2574 16.5137 33.6024V39H38.4863V33.6024C36.2596 30.2622 32.9258 28.6973 29.5426 28.6973ZM37.0215 37.5352H37.0215H17.9785V34.0506C19.689 31.6115 22.4684 30.1621 25.4574 30.1621H29.5427C32.5317 30.1621 35.311 31.6115 37.0215 34.0506V37.5352Z" fill="black"/>
</svg>
