<svg width="26" height="26" viewBox="0 0 26 26" fill="none" xmlns="http://www.w3.org/2000/svg">
<path d="M22.1924 3.80758C19.737 1.35225 16.4724 0 13 0C9.52758 0 6.263 1.35225 3.80758 3.80758C1.35225 6.263 0 9.52758 0 13C0 16.4724 1.35225 19.737 3.80758 22.1924C6.263 24.6477 9.52758 26 13 26C16.4724 26 19.737 24.6477 22.1924 22.1924C24.6477 19.737 26 16.4724 26 13C26 9.52758 24.6477 6.263 22.1924 3.80758ZM13 23.9688C6.9518 23.9688 2.03125 19.0482 2.03125 13C2.03125 6.9518 6.9518 2.03125 13 2.03125C19.0482 2.03125 23.9688 6.9518 23.9688 13C23.9688 19.0482 19.0482 23.9688 13 23.9688Z" fill="black"/>
<path d="M18.7379 14.5121C18.7343 14.5229 18.3673 15.6103 17.4674 16.6648C16.3221 18.007 14.86 18.6875 13.1219 18.6875C11.3712 18.6875 9.86198 17.9989 8.63622 16.6409C7.67544 15.5764 7.25131 14.4806 7.24836 14.473L5.34534 15.1834C5.36667 15.2404 5.88022 16.5947 7.07256 17.9394C8.68471 19.7577 10.7765 20.7188 13.1219 20.7188C15.4787 20.7188 17.535 19.75 19.0683 17.9174C20.2016 16.5628 20.6509 15.198 20.6695 15.1406L18.7379 14.5121Z" fill="black"/>
<path d="M8.53125 10.7717C9.42871 10.7717 10.1562 10.0442 10.1562 9.14672C10.1562 8.24926 9.42871 7.52172 8.53125 7.52172C7.63379 7.52172 6.90625 8.24926 6.90625 9.14672C6.90625 10.0442 7.63379 10.7717 8.53125 10.7717Z" fill="black"/>
<path d="M17.4688 10.7717C18.3662 10.7717 19.0938 10.0442 19.0938 9.14672C19.0938 8.24926 18.3662 7.52172 17.4688 7.52172C16.5713 7.52172 15.8438 8.24926 15.8438 9.14672C15.8438 10.0442 16.5713 10.7717 17.4688 10.7717Z" fill="black"/>
</svg>
