<svg width="26" height="26" viewBox="0 0 26 26" fill="none" xmlns="http://www.w3.org/2000/svg">
<path d="M22.1924 3.80758C19.737 1.35225 16.4724 0 13 0C9.52758 0 6.263 1.35225 3.80758 3.80758C1.35225 6.263 0 9.52758 0 13C0 16.4724 1.35225 19.737 3.80758 22.1924C6.263 24.6477 9.52758 26 13 26C16.4724 26 19.737 24.6477 22.1924 22.1924C24.6477 19.737 26 16.4724 26 13C26 9.52758 24.6477 6.263 22.1924 3.80758ZM13 23.9688C6.9518 23.9688 2.03125 19.0482 2.03125 13C2.03125 6.9518 6.9518 2.03125 13 2.03125C19.0482 2.03125 23.9688 6.9518 23.9688 13C23.9688 19.0482 19.0482 23.9688 13 23.9688Z" fill="black"/>
<path d="M8.53125 10.7717C9.42871 10.7717 10.1562 10.0442 10.1562 9.14672C10.1562 8.24926 9.42871 7.52172 8.53125 7.52172C7.63379 7.52172 6.90625 8.24926 6.90625 9.14672C6.90625 10.0442 7.63379 10.7717 8.53125 10.7717Z" fill="black"/>
<path d="M17.4688 10.7717C18.3662 10.7717 19.0938 10.0442 19.0938 9.14672C19.0938 8.24926 18.3662 7.52172 17.4688 7.52172C16.5713 7.52172 15.8438 8.24926 15.8438 9.14672C15.8438 10.0442 16.5713 10.7717 17.4688 10.7717Z" fill="black"/>
<path d="M19.3926 19.2067C19.3889 19.1958 19.022 18.1085 18.122 17.0539C16.9767 15.7118 15.5147 15.0312 13.7765 15.0312C12.0259 15.0312 10.5166 15.7199 9.29088 17.0779C8.3301 18.1424 7.90597 19.2381 7.90303 19.2458L6 18.5354C6.02133 18.4784 6.53488 17.124 7.72722 15.7793C9.33938 13.9611 11.4312 13 13.7765 13C16.1334 13 18.1896 13.9687 19.723 15.8014C20.8563 17.156 21.3056 18.5207 21.3242 18.5782L19.3926 19.2067Z" fill="black"/>
</svg>
