<svg width="26" height="26" viewBox="0 0 26 26" fill="none" xmlns="http://www.w3.org/2000/svg">
<path d="M12.0489 2.16312C12.3483 1.24181 13.6517 1.24181 13.9511 2.16312L15.6412 7.36475C16.0428 8.60081 17.1947 9.43769 18.4943 9.43769H23.9636C24.9324 9.43769 25.3351 10.6773 24.5514 11.2467L20.1267 14.4615C19.0752 15.2254 18.6352 16.5795 19.0369 17.8156L20.727 23.0172C21.0263 23.9385 19.9718 24.7047 19.1881 24.1353L14.7634 20.9205C13.7119 20.1565 12.2881 20.1565 11.2366 20.9205L6.81188 24.1353C6.02816 24.7047 4.97368 23.9385 5.27304 23.0172L6.96315 17.8156C7.36477 16.5795 6.92479 15.2254 5.87333 14.4615L1.44857 11.2467C0.664851 10.6773 1.06763 9.43769 2.03635 9.43769H7.50566C8.80534 9.43769 9.95721 8.60081 10.3588 7.36475L12.0489 2.16312Z" stroke="black" stroke-width="2"/>
</svg>
