<svg width="26" height="26" viewBox="0 0 26 26" fill="none" xmlns="http://www.w3.org/2000/svg">
<path d="M21.8237 1.752H4.15092C2.30316 1.752 0.799805 3.25506 0.799805 5.10312V15.9185C0.799805 17.7624 2.29661 19.2631 4.13902 19.2696V24.1775L11.1922 19.2696H21.8237C23.6714 19.2696 25.1748 17.7662 25.1748 15.9185V5.10312C25.1748 3.25506 23.6714 1.752 21.8237 1.752ZM23.7466 15.9185C23.7466 16.9786 22.884 17.8414 21.8237 17.8414H10.7441L5.56724 21.4438V17.8414H4.15092C3.09061 17.8414 2.22803 16.9786 2.22803 15.9185V5.10312C2.22803 4.04266 3.09061 3.18023 4.15092 3.18023H21.8237C22.884 3.18023 23.7466 4.04266 23.7466 5.10312V15.9185Z" fill="black"/>
<path d="M7.32367 6.79854H18.651V8.22676H7.32367V6.79854Z" fill="black"/>
<path d="M7.32367 9.84541H18.651V11.2736H7.32367V9.84541Z" fill="black"/>
<path d="M7.32367 12.8923H18.651V14.3205H7.32367V12.8923Z" fill="black"/>
</svg>
