<svg width="45" height="45" viewBox="0 0 45 45" fill="none" xmlns="http://www.w3.org/2000/svg">
<rect width="45" height="45" rx="5" fill="#789EFF"/>
<g clip-path="url(#clip0)">
<path d="M34 15.3686C33.1447 15.7438 32.2333 15.9924 31.2831 16.1132C32.2606 15.5296 33.0067 14.6124 33.3574 13.507C32.4461 14.0504 31.4398 14.4342 30.3674 14.6484C29.5021 13.7269 28.2687 13.1562 26.9232 13.1562C24.3127 13.1562 22.2111 15.2751 22.2111 17.8727C22.2111 18.2464 22.2427 18.6058 22.3203 18.9479C18.4002 18.7567 14.9316 16.8779 12.6014 14.0159C12.1946 14.7217 11.9559 15.5296 11.9559 16.3993C11.9559 18.0322 12.7969 19.4798 14.0504 20.3179C13.2928 20.3035 12.5496 20.0836 11.92 19.7371C11.92 19.7515 11.92 19.7702 11.92 19.7889C11.92 22.0802 13.5544 23.9835 15.6977 24.4219C15.3139 24.5269 14.8956 24.5772 14.4615 24.5772C14.1596 24.5772 13.8549 24.5599 13.5688 24.4967C14.1797 26.364 15.9134 27.7368 17.9748 27.7814C16.3705 29.0363 14.3336 29.7924 12.1284 29.7924C11.7418 29.7924 11.3709 29.7752 11 29.7277C13.0887 31.0747 15.5641 31.8438 18.2335 31.8438C26.9102 31.8438 31.654 24.6562 31.654 18.4261C31.654 18.2177 31.6468 18.0164 31.6367 17.8166C32.5726 17.1525 33.3589 16.3231 34 15.3686Z" fill="white"/>
</g>
<defs>
<clipPath id="clip0">
<rect width="23" height="23" fill="white" transform="translate(11 11)"/>
</clipPath>
</defs>
</svg>
