<svg width="34" height="72" viewBox="0 0 34 72" fill="none" xmlns="http://www.w3.org/2000/svg">
<path d="M16.7502 14.0152C20.6146 14.0152 23.7578 10.8719 23.7578 7.00759C23.7578 3.14324 20.6146 0 16.7502 0C12.8857 0 9.74347 3.14324 9.74347 7.00759C9.74347 10.8719 12.8867 14.0152 16.7502 14.0152Z" fill="#EF6D1B"/>
<path d="M33.4645 35.8513L28.1577 17.3721C27.8556 15.6713 26.3974 14.4431 24.669 14.4431H8.83344C7.10403 14.4431 5.64599 15.6713 5.3435 17.3721L0.0362461 35.8513C-0.0149339 36.028 -0.0105131 36.2082 0.040667 36.3716C0.0139717 36.542 0.000539095 36.7036 0.000539095 36.8661C0.000539095 38.8252 1.59426 40.4193 3.55475 40.4193C5.26766 40.4193 6.73454 39.1949 7.02819 37.5818L9.31956 29.0742L5.52986 47.4386C5.36356 47.8593 5.27974 48.2992 5.27974 48.748C5.27974 50.7072 6.8738 52.3014 8.83429 52.3014H9.22077V67.6376C9.22077 69.5977 10.8148 71.1901 12.7745 71.1901C14.7336 71.1901 16.3278 69.596 16.3278 67.6376V52.3014H17.1771V67.6376C17.1771 69.5977 18.7709 71.1901 20.7305 71.1901C22.6901 71.1901 24.2844 69.596 24.2844 67.6376V52.3014H24.6717C26.6313 52.3014 28.2247 50.7072 28.2247 48.748C28.2247 48.2956 28.1407 47.8562 27.9743 47.4367L24.1866 29.0733L26.4596 37.5087C26.7698 39.1949 28.2377 40.4193 29.9504 40.4193C31.9095 40.4193 33.5029 38.8252 33.5029 36.8661C33.5029 36.7046 33.489 36.5403 33.4628 36.3706C33.5114 36.2072 33.5158 36.028 33.4645 35.8513Z" fill="#EF6D1B"/>
</svg>
