<svg width="19" height="24" viewBox="0 0 19 24" fill="none" xmlns="http://www.w3.org/2000/svg">
<circle cx="9.5" cy="11.5" r="9" stroke="#C4C4C4"/>
<path d="M10.6641 17H9.21875V8.54688H10.6641V17ZM9.10156 6.30469C9.10156 6.07031 9.17188 5.8724 9.3125 5.71094C9.45833 5.54948 9.67188 5.46875 9.95312 5.46875C10.2344 5.46875 10.4479 5.54948 10.5938 5.71094C10.7396 5.8724 10.8125 6.07031 10.8125 6.30469C10.8125 6.53906 10.7396 6.73438 10.5938 6.89062C10.4479 7.04688 10.2344 7.125 9.95312 7.125C9.67188 7.125 9.45833 7.04688 9.3125 6.89062C9.17188 6.73438 9.10156 6.53906 9.10156 6.30469Z" fill="#C4C4C4"/>
</svg>
