<svg width="32" height="30" viewBox="0 0 32 30" fill="none" xmlns="http://www.w3.org/2000/svg">
<path d="M16 29.2197C15.5444 29.2197 15.1052 29.0547 14.7629 28.7549C13.4702 27.6245 12.2239 26.5623 11.1242 25.6252L11.1186 25.6204C7.89476 22.873 5.11083 20.5005 3.17382 18.1633C1.00854 15.5505 0 13.0732 0 10.3669C0 7.73755 0.90161 5.31177 2.53857 3.53613C4.19506 1.7395 6.46801 0.75 8.93944 0.75C10.7866 0.75 12.4782 1.33398 13.9673 2.4856C14.7187 3.06689 15.3999 3.77832 16 4.60815C16.6003 3.77832 17.2812 3.06689 18.0329 2.4856C19.5219 1.33398 21.2136 0.75 23.0607 0.75C25.5319 0.75 27.8051 1.7395 29.4616 3.53613C31.0986 5.31177 31.9999 7.73755 31.9999 10.3669C31.9999 13.0732 30.9916 15.5505 28.8264 18.1631C26.8894 20.5005 24.1057 22.8728 20.8823 25.6199C19.7807 26.5583 18.5324 27.6223 17.2368 28.7554C16.8947 29.0547 16.4553 29.2197 16 29.2197ZM8.93944 2.62451C6.99779 2.62451 5.2141 3.39941 3.9165 4.80664C2.5996 6.23511 1.87426 8.20972 1.87426 10.3669C1.87426 12.6431 2.72021 14.6787 4.61693 16.9673C6.45018 19.1794 9.17698 21.5032 12.3342 24.1938L12.3401 24.1987C13.4438 25.1394 14.695 26.2058 15.9973 27.3445C17.3073 26.2036 18.5605 25.1355 19.6665 24.1934C22.8234 21.5027 25.55 19.1794 27.3832 16.9673C29.2797 14.6787 30.1257 12.6431 30.1257 10.3669C30.1257 8.20972 29.4003 6.23511 28.0834 4.80664C26.7861 3.39941 25.0021 2.62451 23.0607 2.62451C21.6384 2.62451 20.3325 3.07666 19.1794 3.96826C18.1518 4.76318 17.436 5.76807 17.0163 6.47119C16.8005 6.83276 16.4206 7.04858 16 7.04858C15.5793 7.04858 15.1994 6.83276 14.9836 6.47119C14.5642 5.76807 13.8484 4.76318 12.8205 3.96826C11.6675 3.07666 10.3616 2.62451 8.93944 2.62451Z" fill="#C4C4C4"/>
</svg>
