<svg width="216" height="56" viewBox="0 0 216 56" fill="none" xmlns="http://www.w3.org/2000/svg">
<rect width="216" height="56" fill="#00C3F3"/>
<g clip-path="url(#clip0)">
<path d="M119 20.3686C118.145 20.7438 117.233 20.9924 116.283 21.1132C117.261 20.5296 118.007 19.6124 118.357 18.507C117.446 19.0504 116.44 19.4342 115.367 19.6484C114.502 18.7269 113.269 18.1562 111.923 18.1562C109.313 18.1562 107.211 20.2751 107.211 22.8727C107.211 23.2464 107.243 23.6058 107.32 23.9479C103.4 23.7567 99.9316 21.8779 97.6014 19.0159C97.1946 19.7217 96.9559 20.5296 96.9559 21.3993C96.9559 23.0322 97.7969 24.4798 99.0504 25.3179C98.2928 25.3035 97.5496 25.0836 96.92 24.7371C96.92 24.7515 96.92 24.7702 96.92 24.7889C96.92 27.0802 98.5544 28.9835 100.698 29.4219C100.314 29.5269 99.8956 29.5772 99.4615 29.5772C99.1596 29.5772 98.8549 29.5599 98.5688 29.4967C99.1797 31.364 100.913 32.7368 102.975 32.7814C101.371 34.0363 99.3336 34.7924 97.1284 34.7924C96.7418 34.7924 96.3709 34.7752 96 34.7277C98.0887 36.0747 100.564 36.8438 103.234 36.8438C111.91 36.8438 116.654 29.6562 116.654 23.4261C116.654 23.2177 116.647 23.0164 116.637 22.8166C117.573 22.1525 118.359 21.3231 119 20.3686Z" fill="white"/>
</g>
<defs>
<clipPath id="clip0">
<rect width="23" height="23" fill="white" transform="translate(96 16)"/>
</clipPath>
</defs>
</svg>
