<svg xmlns="http://www.w3.org/2000/svg" viewBox="0 0 1024 1024">
  <path fill="#333" d="M498.659 784.617L200.594 474.128l76.425-62.751L449.374 549.79c70.664-85.936 227.471-256.623 443.833-392.329l18.186 43.038C712.799 387.222 550.232 650.23 498.659 784.617z"></path>
  <path fill="#333" d="M844.832 816.267c.703-.734 1.408-1.468 2.107-2.205a451.004 451.004 0 0 0 4.811-5.168 396.383 396.383 0 0 0 3.026-3.317 450.04 450.04 0 0 0 3.727-4.197c1.309-1.488 2.61-2.98 3.898-4.484.9-1.054 1.793-2.114 2.684-3.175a450.684 450.684 0 0 0 4.719-5.695 425.28 425.28 0 0 0 1.704-2.113c1.84-2.288 3.66-4.593 5.455-6.916l.808-1.054a447.698 447.698 0 0 0 6.114-8.14c25.772-35.133 46.633-74.088 61.571-115.865l.062-.177a453.751 453.751 0 0 0 3.383-9.813c.216-.652.422-1.306.636-1.959a468.627 468.627 0 0 0 2.575-8.106c.414-1.353.808-2.713 1.21-4.071.597-2.021 1.196-4.041 1.766-6.072.612-2.172 1.191-4.357 1.771-6.542.325-1.232.662-2.46.978-3.696a471.29 471.29 0 0 0 2.285-9.362c.075-.327.156-.653.233-.98 11.926-51.534 15.044-106.026 7.823-161.562a428.873 428.873 0 0 0-2.165-14.521h-.059c-1.259-11.343-10.868-20.168-22.551-20.168-12.535 0-22.697 10.162-22.697 22.698 0 .775.039 1.54.115 2.295h-.066c.881 5.151 1.704 10.325 2.383 15.555 1.201 9.237 2.054 18.438 2.628 27.599.205 3.307.38 6.622.505 9.949.01.28.023.563.034.844.173 4.828.262 9.675.262 14.543 0 31.799-3.617 62.752-10.459 92.473-.091.391-.186.776-.278 1.166a420.506 420.506 0 0 1-1.987 8.146c-.307 1.198-.631 2.394-.949 3.591-.5 1.881-1 3.761-1.524 5.633a419.23 419.23 0 0 1-1.658 5.702c-.341 1.144-.673 2.289-1.021 3.429a422.824 422.824 0 0 1-2.394 7.536c-.166.508-.327 1.015-.494 1.521-14.545 43.781-36.331 84.577-64.108 120.771-.219.282-.434.566-.652.849a416.585 416.585 0 0 1-4.986 6.319c-.486.605-.972 1.213-1.462 1.818a439.091 439.091 0 0 1-4.322 5.215c-.778.923-1.555 1.849-2.341 2.768a377.788 377.788 0 0 1-3.586 4.123 412.914 412.914 0 0 1-3.284 3.701 382.294 382.294 0 0 1-2.788 3.058 430.761 430.761 0 0 1-4.272 4.588c-.648.684-1.302 1.363-1.955 2.043a407.289 407.289 0 0 1-5.275 5.403c-.37.372-.745.742-1.117 1.113a426.002 426.002 0 0 1-6.271 6.123c-.097.091-.194.185-.291.275-28.446 27.09-60.771 50.14-96.063 68.23-.149.076-.298.149-.445.227a421.304 421.304 0 0 1-8.078 4.015c-.654.315-1.314.622-1.972.935a401.189 401.189 0 0 1-6.642 3.101c-1.267.574-2.539 1.133-3.813 1.696a419.185 419.185 0 0 1-4.898 2.144 396.125 396.125 0 0 1-5.969 2.478c-.953.391-1.901.784-2.857 1.168a406.638 406.638 0 0 1-8.406 3.247c-.184.069-.364.14-.547.208-28.628 10.64-58.896 18.232-90.476 22.337-8.903 1.158-17.771 1.989-26.606 2.564-8.709.552-17.48.863-26.328.863-31.832 0-62.818-3.624-92.569-10.479-.241-.056-.48-.115-.722-.172a407.81 407.81 0 0 1-8.595-2.097c-1.053-.271-2.104-.557-3.153-.835a395.462 395.462 0 0 1-6.069-1.642c-1.77-.499-3.53-1.018-5.289-1.539-1.284-.379-2.569-.754-3.848-1.145a390.52 390.52 0 0 1-7.127-2.264c-.645-.21-1.292-.415-1.936-.63a394.499 394.499 0 0 1-8.659-2.982l-.341-.12c-37.372-13.402-72.443-32.117-104.176-55.35-.061-.046-.122-.088-.183-.133a419.894 419.894 0 0 1-7.157-5.375c-.365-.281-.732-.559-1.094-.841a413.784 413.784 0 0 1-6.086-4.802c-.682-.547-1.365-1.093-2.042-1.646a401.724 401.724 0 0 1-4.989-4.133c-1.002-.842-2.006-1.685-3-2.536a388.753 388.753 0 0 1-3.888-3.382 417.74 417.74 0 0 1-3.936-3.492c-.949-.854-1.889-1.717-2.83-2.58a407 407 0 0 1-4.806-4.477c-.615-.581-1.224-1.169-1.834-1.754a420.074 420.074 0 0 1-5.61-5.479c-.303-.303-.604-.608-.908-.91a429.206 429.206 0 0 1-6.402-6.559c-27.157-28.495-50.259-60.887-68.381-96.252l-.105-.209a399.064 399.064 0 0 1-4.13-8.314c-.277-.573-.547-1.151-.821-1.729a398.502 398.502 0 0 1-3.214-6.883c-.535-1.179-1.055-2.366-1.579-3.552a395.32 395.32 0 0 1-2.259-5.165 396.89 396.89 0 0 1-2.362-5.686c-.428-1.046-.861-2.087-1.281-3.135a406.364 406.364 0 0 1-3.144-8.141c-.102-.268-.207-.536-.308-.807-10.629-28.61-18.215-58.861-22.318-90.42-1.132-8.702-1.948-17.368-2.524-26.005-.577-8.905-.902-17.88-.902-26.93 0-31.855 3.629-62.864 10.494-92.635.032-.138.067-.275.099-.414a408.28 408.28 0 0 1 2.173-8.905c.246-.956.506-1.907.757-2.86.56-2.126 1.129-4.25 1.721-6.361.473-1.679.966-3.35 1.46-5.019.404-1.374.806-2.75 1.225-4.117a407.453 407.453 0 0 1 2.185-6.879c.236-.728.467-1.457.708-2.182a401.836 401.836 0 0 1 2.903-8.421c.068-.194.135-.388.204-.581 13.391-37.32 32.08-72.344 55.272-104.039l.222-.305a419.66 419.66 0 0 1 5.28-7.03c.314-.409.626-.819.942-1.229 1.545-2 3.116-3.98 4.697-5.952.583-.728 1.166-1.456 1.754-2.178a407.543 407.543 0 0 1 4.023-4.855 346.257 346.257 0 0 1 2.645-3.127c1.083-1.267 2.181-2.519 3.279-3.772a430.63 430.63 0 0 1 3.592-4.048c.821-.911 1.651-1.813 2.479-2.718a409.303 409.303 0 0 1 4.581-4.919c.546-.577 1.098-1.149 1.647-1.721a418.408 418.408 0 0 1 5.584-5.72c.267-.269.537-.535.806-.802 30.063-29.967 64.743-55.308 102.884-74.851l.167-.083a398.179 398.179 0 0 1 8.355-4.153c.562-.271 1.126-.532 1.688-.801a422.343 422.343 0 0 1 6.92-3.231c1.171-.532 2.353-1.048 3.531-1.57a391.425 391.425 0 0 1 5.178-2.264 390.353 390.353 0 0 1 5.687-2.361c1.043-.428 2.084-.861 3.133-1.281a410.708 410.708 0 0 1 8.151-3.148c.265-.099.526-.203.792-.302 28.612-10.628 58.866-18.215 90.423-22.319a411.928 411.928 0 0 1 23.134-2.343c.713-.052 1.431-.089 2.146-.137 2.792-.188 5.58-.351 8.364-.483a420.01 420.01 0 0 1 5.282-.201 412.5 412.5 0 0 1 5.204-.152c2.237-.047 4.478-.073 6.724-.085 1.54-.009 3.08-.012 4.615-.003 1.547.008 3.095.014 4.636.04 2.652.047 5.3.122 7.942.219a434.117 434.117 0 0 1 16.439.938c2.061.158 4.123.328 6.179.516a409.796 409.796 0 0 1 74.474 13.858c1.296.505 2.644.898 4.042 1.16.136.04.272.076.406.115v-.053c1.231.205 2.485.338 3.772.338 12.538 0 22.701-10.163 22.701-22.701 0-10.567-7.232-19.421-17.011-21.95v-.211a454.84 454.84 0 0 0-86.105-15.967v-.031c-1.823-.159-3.656-.268-5.482-.405-.972-.074-1.944-.149-2.917-.216-2.271-.156-4.542-.3-6.818-.423-.657-.035-1.317-.06-1.975-.093a467.295 467.295 0 0 0-12.564-.449c-1.057-.022-2.114-.046-3.175-.064a474.999 474.999 0 0 0-6.437-.058c-.213 0-.425-.005-.639-.005-.549 0-1.095.019-1.645.021a446.48 446.48 0 0 0-9.391.12c-1.463.034-2.918.098-4.377.147-2.34.08-4.678.151-7.025.267-3.682.178-7.35.405-11.009.67-.122.011-.243.016-.367.024-43.815 3.213-85.898 12.623-125.4 27.342-.313.116-.625.239-.938.357a453.326 453.326 0 0 0-8.999 3.476c-1.173.468-2.334.955-3.502 1.431a439.39 439.39 0 0 0-6.3 2.617c-1.931.821-3.841 1.67-5.755 2.518-1.306.579-2.618 1.148-3.917 1.741a444.335 444.335 0 0 0-7.688 3.59c-.623.297-1.253.587-1.873.889a441.576 441.576 0 0 0-9.272 4.607l-.196.099c-39.499 20.2-75.438 45.907-106.953 75.992l-.017.014a451.184 451.184 0 0 0-7.272 7.103c-.31.308-.622.614-.93.925a453.356 453.356 0 0 0-6.168 6.317c-.622.648-1.244 1.294-1.863 1.946a447.713 447.713 0 0 0-5.055 5.431 503.141 503.141 0 0 0-2.784 3.051 442.094 442.094 0 0 0-3.964 4.469 460.695 460.695 0 0 0-3.666 4.214 476.964 476.964 0 0 0-2.912 3.443 464.055 464.055 0 0 0-4.491 5.421c-.647.797-1.289 1.598-1.931 2.398a453.074 453.074 0 0 0-5.231 6.629c-.346.447-.688.898-1.034 1.348a452.662 452.662 0 0 0-5.872 7.818l-.243.333c-25.684 35.05-46.48 73.895-61.39 115.551-.077.215-.15.43-.227.645a451.084 451.084 0 0 0-3.221 9.343c-.271.818-.53 1.64-.797 2.458a451.591 451.591 0 0 0-2.417 7.608c-.469 1.528-.914 3.066-1.368 4.599-.543 1.845-1.093 3.691-1.613 5.548A446.596 446.596 0 0 0 75 384.004c-.276 1.048-.563 2.091-.831 3.143a447.542 447.542 0 0 0-2.423 9.93l-.101.419c-9.882 42.648-13.703 87.323-10.646 132.94 2.938 45.145 12.432 88.497 27.562 129.113.142.381.291.76.434 1.14a450.007 450.007 0 0 0 3.397 8.795c.495 1.241 1.009 2.472 1.514 3.707.835 2.036 1.667 4.072 2.531 6.093.848 1.993 1.725 3.969 2.6 5.945.553 1.245 1.097 2.494 1.66 3.732a447.636 447.636 0 0 0 3.663 7.845c.273.573.541 1.149.818 1.723a443.439 443.439 0 0 0 4.681 9.419c.007.015.015.028.021.045 21.787 42.612 49.983 81.08 83.169 114.323.287.287.573.576.86.862a445.912 445.912 0 0 0 6.38 6.23c.627.602 1.252 1.206 1.882 1.802a435.364 435.364 0 0 0 5.5 5.12c.99.909 1.981 1.818 2.98 2.718 1.5 1.352 3.011 2.688 4.528 4.019a447.37 447.37 0 0 0 4.162 3.62 520.06 520.06 0 0 0 3.498 2.957 466.662 466.662 0 0 0 5.367 4.446c.813.662 1.629 1.315 2.446 1.97a465.067 465.067 0 0 0 6.585 5.197l1.387 1.063a453.053 453.053 0 0 0 7.789 5.848c.117.087.234.172.352.258 35.051 25.684 73.9 46.479 115.557 61.387.194.069.388.138.582.205a446.04 446.04 0 0 0 9.412 3.243c.789.264 1.583.514 2.372.771 2.556.831 5.117 1.655 7.692 2.442 1.499.46 3.004.896 4.509 1.342 1.877.553 3.753 1.11 5.64 1.641 2.318.653 4.647 1.272 6.978 1.889 1.09.285 2.176.584 3.269.862a437.91 437.91 0 0 0 9.807 2.396l.537.128c42.534 9.853 87.086 13.676 132.578 10.662 45.301-2.915 88.8-12.431 129.543-27.619.235-.088.466-.178.699-.266a451.63 451.63 0 0 0 9.247-3.571c1.089-.436 2.166-.888 3.253-1.329 2.19-.896 4.379-1.792 6.552-2.721 1.847-.787 3.677-1.601 5.51-2.409 1.39-.618 2.783-1.224 4.165-1.854a465.928 465.928 0 0 0 7.438-3.473c.71-.339 1.424-.671 2.13-1.012a455.359 455.359 0 0 0 9.017-4.48l.453-.228c39.414-20.167 75.276-45.812 106.74-75.821.087-.081.173-.164.258-.246a455.467 455.467 0 0 0 7.031-6.865c.393-.39.783-.777 1.173-1.168a477.276 477.276 0 0 0 5.925-6.065z"></path>
</svg>
