<svg width="10" height="20" viewBox="0 0 10 20" fill="none" xmlns="http://www.w3.org/2000/svg">
<path d="M9.49988 4.93758C9.77611 4.93758 10 4.67516 10 4.35164V0.585938C10 0.262298 9.77611 0 9.49988 0H5.74985C3.99722 0 2.57133 1.67053 2.57133 3.72391V7.53129H0.500123C0.223889 7.53129 0 7.79359 0 8.11723V11.8828C0 12.2064 0.223889 12.4687 0.500123 12.4687H2.57133V19.4141C2.57133 19.7377 2.79522 20 3.07146 20H6.28565C6.56192 20 6.78577 19.7377 6.78577 19.4141V12.4687H8.85702C9.09548 12.4687 9.30073 12.2716 9.34747 11.9977L9.99023 8.23211C10.0197 8.06 9.98163 7.88148 9.88654 7.74566C9.79162 7.61 9.64965 7.53129 9.49988 7.53129H6.78577V4.93758H9.49988ZM6.28565 8.70316H8.88983L8.44702 11.2968H6.28565C6.00942 11.2968 5.78553 11.5591 5.78553 11.8828V18.8281H3.57158V11.8828C3.57158 11.5591 3.34769 11.2968 3.07146 11.2968H1.00025V8.70316H3.07146C3.34769 8.70316 3.57158 8.44086 3.57158 8.11723V3.72391C3.57158 2.31674 4.54879 1.17188 5.74985 1.17188H8.99975V3.76571H6.28565C6.00942 3.76571 5.78553 4.02801 5.78553 4.35164V8.11723C5.78553 8.44086 6.00942 8.70316 6.28565 8.70316Z" fill="white"/>
</svg>
