<svg width="28" height="28" viewBox="0 0 28 28" fill="none" xmlns="http://www.w3.org/2000/svg">
<path d="M14 24C19.5228 24 24 19.5228 24 14C24 8.47715 19.5228 4 14 4C8.47715 4 4 8.47715 4 14C4 19.5228 8.47715 24 14 24Z" fill="#3B5998"/>
<path d="M16.514 14.3913H14.7296V20.9284H12.0261V14.3913H10.7403V12.0939H12.0261V10.6072C12.0261 9.54408 12.5311 7.87931 14.7537 7.87931L16.7562 7.88769V10.1177H15.3032C15.0649 10.1177 14.7298 10.2368 14.7298 10.7439V12.096H16.7502L16.514 14.3913Z" fill="white"/>
<circle cx="14" cy="14" r="13.5" stroke="#0072AC"/>
</svg>
