<svg width="28" height="28" viewBox="0 0 28 28" fill="none" xmlns="http://www.w3.org/2000/svg">
<path d="M14 24C19.5228 24 24 19.5228 24 14C24 8.47715 19.5228 4 14 4C8.47715 4 4 8.47715 4 14C4 19.5228 8.47715 24 14 24Z" fill="#007AB9"/>
<path d="M19.9749 14.8047V18.9275H17.5846V15.081C17.5846 14.1152 17.2395 13.4556 16.3741 13.4556C15.7136 13.4556 15.3212 13.8997 15.148 14.3296C15.0851 14.4833 15.0688 14.6967 15.0688 14.9122V18.9273H12.6784C12.6784 18.9273 12.7105 12.4126 12.6784 11.7383H15.069V12.757C15.0642 12.7651 15.0574 12.7729 15.0531 12.7806H15.069V12.757C15.3867 12.2682 15.9532 11.5695 17.2233 11.5695C18.7959 11.5695 19.9749 12.597 19.9749 14.8047ZM10.1778 8.27292C9.36008 8.27292 8.82512 8.80966 8.82512 9.51485C8.82512 10.2051 9.34457 10.7573 10.1464 10.7573H10.1619C10.9956 10.7573 11.514 10.2051 11.514 9.51485C11.4981 8.80966 10.9956 8.27292 10.1778 8.27292ZM8.96719 18.9275H11.3568V11.7383H8.96719V18.9275Z" fill="#F1F2F2"/>
<circle cx="14" cy="14" r="13.5" stroke="#0072AC"/>
</svg>
