<svg width="13" height="13" viewBox="0 0 13 13" fill="none" xmlns="http://www.w3.org/2000/svg">
<path d="M6.49937 5.79773C6.88714 5.79773 7.2015 5.37859 7.2015 4.86154C7.2015 4.3445 6.88714 3.92535 6.49937 3.92535C6.11159 3.92535 5.79724 4.3445 5.79724 4.86154C5.79724 5.37859 6.11159 5.79773 6.49937 5.79773Z" fill="#4B4B4B"/>
<path d="M3.74937 11.2628C2.59388 10.5955 1.7204 9.53082 1.29165 8.26724C0.86291 7.00366 0.908145 5.6273 1.41893 4.3946C1.92972 3.16189 2.87122 2.15691 4.06803 1.5669C5.26484 0.976887 6.63532 0.842078 7.92415 1.18759C9.21298 1.5331 10.3323 2.33537 11.0734 3.44492C11.8146 4.55447 12.1272 5.89564 11.9528 7.21854C11.7785 8.54145 11.1292 9.75587 10.1259 10.6355C9.1226 11.5152 7.83371 12.0002 6.49937 12V7.43617H5.5632" stroke="#4B4B4B" stroke-width="1.25" stroke-linecap="round" stroke-linejoin="round"/>
</svg>
