<svg width="28" height="28" viewBox="0 0 28 28" fill="none" xmlns="http://www.w3.org/2000/svg">
<circle cx="14" cy="14" r="13.5" stroke="#0072AC"/>
<path d="M18.0346 10.4287H9.96545L14.0001 13.887L18.0346 10.4287Z" fill="#0072AC"/>
<path d="M14 14.7141C13.9148 14.7141 13.8323 14.6836 13.7676 14.628L9.35718 10.8477V17.5713H18.6429V10.8477L14.2325 14.628C14.1678 14.6836 14.0853 14.7141 14 14.7141Z" fill="#0072AC"/>
<path d="M14 4C8.47719 4 4 8.47719 4 14C4 19.5228 8.47719 24 14 24C19.5228 24 24 19.5228 24 14C23.9937 8.47981 19.5202 4.00628 14 4ZM19.3571 17.9286C19.3571 18.1258 19.1972 18.2857 19 18.2857H9C8.80277 18.2857 8.64286 18.1258 8.64286 17.9286V10.0714C8.64286 9.8742 8.80277 9.71429 9 9.71429H19C19.1972 9.71429 19.3571 9.8742 19.3571 10.0714V17.9286Z" fill="#0072AC"/>
</svg>
