<svg width="60" height="60" viewBox="0 0 60 60" fill="none" xmlns="http://www.w3.org/2000/svg">
<rect width="60" height="60" rx="5" fill="#C4C4C4"/>
<g clip-path="url(#clip0)">
<path d="M45.0019 21.8726C44.403 21.2452 43.576 20.8745 42.635 20.8745H37.9011V20.8174C37.9011 20.1045 37.616 19.4201 37.1312 18.9638C36.6464 18.479 35.9905 18.1938 35.2776 18.1938H26.7224C25.981 18.1938 25.3251 18.479 24.8403 18.9638C24.3555 19.4486 24.0703 20.1045 24.0703 20.8174V20.8745H19.365C18.424 20.8745 17.597 21.2452 16.9981 21.8726C16.3992 22.4714 16 23.3269 16 24.2395V38.441C16 39.3821 16.3707 40.2091 16.9981 40.8079C17.597 41.4068 18.4525 41.806 19.365 41.806H42.635C43.576 41.806 44.403 41.4353 45.0019 40.8079C45.6008 40.2091 46 39.3535 46 38.441V24.2395C46 23.2984 45.6293 22.4714 45.0019 21.8726ZM44.5171 38.441H44.4886C44.4886 38.9543 44.289 39.4106 43.9468 39.7528C43.6046 40.095 43.1483 40.2946 42.635 40.2946H19.365C18.8517 40.2946 18.3954 40.095 18.0532 39.7528C17.711 39.4106 17.5114 38.9543 17.5114 38.441V24.2395C17.5114 23.7262 17.711 23.2699 18.0532 22.9277C18.3954 22.5855 18.8517 22.3859 19.365 22.3859H24.8688C25.2966 22.3859 25.6388 22.0437 25.6388 21.6159V20.7889C25.6388 20.4752 25.7529 20.19 25.9525 19.9904C26.1521 19.7908 26.4373 19.6767 26.751 19.6767H35.2776C35.5913 19.6767 35.8764 19.7908 36.076 19.9904C36.2757 20.19 36.3897 20.4752 36.3897 20.7889V21.6159C36.3897 22.0437 36.7319 22.3859 37.1597 22.3859H42.6635C43.1768 22.3859 43.6331 22.5855 43.9753 22.9277C44.3175 23.2699 44.5171 23.7262 44.5171 24.2395V38.441Z" fill="white"/>
<path d="M31 24.3252C29.0608 24.3252 27.2928 25.1237 26.038 26.3784C24.7547 27.6617 23.9848 29.4012 23.9848 31.3404C23.9848 33.2796 24.7833 35.0476 26.038 36.3024C27.3213 37.5856 29.0608 38.3556 31 38.3556C32.9392 38.3556 34.7072 37.5571 35.962 36.3024C37.2452 35.0191 38.0152 33.2796 38.0152 31.3404C38.0152 29.4012 37.2167 27.6332 35.962 26.3784C34.7072 25.1237 32.9392 24.3252 31 24.3252ZM34.8783 35.2472C33.8802 36.2168 32.5114 36.8442 31 36.8442C29.4886 36.8442 28.1198 36.2168 27.1217 35.2472C26.1236 34.2491 25.5247 32.8803 25.5247 31.3689C25.5247 29.8575 26.1521 28.4887 27.1217 27.4906C28.1198 26.4925 29.4886 25.8936 31 25.8936C32.5114 25.8936 33.8802 26.521 34.8783 27.4906C35.8764 28.4887 36.4753 29.8575 36.4753 31.3689C36.5038 32.8803 35.8764 34.2491 34.8783 35.2472Z" fill="white"/>
<path d="M41.1521 27.0911C41.9238 27.0911 42.5494 26.4655 42.5494 25.6937C42.5494 24.922 41.9238 24.2964 41.1521 24.2964C40.3804 24.2964 39.7548 24.922 39.7548 25.6937C39.7548 26.4655 40.3804 27.0911 41.1521 27.0911Z" fill="white"/>
</g>
<defs>
<clipPath id="clip0">
<rect width="30" height="30" fill="white" transform="translate(16 15)"/>
</clipPath>
</defs>
</svg>
