<svg width="28" height="28" viewBox="0 0 28 28" fill="none" xmlns="http://www.w3.org/2000/svg">
<path d="M14 24C19.5228 24 24 19.5228 24 14C24 8.47715 19.5228 4 14 4C8.47715 4 4 8.47715 4 14C4 19.5228 8.47715 24 14 24Z" fill="#55ACEE"/>
<path d="M20.1254 11.1867C19.6968 11.3767 19.2358 11.5052 18.7524 11.5626C19.246 11.2669 19.6248 10.799 19.8036 10.2405C19.3417 10.5145 18.8299 10.7132 18.2857 10.8204C17.8497 10.356 17.2285 10.0658 16.5406 10.0658C15.2207 10.0658 14.1503 11.1362 14.1503 12.4561C14.1503 12.6434 14.1715 12.8258 14.2125 13.0008C12.226 12.9012 10.4646 11.9496 9.28557 10.5031C9.07986 10.856 8.96185 11.2669 8.96185 11.7049C8.96185 12.534 9.38415 13.2659 10.0252 13.6944C9.63353 13.6821 9.26472 13.5746 8.9426 13.3951C8.94242 13.4053 8.94242 13.4155 8.94242 13.4254C8.94242 14.5836 9.7667 15.5496 10.86 15.769C10.6596 15.8239 10.448 15.853 10.2303 15.853C10.076 15.853 9.92642 15.8382 9.7806 15.8104C10.0847 16.7598 10.9673 17.4509 12.0135 17.4703C11.1953 18.1115 10.1647 18.4935 9.04457 18.4935C8.85205 18.4935 8.66131 18.4823 8.47467 18.46C9.53193 19.1385 10.7887 19.534 12.1384 19.534C16.535 19.534 18.9394 15.8918 18.9394 12.7329C18.9394 12.6293 18.9371 12.5261 18.9324 12.4238C19.3998 12.0869 19.805 11.666 20.1254 11.1867Z" fill="#F1F2F2"/>
<circle cx="14" cy="14" r="13.5" stroke="#0072AC"/>
</svg>
