<svg width="20" height="20" viewBox="0 0 20 20" fill="none" xmlns="http://www.w3.org/2000/svg">
<path d="M14.6538 0.881897H5.6538C3.16853 0.881897 1.15381 2.90914 1.15381 5.40988V14.4659C1.15381 16.9666 3.16853 18.9938 5.6538 18.9938H14.6538C17.1391 18.9938 19.1538 16.9666 19.1538 14.4659V5.40988C19.1538 2.90914 17.1391 0.881897 14.6538 0.881897Z" stroke="white" stroke-width="1.33333" stroke-linecap="round" stroke-linejoin="round"/>
<path d="M10.1538 13.3345C12.0177 13.3345 13.5288 11.8139 13.5288 9.9382C13.5288 8.06249 12.0177 6.54187 10.1538 6.54187C8.28988 6.54187 6.77881 8.06249 6.77881 9.9382C6.77881 11.8139 8.28988 13.3345 10.1538 13.3345Z" stroke="white" stroke-width="1.33333" stroke-linecap="round" stroke-linejoin="round"/>
<path d="M15.2163 4.84399V4.84499" stroke="white" stroke-width="1.33333" stroke-linecap="round" stroke-linejoin="round"/>
</svg>
