<svg width="44" height="31" viewBox="0 0 44 31" fill="none" xmlns="http://www.w3.org/2000/svg">
<path d="M4.81161 30V14H1.40833C1.31817 14.0038 1.22949 13.9757 1.15724 13.9206C1.085 13.8654 1.0336 13.7866 1.01171 13.6973C0.989828 13.6081 0.998791 13.5139 1.03709 13.4306C1.07539 13.3472 1.14069 13.2799 1.22198 13.24L22.4655 1L42.797 13.25C42.8745 13.2935 42.9352 13.3625 42.9695 13.4456C43.0037 13.5288 43.0093 13.6214 42.9855 13.7082C42.9616 13.7951 42.9097 13.8712 42.8381 13.9241C42.7665 13.9771 42.6794 14.0038 42.591 14H40.1195V30H27.3694V19H17.5617V30H4.81161Z" stroke="#363636" stroke-miterlimit="10"/>
</svg>
