<svg width="34" height="29" viewBox="0 0 34 29" fill="none" xmlns="http://www.w3.org/2000/svg">
<path d="M15.7918 1.65942L1.20182 25.8794C1.07483 26.0848 1.00523 26.3204 1.00028 26.5618C0.995335 26.8032 1.05521 27.0415 1.17368 27.2519C1.29214 27.4622 1.46486 27.637 1.67383 27.7579C1.88281 27.8789 2.12039 27.9415 2.36182 27.9394H31.5018C31.742 27.9384 31.9776 27.8737 32.1847 27.752C32.3918 27.6304 32.563 27.456 32.6808 27.2467C32.7987 27.0374 32.859 26.8007 32.8557 26.5605C32.8523 26.3203 32.7854 26.0853 32.6618 25.8794L18.1118 1.65942C17.9922 1.45843 17.8223 1.29198 17.619 1.17638C17.4156 1.06078 17.1857 1 16.9518 1C16.7179 1 16.488 1.06078 16.2847 1.17638C16.0813 1.29198 15.9115 1.45843 15.7918 1.65942V1.65942Z" stroke="#363636" stroke-miterlimit="10"/>
<path d="M16.6999 20.9045L16.1899 11.3495H17.8099L17.2699 20.9045H16.6999ZM16.1899 23.4995V21.8495H17.8099V23.4995H16.1899Z" fill="#363636"/>
</svg>
