<svg width="35" height="28" viewBox="0 0 35 28" fill="none" xmlns="http://www.w3.org/2000/svg">
<path d="M1.81 1H33.19C33.2964 1 33.4017 1.02095 33.5 1.06166C33.5982 1.10236 33.6875 1.16203 33.7628 1.23724C33.838 1.31246 33.8976 1.40175 33.9383 1.50003C33.979 1.5983 34 1.70363 34 1.81V25.81C34.0026 25.9749 33.9542 26.1365 33.8614 26.2728C33.7686 26.4091 33.6359 26.5134 33.4816 26.5714C33.3272 26.6294 33.1587 26.6383 32.9991 26.5969C32.8396 26.5555 32.6967 26.4657 32.59 26.34L27.17 20.14C27.0947 20.0519 27.0011 19.9813 26.8958 19.9329C26.7905 19.8846 26.6759 19.8597 26.56 19.86H1.81C1.59517 19.86 1.38915 19.7747 1.23724 19.6228C1.08534 19.4709 1 19.2648 1 19.05V1.81C1 1.59517 1.08534 1.38915 1.23724 1.23724C1.38915 1.08534 1.59517 1 1.81 1V1Z" stroke="#269FDC" stroke-miterlimit="10"/>
</svg>
