<svg width="21" height="29" viewBox="0 0 21 29" fill="none" xmlns="http://www.w3.org/2000/svg">
<path d="M20.1803 27.64L10.8503 17.15C10.8355 17.1294 10.816 17.1125 10.7934 17.1009C10.7708 17.0893 10.7457 17.0833 10.7203 17.0833C10.6949 17.0833 10.6699 17.0893 10.6473 17.1009C10.6247 17.1125 10.6051 17.1294 10.5903 17.15L1.32033 27.64C1.20033 27.78 1.00033 27.67 1.00033 27.5V1.23C0.997311 1.1748 1.01518 1.12049 1.05039 1.07788C1.08559 1.03526 1.13555 1.00746 1.19033 1H20.3103C20.3651 1.00746 20.4151 1.03526 20.4503 1.07788C20.4855 1.12049 20.5033 1.1748 20.5003 1.23V27.5C20.5003 27.67 20.3003 27.78 20.1803 27.64Z" stroke="#269FDC" stroke-miterlimit="10"/>
</svg>
