<svg width="29" height="28" viewBox="0 0 29 28" fill="none" xmlns="http://www.w3.org/2000/svg">
<path d="M14.0487 1.1067C14.2299 0.727135 14.7701 0.727135 14.9513 1.1067L18.5672 8.68459C18.7859 9.14285 19.2216 9.45938 19.725 9.52574L28.0494 10.6231C28.4664 10.678 28.6333 11.1919 28.3283 11.4814L22.2387 17.2621C21.8704 17.6117 21.704 18.1238 21.7965 18.6231L23.3252 26.8792C23.4018 27.2927 22.9647 27.6103 22.5951 27.4097L15.2155 23.4044C14.7693 23.1622 14.2307 23.1622 13.7845 23.4044L6.40491 27.4097C6.03528 27.6103 5.59818 27.2927 5.67475 26.8792L7.20353 18.6231C7.29598 18.1238 7.12957 17.6117 6.76131 17.2621L0.671709 11.4814C0.366693 11.1919 0.533649 10.678 0.950601 10.6231L9.27501 9.52574C9.77842 9.45938 10.2141 9.14286 10.4328 8.68459L14.0487 1.1067Z" stroke="#269FDC"/>
</svg>
