<svg width="22" height="20" viewBox="0 0 22 20" fill="none" xmlns="http://www.w3.org/2000/svg">
<path d="M19.7395 4.98769C20.6342 4.27692 21.3868 3.38974 22 2.36821V2.36718C21.1814 2.76821 20.3106 3.03487 19.4013 3.1641C20.3363 2.53949 21.0503 1.55795 21.3858 0.375385C20.5141 0.956923 19.5516 1.36718 18.5258 1.59692C17.6981 0.610256 16.5183 0 15.2313 0C12.7343 0 10.7241 2.26769 10.7241 5.04718C10.7241 5.44718 10.7543 5.8318 10.8286 6.19795C7.07942 5.99282 3.76108 3.98256 1.53175 0.918974C1.14308 1.67487 0.913917 2.53949 0.913917 3.46974C0.913917 5.21744 1.71783 6.76615 2.91775 7.66359C2.19267 7.64821 1.48225 7.41231 0.88 7.04205V7.09744C0.88 9.54974 2.44292 11.5867 4.4935 12.0564C4.12592 12.1692 3.72625 12.2226 3.311 12.2226C3.02225 12.2226 2.73075 12.2041 2.45758 12.1364C3.0415 14.1344 4.70067 15.6041 6.6715 15.6523C5.137 16.9949 3.18817 17.8041 1.07892 17.8041C0.7095 17.8041 0.35475 17.7856 0 17.7354C1.99833 19.1764 4.36517 20 6.919 20C14.8784 20 20.0658 12.5703 19.7395 4.98769Z" fill="white"/>
</svg>
