<svg width="23" height="18" viewBox="0 0 23 18" fill="none" xmlns="http://www.w3.org/2000/svg">
<path d="M15.1948 7.64093L9.95658 5.02163C9.6463 4.86649 9.33637 4.78784 9.03519 4.78784C8.10791 4.78784 7.46028 5.51836 7.46028 6.5644V11.4353C7.46028 12.4814 8.10791 13.2119 9.03519 13.2119C9.33637 13.2119 9.6463 13.1332 9.95658 12.9781L15.1948 10.359C15.8309 10.0409 16.1957 9.54556 16.1957 8.9998C16.1957 8.45418 15.8309 7.95901 15.1948 7.64093ZM14.6136 9.19691L9.37544 11.816C9.21588 11.8959 9.10236 11.9126 9.03519 11.9126C8.8075 11.9126 8.7596 11.6531 8.7596 11.4353V6.5644C8.7596 6.34668 8.8075 6.08734 9.03519 6.08734C9.10236 6.08734 9.21588 6.10405 9.37544 6.18374L14.6138 8.80322C14.7754 8.88391 14.8549 8.95987 14.8854 8.99998C14.8549 9.04008 14.7754 9.11601 14.6136 9.19691Z" fill="white"/>
<path d="M19.9397 0H2.543C1.22558 0 0.153809 1.07177 0.153809 2.38919V15.6106C0.153809 16.9281 1.22558 18 2.543 18H19.9397C21.2571 18 22.3289 16.9281 22.3289 15.6106V2.38919C22.3289 1.07177 21.2571 0 19.9397 0ZM21.0296 15.6106C21.0296 16.2116 20.5406 16.7007 19.9397 16.7007H2.543C1.94207 16.7007 1.45313 16.2116 1.45313 15.6106V2.38919C1.45313 1.78826 1.94207 1.29932 2.543 1.29932H19.9397C20.5406 1.29932 21.0296 1.78826 21.0296 2.38919V15.6106Z" fill="white"/>
</svg>
