<svg width="77" height="77" viewBox="0 0 77 77" fill="none" xmlns="http://www.w3.org/2000/svg">
<path d="M52.1613 12.4193H24.8387V64.5806H52.1613V12.4193Z" fill="#EBF7F7"/>
<path d="M24.8387 12.4193H7.45161C3.35323 12.4193 0 15.4 0 19.6226V57.3774C0 61.6 3.35323 64.5806 7.45161 64.5806H24.8387V12.4193Z" fill="#E73B36"/>
<path d="M69.5484 12.4193H52.1613V64.5806H69.5484C73.6468 64.5806 77 61.6 77 57.3774V19.6226C77 15.4 73.6468 12.4193 69.5484 12.4193Z" fill="#E73B36"/>
<path d="M69.5484 12.4193H52.1613V49.8016L69.3 64.5806C73.3984 64.5806 77 61.6 77 57.3774V19.6226C77 15.4 73.6468 12.4193 69.5484 12.4193Z" fill="#DB2828"/>
<path d="M52.1613 49.8016V12.4193H24.8387V27.1984L52.1613 49.8016Z" fill="#E2F2F1"/>
<path d="M24.8387 12.4193H7.45161L24.8387 27.1984V12.4193Z" fill="#DB2828"/>
<path d="M52.1613 64.5806H69.5484C73.6468 64.5806 77 62.0968 77 57.129H52.1613V64.5806Z" fill="#C61A1A"/>
<path d="M52.1613 57.129H24.8387V64.5806H52.1613V57.129Z" fill="#D6EAE8"/>
<path d="M0 57.129C0 62.0968 3.35323 64.5806 7.45161 64.5806H24.8387V57.129H0Z" fill="#C61A1A"/>
<path d="M69.5484 12.4193H52.1613V25.5839L77 33.2839V19.6226C77 15.4 73.6468 12.4193 69.5484 12.4193Z" fill="#C61A1A"/>
<path d="M52.1613 25.5839V12.4193H24.8387V17.5113L52.1613 25.5839Z" fill="#D6EAE8"/>
<path d="M24.8387 12.4193H7.45161L24.8387 17.5113V12.4193Z" fill="#C61A1A"/>
</svg>
