<svg width="31" height="31" viewBox="0 0 31 31" fill="none" xmlns="http://www.w3.org/2000/svg">
<path d="M13.3824 2.11018C14.5531 0.943566 16.4469 0.943564 17.6176 2.11018L19.8045 4.28942C20.2834 4.7666 20.9093 5.06806 21.581 5.14493L24.6483 5.49598C26.2903 5.68391 27.4711 7.16451 27.2889 8.80719L26.9486 11.8757C26.8741 12.5476 27.0287 13.225 27.3873 13.798L29.0253 16.415C29.9022 17.816 29.4808 19.6623 28.0829 20.544L25.4717 22.1912C24.8999 22.5518 24.4667 23.095 24.2423 23.7327L23.2175 26.645C22.6689 28.2041 20.9627 29.0257 19.4017 28.4826L16.4859 27.468C15.8474 27.2459 15.1526 27.2459 14.5141 27.468L11.5983 28.4826C10.0373 29.0257 8.33109 28.2041 7.78249 26.645L6.7577 23.7327C6.5333 23.095 6.10011 22.5518 5.52834 22.1912L2.9171 20.544C1.51923 19.6623 1.09782 17.816 1.97468 16.415L3.61266 13.798C3.97131 13.225 4.12592 12.5476 4.05141 11.8757L3.71112 8.80719C3.52895 7.16452 4.70969 5.68391 6.35172 5.49598L9.41903 5.14493C10.0907 5.06806 10.7166 4.7666 11.1955 4.28942L13.3824 2.11018Z" fill="#1DA1F2"/>
<path d="M14.6624 20.1539C14.5533 20.2636 14.4046 20.3248 14.25 20.3248C14.0954 20.3248 13.9467 20.2636 13.8376 20.1539L10.5441 16.8598C10.2023 16.518 10.2023 15.9638 10.5441 15.6226L10.9565 15.2102C11.2983 14.8683 11.8519 14.8683 12.1938 15.2102L14.25 17.2664L19.8063 11.7102C20.1481 11.3683 20.7023 11.3683 21.0435 11.7102L21.4559 12.1226C21.7978 12.4644 21.7978 13.0186 21.4559 13.3598L14.6624 20.1539Z" fill="white"/>
</svg>
