<svg width="32" height="28" viewBox="0 0 32 28" fill="none" xmlns="http://www.w3.org/2000/svg">
<path d="M29.8571 5.97334C28.4286 4.21756 26.4881 2.83055 24.0358 1.81269C21.5835 0.79482 18.9048 0.28595 16 0.28595C13.0953 0.28595 10.4166 0.79482 7.96425 1.81269C5.5119 2.83055 3.57148 4.21731 2.14288 5.97334C0.714209 7.72925 0 9.64283 0 11.7143C0 13.4999 0.538518 15.173 1.61599 16.7324C2.69347 18.2919 4.16648 19.6016 6.03572 20.6611C5.90463 21.1371 5.74989 21.5894 5.57126 22.0183C5.39269 22.4468 5.23201 22.7981 5.08915 23.0721C4.94618 23.3456 4.75291 23.6493 4.50867 23.9824C4.2648 24.3159 4.08029 24.5511 3.95526 24.6881C3.83036 24.8251 3.62502 25.0509 3.33913 25.3666C3.05361 25.6819 2.86897 25.8876 2.78572 25.9829C2.77365 25.9889 2.72612 26.0422 2.64281 26.1439C2.55956 26.2449 2.51778 26.2951 2.51778 26.2951L2.41064 26.4559C2.35103 26.5447 2.32426 26.6014 2.33014 26.625C2.33614 26.649 2.32426 26.7084 2.29449 26.8035C2.26465 26.8989 2.26772 26.9704 2.30337 27.0179V27.0359C2.35103 27.2381 2.44616 27.402 2.58902 27.5269C2.73187 27.6515 2.89286 27.714 3.07124 27.714H3.16062C3.93462 27.6185 4.61312 27.488 5.19636 27.3213C8.31551 26.5238 11.0537 25.0833 13.4107 22.9997C14.3035 23.095 15.1666 23.1425 15.9999 23.1425C18.9046 23.1425 21.5834 22.6337 24.0357 21.6156C26.488 20.5976 28.4285 19.2111 29.8569 17.4552C31.2857 15.6994 31.9999 13.7857 31.9999 11.7142C32 9.64308 31.2858 7.72925 29.8571 5.97334ZM27.8481 16.268C26.6037 17.6725 24.9251 18.7887 22.8121 19.616C20.6991 20.443 18.4281 20.857 15.9996 20.857C15.2735 20.857 14.4997 20.8095 13.6783 20.714L12.6604 20.6072L11.8926 21.2859C10.4285 22.5717 8.79142 23.5894 6.98191 24.3395C7.52944 23.3754 7.94612 22.3515 8.23195 21.2684L8.71405 19.5539L7.16054 18.6613C5.61291 17.7799 4.41366 16.7354 3.56229 15.5269C2.71104 14.3189 2.28561 13.0477 2.28561 11.7145C2.28561 10.0835 2.90762 8.56579 4.1516 7.16102C5.39594 5.75637 7.07429 4.64025 9.18746 3.81289C11.3006 2.98548 13.5712 2.57143 15.9999 2.57143C18.4285 2.57143 20.699 2.98529 22.812 3.81264C24.925 4.64006 26.6036 5.75612 27.848 7.16077C29.0921 8.56555 29.714 10.0833 29.714 11.7142C29.714 13.3451 29.0921 14.8632 27.8481 16.268Z" fill="#C4C4C4"/>
</svg>
