<svg width="113" height="113" viewBox="0 0 113 113" fill="none" xmlns="http://www.w3.org/2000/svg">
<path d="M89.9628 54.8439C89.6709 51.4139 90.6244 47.7303 91.3726 45.6717C91.6564 44.8911 91.0828 44.0663 90.2524 44.0663H78.5317L73.8577 38.7054H61.0446C61.0446 38.7054 58.6407 34.1481 58.6407 28.9831C58.6407 24.2575 57.0059 24.0104 53.4207 23.5981C53.4207 23.5981 56.2135 15.278 60.6464 11.3265C65.372 7.11384 67.8032 7.60847 67.8032 5.02584C67.8032 2.82788 66.1166 1.69699 64.0257 1.69699C61.9345 1.69699 59.2933 3.99587 56.3914 6.5131C54.7123 7.96959 52.8032 9.95667 49.6864 9.45481C48.8947 9.32742 48.1213 9.75145 47.8276 10.4977C47.3357 11.7474 46.5123 13.3781 45.5633 13.3781C44.6737 13.3781 43.674 12.7902 42.9889 12.2942C42.3809 11.8542 41.5568 11.8641 40.9534 12.3103C39.4466 13.4245 37.1224 16.1021 37.651 21.84C34.6479 23.0565 32.3812 25.0091 31.2693 26.0973C30.8788 26.4792 30.8423 27.099 31.1994 27.5124L26.4168 28.0649C26.4168 28.0649 27.5664 53.639 27.8896 60.187L90.7246 57.9243C90.3424 57.0046 90.0589 55.9753 89.9628 54.8439Z" fill="#F8E883"/>
<path d="M31.1865 55.778C31.1865 55.778 29.4169 53.4872 29.5185 52.1251C29.7035 49.6454 31.4483 45.7498 30.5971 41.7774C29.2784 35.6234 26.4163 28.0649 26.4163 28.0649C25.6416 28.1545 25.1162 28.8969 25.2922 29.6567C25.6429 31.1713 25.7176 33.6207 23.4199 35.5313C22.9637 35.9107 22.8132 36.545 23.0612 37.0839C23.7694 38.6228 25.1332 41.9229 26.0717 46.3028C26.9229 50.2749 25.1782 54.1708 24.9931 56.6505C24.965 57.027 25.0802 57.4743 25.261 57.9246L29.9468 60.1872L31.1865 55.778Z" fill="#EEC06B"/>
<path d="M93.6378 69.7348C92.6698 68.5395 91.5806 67.388 90.2906 66.3478L92.9208 64.4037C93.8021 63.7523 93.9243 62.4787 93.1769 61.677C92.3598 60.8004 91.3905 59.5306 90.7241 57.9248H27.8891C27.9418 58.9948 27.9726 59.6173 27.9726 59.6173L20.1528 72.4331L30.9453 81.1093C31.1295 81.2573 31.3415 81.3641 31.5705 81.4229C33.0263 81.7963 38.8934 83.4376 43.8534 86.7855L75.5359 84.5228L75.6862 82.8258H79.6698C80.5991 82.8258 81.4094 82.1099 81.4372 81.181C81.4662 80.2201 80.6955 79.4318 79.7409 79.4318H75.9864L76.4442 74.2604L93.6378 69.7348Z" fill="#5A86CC"/>
<path d="M45.5828 81.7132C39.5385 77.7569 32.6152 79.0758 32.6152 79.0758L21.7873 72.0548L29.947 57.9246H25.2612C25.7348 59.1036 26.6614 60.3033 26.6614 60.3033L22.1557 68.1059C22.1557 68.1059 20.205 67.6939 18.0621 69.3423C16.4868 70.5539 16.2811 73.0073 16.3329 74.591C16.3619 75.4816 16.8296 76.2995 17.5774 76.7842L27.247 83.0543C27.7681 83.3924 28.3871 83.5412 29.0053 83.4804C30.5819 83.3256 33.9906 83.215 37.606 84.5223L43.8534 86.785L49.2244 84.5223C48.0858 83.493 46.8741 82.5586 45.5828 81.7132Z" fill="#3B68B0"/>
<path d="M93.6378 69.7348H76.8442L76.4437 74.2602H88.6601C89.4831 74.2602 90.2621 73.8893 90.7809 73.2508L91.3213 72.5858C92.568 73.931 93.2658 75.6556 93.2798 77.394C93.2871 78.3056 93.9847 79.0994 94.8952 79.1422C95.8695 79.1879 96.6741 78.4115 96.6741 77.4472C96.6743 74.3837 95.6842 72.2032 93.6378 69.7348Z" fill="#3B68B0"/>
<path d="M75.3447 86.6782L75.5355 84.5226H49.2241C49.5425 84.7375 44.487 84.9634 44.7965 85.2073C54.9075 93.1773 54.8408 102.67 60.1207 100.671C68.9925 97.3133 74.1312 101.214 74.1312 101.214L69.915 109.142L77.2304 106.88C78.1439 103.357 79.1435 99.5006 79.6171 97.6737C80.6061 93.8586 79.301 88.8762 75.3447 86.6782Z" fill="#D97B7B"/>
<path d="M76.6066 98.6919C76.6066 98.6919 74.5007 96.4394 70.5291 96.4394C67.1278 96.4394 65.793 97.0897 63.2697 98.2059C60.9192 99.2456 58.154 98.195 57.1234 95.8407C55.056 91.1176 52.4396 87.4313 49.2241 84.5226H37.6057C38.7529 84.9373 39.9207 85.4946 41.0574 86.2386C45.996 89.4711 49.7975 93.9693 52.5967 100.362C53.628 102.718 56.3927 103.771 58.7446 102.731C61.2679 101.615 62.6024 100.965 66.0039 100.965C69.9754 100.965 72.0815 103.217 72.0815 103.217L68.5078 109.824C68.1216 110.538 68.6386 111.405 69.4502 111.405H72.9275L74.0106 112.636C74.5783 113.281 75.6364 113.029 75.852 112.197C76.2038 110.839 76.7028 108.915 77.2307 106.879H72.1779L76.6066 98.6919Z" fill="#D16161"/>
<path d="M26.4236 4.64277C25.5033 4.46515 24.9012 3.57524 25.0789 2.65478L25.3257 1.37546C25.5033 0.455233 26.3941 -0.145735 27.3137 0.0307544C28.2339 0.208375 28.836 1.09829 28.6584 2.01874L28.4115 3.29806C28.2337 4.21829 27.3438 4.82017 26.4236 4.64277Z" fill="#F8E883"/>
<path d="M27.0865 9.15478L26.1907 13.798C26.0131 14.7183 25.1232 15.3204 24.203 15.1427C23.2827 14.9651 22.6806 14.0752 22.8583 13.155L23.7541 8.51173C23.9317 7.5915 24.8216 6.9894 25.7418 7.16702C26.6618 7.34464 27.2639 8.23455 27.0865 9.15478Z" fill="#F8E883"/>
</svg>
