<svg width="31" height="31" viewBox="0 0 31 31" fill="none" xmlns="http://www.w3.org/2000/svg">
<g clip-path="url(#clip0)">
<path d="M31 5.88806C29.8472 6.39375 28.6188 6.72894 27.3381 6.89169C28.6556 6.10506 29.6612 4.86894 30.1339 3.379C28.9056 4.11137 27.5493 4.62869 26.1039 4.91738C24.9376 3.67544 23.2752 2.90625 21.4617 2.90625C17.9432 2.90625 15.1106 5.76213 15.1106 9.26319C15.1106 9.76694 15.1532 10.2513 15.2578 10.7124C9.97425 10.4547 5.29906 7.92244 2.15838 4.06488C1.61006 5.01619 1.28844 6.10506 1.28844 7.27725C1.28844 9.47825 2.42188 11.4293 4.11137 12.5589C3.09031 12.5395 2.08862 12.2431 1.24 11.7761C1.24 11.7955 1.24 11.8207 1.24 11.8459C1.24 14.9342 3.44294 17.4995 6.33175 18.0904C5.81444 18.2319 5.25063 18.2997 4.6655 18.2997C4.25863 18.2997 3.84787 18.2764 3.46231 18.1912C4.28575 20.708 6.62238 22.5583 9.40075 22.6184C7.2385 24.3098 4.49306 25.3289 1.52094 25.3289C0.99975 25.3289 0.499875 25.3057 0 25.2417C2.81519 27.0572 6.15156 28.0938 9.7495 28.0938C21.4443 28.0938 27.838 18.4062 27.838 10.0091C27.838 9.72819 27.8283 9.45694 27.8148 9.18763C29.0761 8.2925 30.1359 7.17456 31 5.88806Z" fill="#1DA1F2"/>
</g>
<defs>
<clipPath id="clip0">
<rect width="31" height="31" fill="white"/>
</clipPath>
</defs>
</svg>
