<svg width="216" height="56" viewBox="0 0 216 56" fill="none" xmlns="http://www.w3.org/2000/svg">
<rect width="216" height="56" fill="#1D9E11"/>
<path d="M107.503 15H107.497C100.605 15 95 20.6062 95 27.5C95 30.2344 95.8813 32.7687 97.3797 34.8266L95.8219 39.4703L100.627 37.9344C102.603 39.2438 104.961 40 107.503 40C114.395 40 120 34.3922 120 27.5C120 20.6078 114.395 15 107.503 15ZM114.777 32.6516C114.475 33.5031 113.278 34.2094 112.323 34.4156C111.67 34.5547 110.817 34.6656 107.945 33.475C104.272 31.9531 101.906 28.2203 101.722 27.9781C101.545 27.7359 100.238 26.0016 100.238 24.2078C100.238 22.4141 101.148 21.5406 101.516 21.1656C101.817 20.8578 102.316 20.7172 102.794 20.7172C102.948 20.7172 103.087 20.725 103.212 20.7312C103.58 20.7469 103.764 20.7688 104.006 21.3484C104.308 22.075 105.042 23.8688 105.13 24.0531C105.219 24.2375 105.308 24.4875 105.183 24.7297C105.066 24.9797 104.962 25.0906 104.778 25.3031C104.594 25.5156 104.419 25.6781 104.234 25.9062C104.066 26.1047 103.875 26.3172 104.087 26.6844C104.3 27.0437 105.034 28.2422 106.116 29.2047C107.511 30.4469 108.642 30.8438 109.047 31.0125C109.348 31.1375 109.708 31.1078 109.928 30.8734C110.208 30.5719 110.553 30.0719 110.905 29.5797C111.155 29.2266 111.47 29.1828 111.802 29.3078C112.139 29.425 113.925 30.3078 114.292 30.4906C114.659 30.675 114.902 30.7625 114.991 30.9172C115.078 31.0719 115.078 31.7984 114.777 32.6516Z" fill="white"/>
</svg>
